{"glyphs":{"0":{"ha":681,"x_min":0,"x_max":0,"o":"m 665 657 l 665 693 b 636 786 663 726 656 758 b 536 843 613 822 575 843 b 488 833 519 843 504 840 b 439 804 471 825 454 817 b 415 782 431 797 424 789 b 410 779 414 781 411 779 b 403 783 407 779 406 781 b 397 790 401 785 399 788 b 360 808 385 803 372 808 b 333 801 351 808 342 806 b 296 774 319 794 307 785 b 229 701 272 751 250 728 b 26 299 133 582 65 447 b 3 142 13 247 3 196 l 3 124 b 25 31 4 92 10 60 b 111 -21 44 -3 75 -21 b 129 -19 117 -21 124 -21 b 185 -3 149 -17 168 -11 b 336 100 242 22 290 60 b 467 239 383 142 426 189 b 618 471 526 311 578 388 b 665 657 644 531 665 592 z m 313 631 b 303 613 308 624 306 618 b 253 488 283 572 264 531 b 247 438 249 471 247 454 b 258 404 249 426 251 414 b 267 394 260 400 264 397 b 274 392 269 393 271 392 b 281 394 276 392 278 393 b 283 401 282 396 283 399 b 282 406 283 403 283 404 b 274 438 275 417 274 428 b 281 478 274 451 276 465 b 328 589 290 518 308 554 b 421 724 354 636 385 682 b 503 785 443 750 471 771 b 538 793 514 789 525 792 l 543 793 b 607 750 574 793 593 781 b 622 667 619 722 622 696 l 622 651 b 546 424 617 569 586 494 b 332 146 488 321 417 228 b 201 43 292 107 249 72 b 129 14 178 31 154 19 b 114 13 124 13 119 13 b 68 49 90 13 75 24 b 60 94 63 64 60 79 b 61 111 60 100 60 106 b 131 343 67 193 96 269 b 304 625 176 443 236 536 b 313 631 306 626 307 631 z "},"1":{"ha":561,"x_min":0,"x_max":0,"o":"m 160 118 l 160 125 b 165 144 161 131 164 138 b 256 338 189 211 221 275 b 404 558 299 415 351 486 b 518 717 442 611 482 663 b 540 758 526 731 535 744 b 546 785 543 768 546 775 l 546 790 b 508 826 542 813 528 826 b 496 825 504 826 500 826 b 475 818 488 824 481 821 b 329 732 422 794 372 768 b 285 686 313 718 296 704 b 279 669 282 681 279 675 b 282 658 279 665 279 663 b 301 650 288 651 294 650 l 308 650 b 336 654 318 653 326 653 b 351 665 346 654 351 660 b 349 675 351 668 350 672 b 344 685 346 679 344 682 b 353 696 344 689 349 692 b 449 753 383 718 415 736 b 453 754 450 754 451 754 b 456 753 453 754 454 754 b 442 733 453 746 447 739 b 315 554 397 675 354 617 b 185 303 265 474 224 389 b 118 107 157 240 129 175 b 101 89 117 97 110 92 b 28 46 76 75 51 61 b 11 32 22 42 15 38 b 6 17 7 26 6 21 b 21 -3 6 8 11 0 b 39 -7 26 -6 32 -7 l 46 -7 b 60 7 56 -7 60 -3 l 60 18 b 65 29 60 22 61 26 b 110 58 79 39 94 49 b 118 61 113 60 115 61 b 126 56 121 61 124 60 b 136 46 129 51 132 49 b 144 44 139 44 142 44 b 151 46 147 44 150 44 b 156 54 154 49 156 51 b 154 61 156 57 156 58 b 151 75 153 67 151 71 b 165 88 151 81 156 83 b 254 121 194 101 224 111 b 274 133 269 125 274 128 l 274 136 b 260 144 272 142 268 144 b 250 143 257 144 254 144 b 178 122 226 138 201 132 b 163 118 174 121 168 118 z "},"2":{"ha":808,"x_min":0,"x_max":0,"o":"m 328 85 l 258 85 b 267 93 260 89 264 90 b 657 425 415 182 544 293 b 763 585 699 474 735 526 b 792 700 779 622 792 658 l 792 711 b 704 826 790 767 757 811 b 653 835 688 832 669 835 b 608 829 638 835 624 832 b 375 690 514 810 438 763 b 347 646 364 676 354 661 b 339 607 343 632 339 621 l 339 601 b 385 538 340 574 357 550 b 393 535 388 536 390 535 b 401 539 396 535 399 536 b 406 547 404 542 406 544 b 404 554 406 549 404 551 b 399 565 403 558 401 563 b 394 576 396 569 394 574 b 399 590 394 582 396 586 b 429 635 407 607 417 622 b 607 743 479 686 539 721 b 665 754 625 750 644 754 b 692 751 674 754 682 754 b 725 713 715 746 725 735 l 725 704 b 696 624 721 675 710 649 b 538 413 653 546 597 478 b 260 171 453 324 361 242 b 44 54 192 125 125 76 b 14 38 33 51 22 46 b 3 17 7 32 3 24 b 8 0 3 11 6 6 b 36 -15 15 -10 25 -15 b 43 -14 39 -15 40 -14 b 68 -7 51 -12 60 -10 b 176 25 103 8 139 18 b 307 42 219 35 263 39 b 381 46 332 43 356 46 b 422 43 394 46 408 44 b 456 35 433 42 444 39 b 461 33 457 33 460 33 b 471 39 465 33 468 35 b 472 46 472 42 472 44 b 469 54 472 49 472 51 b 458 64 467 58 463 61 b 428 76 449 69 439 74 b 328 85 394 83 360 85 z "},"3":{"ha":718,"x_min":0,"x_max":0,"o":"m 368 442 b 385 457 372 451 379 453 b 546 560 439 490 493 524 b 650 646 582 586 618 613 b 692 715 668 667 685 689 b 694 740 694 724 694 732 b 636 821 694 778 672 808 b 593 829 622 825 607 828 l 572 829 b 399 786 511 829 454 814 b 299 717 361 769 328 746 b 264 661 283 701 271 683 b 260 633 261 651 260 643 b 271 593 260 619 264 607 b 282 583 274 589 276 583 b 286 585 283 583 285 585 b 292 593 290 586 292 590 b 290 599 292 594 290 597 b 289 608 289 601 289 606 b 303 642 289 621 294 632 b 333 671 311 653 322 663 b 513 753 386 711 447 736 b 579 761 535 760 557 761 l 599 761 b 625 754 608 760 617 758 b 632 744 629 753 632 749 b 631 739 632 743 632 742 b 617 717 628 731 622 724 b 558 661 600 694 579 678 b 299 479 476 594 388 536 b 239 440 279 467 258 453 b 225 418 231 435 225 426 b 226 411 225 415 226 414 b 251 388 231 399 238 390 b 258 386 254 388 256 386 b 265 388 261 386 264 388 b 343 392 292 390 317 392 b 399 389 361 392 381 390 b 499 365 433 385 467 378 b 550 329 518 357 536 346 b 564 294 560 319 564 307 b 563 282 564 290 564 286 b 550 246 560 269 556 257 b 515 201 540 231 528 215 b 267 61 444 133 361 88 b 164 46 232 51 199 46 b 142 47 157 46 149 47 b 76 63 119 49 97 51 b 50 100 58 72 50 85 b 56 125 50 108 51 117 b 103 172 65 146 82 161 b 225 203 142 193 183 203 b 319 186 256 203 288 197 b 350 150 336 179 350 171 l 350 144 b 358 136 350 140 353 136 b 368 146 364 136 367 142 b 369 160 369 150 369 156 b 353 193 369 172 364 183 b 314 215 342 203 328 210 b 247 232 293 222 269 228 b 193 238 229 235 211 238 b 108 222 165 238 136 232 b 28 165 76 210 49 193 b 10 108 15 147 10 128 b 38 42 10 85 19 61 b 108 1 57 21 82 8 b 186 -8 133 -6 160 -8 b 232 -6 201 -8 217 -7 b 533 133 346 11 446 57 b 611 261 572 167 601 208 b 614 286 613 269 614 278 b 571 376 614 321 599 351 b 468 426 542 403 506 417 b 368 442 436 436 403 440 z "},"4":{"ha":661,"x_min":0,"x_max":0,"o":"m 344 400 b 326 357 338 385 332 371 b 218 76 288 264 249 172 b 200 3 210 53 203 28 l 200 -3 b 215 -24 200 -14 206 -21 l 219 -24 b 236 -6 228 -24 232 -19 b 260 63 242 18 250 40 b 367 310 292 147 329 229 b 483 533 403 386 439 461 b 624 765 529 610 576 688 b 642 801 631 776 638 789 b 644 813 643 806 644 808 b 629 840 644 824 639 835 b 613 846 624 844 618 846 b 593 839 607 846 600 844 b 575 822 586 835 581 828 b 503 724 549 790 525 758 b 394 514 460 657 425 586 b 340 433 382 483 363 457 b 258 394 317 408 290 394 b 228 399 249 394 239 396 b 156 418 204 404 179 410 b 122 428 144 421 133 425 b 136 442 125 436 131 439 b 357 638 215 501 289 567 b 394 683 369 651 383 667 b 422 738 407 700 417 718 b 424 756 424 743 424 750 b 411 792 424 768 421 781 b 385 806 403 800 393 806 b 358 786 375 806 365 799 b 351 775 356 783 353 779 b 319 719 347 753 333 736 b 167 549 271 661 219 604 b 76 460 139 517 108 488 b 33 438 64 450 51 439 b 22 433 29 436 26 435 b 6 410 11 428 6 419 b 18 389 6 403 10 396 b 44 381 25 385 35 381 l 49 381 b 68 382 56 382 63 382 b 114 378 83 382 99 379 b 229 363 153 374 190 364 l 243 363 b 332 393 276 363 307 371 b 344 400 335 396 338 400 z "},"5":{"ha":671,"x_min":0,"x_max":0,"o":"m 119 300 l 117 300 b 129 331 119 313 125 321 b 340 693 192 456 264 575 b 418 744 368 735 368 735 b 546 758 460 754 503 758 l 565 758 b 635 740 590 758 614 757 b 643 738 638 738 640 738 b 650 739 646 738 649 738 b 656 750 654 742 656 746 l 656 754 b 642 776 654 764 649 771 b 592 799 626 789 610 794 b 499 807 561 804 529 807 b 392 800 463 807 428 804 l 385 800 b 365 807 378 800 372 801 b 332 824 354 818 343 824 b 297 801 321 824 308 815 b 265 757 285 788 275 772 b 100 457 200 663 149 560 b 50 328 81 415 64 372 b 42 279 46 313 42 296 l 42 272 b 82 231 43 247 60 231 b 97 233 86 231 92 232 b 128 246 108 236 118 242 b 267 297 171 271 217 290 b 297 300 276 299 286 300 b 343 292 313 300 328 297 b 375 253 364 283 375 271 b 369 228 375 246 374 238 b 336 181 361 210 349 194 b 156 61 285 126 224 89 b 68 29 128 49 99 36 b 50 26 61 28 56 26 b 24 40 40 26 32 31 b 21 42 22 40 21 42 b 13 44 18 43 15 44 b 6 42 10 44 7 43 b 1 33 3 39 1 36 b 3 28 1 32 1 29 b 10 17 4 24 7 19 b 51 -4 19 3 35 -3 l 60 -4 b 128 7 83 -4 106 1 b 322 83 194 26 258 54 b 376 118 342 93 360 106 b 431 190 400 138 419 161 b 439 231 436 204 439 218 b 399 313 439 264 422 293 b 289 347 365 339 328 347 l 274 347 b 136 306 224 343 179 328 b 119 300 131 304 126 300 z "},"6":{"ha":688,"x_min":0,"x_max":0,"o":"m 492 750 b 499 726 496 742 494 733 b 519 713 504 717 511 713 b 536 721 525 713 531 715 b 557 760 546 732 553 744 b 558 775 558 764 558 769 b 500 840 558 806 536 840 b 478 836 493 840 486 839 b 424 811 458 829 442 822 b 265 679 364 776 313 731 b 115 439 201 607 150 528 b 85 289 97 389 85 340 b 97 203 85 261 89 232 b 99 196 99 200 99 197 b 93 181 99 190 96 186 b 42 103 74 156 57 129 b 6 28 26 79 14 54 b 1 1 3 19 1 11 b 3 -12 1 -3 1 -7 b 14 -25 4 -19 7 -25 l 17 -25 b 28 -11 26 -25 28 -18 b 43 42 28 8 35 25 b 88 113 56 65 71 89 b 111 144 96 124 104 133 b 118 150 114 149 115 150 b 124 144 119 150 122 149 b 129 138 125 142 128 139 b 242 81 158 99 197 81 b 265 82 250 81 257 81 b 413 135 318 88 367 108 b 540 235 460 161 501 197 b 639 360 579 272 613 313 b 664 429 651 382 660 404 b 665 449 665 436 665 442 b 576 546 665 499 631 539 b 554 547 569 547 563 547 b 482 533 531 547 506 542 b 293 414 408 510 347 467 b 161 269 246 368 203 319 b 149 257 157 264 154 258 b 146 261 147 258 146 260 b 147 268 146 263 146 265 b 190 419 151 321 167 371 b 340 631 229 499 279 568 b 457 732 375 668 414 703 b 492 750 468 739 478 746 z m 238 125 l 231 125 b 156 182 186 125 168 153 b 154 190 154 185 154 188 b 160 206 154 194 156 200 b 186 235 169 215 178 225 b 399 422 250 306 318 371 b 503 476 432 443 467 463 b 565 490 524 485 544 490 b 579 489 569 490 575 489 b 613 453 604 488 613 478 b 599 400 613 435 606 417 b 538 310 583 367 561 338 b 350 158 486 246 425 194 b 272 129 325 146 299 136 b 238 125 260 126 249 125 z "},"7":{"ha":493,"x_min":0,"x_max":0,"o":"m 342 754 l 375 754 b 357 729 369 743 363 736 b 200 504 297 660 243 585 b 72 240 154 418 111 331 b 21 92 51 192 32 143 b 15 50 18 78 15 64 l 15 42 b 28 6 15 28 19 17 b 42 -1 32 1 38 -1 b 47 0 43 -1 46 -1 b 54 11 51 3 54 7 b 51 19 54 14 53 17 b 49 36 49 25 49 31 b 50 51 49 42 49 46 b 69 117 54 74 61 96 b 186 354 101 199 143 276 b 381 628 242 451 310 540 b 453 719 406 658 432 688 b 469 751 460 729 467 740 b 472 769 471 757 472 764 b 424 825 472 797 453 821 b 397 828 415 826 407 828 l 388 828 b 240 818 339 825 289 822 b 43 801 175 813 108 804 b 26 797 38 800 31 800 b 6 772 13 793 6 783 b 8 757 6 767 6 763 b 36 731 14 744 24 735 b 76 724 50 726 63 724 b 92 725 82 724 86 724 b 185 736 122 728 154 732 b 342 754 238 743 289 749 z "},"8":{"ha":624,"x_min":0,"x_max":0,"o":"m 467 832 b 411 826 449 832 431 829 b 176 700 319 808 242 767 b 114 610 150 674 128 644 b 97 542 103 588 97 564 b 111 483 97 522 101 503 b 140 440 119 467 129 453 b 147 429 144 435 147 432 b 139 419 147 426 144 425 b 108 386 129 408 118 399 b 6 153 56 317 21 239 b 1 113 3 139 1 126 b 13 54 1 93 6 74 b 100 -6 26 17 64 -6 b 113 -4 104 -6 108 -4 b 186 24 140 -1 164 10 b 297 119 229 50 265 83 b 354 203 319 144 340 172 b 368 260 363 222 368 242 b 342 335 368 286 360 311 b 333 349 336 342 333 344 b 343 364 333 353 336 356 b 486 533 390 421 438 478 b 575 643 518 568 550 603 b 604 708 588 664 599 685 b 606 729 606 715 606 722 b 585 789 606 751 600 771 b 538 821 572 804 556 814 b 467 832 515 829 492 832 z m 465 775 b 522 767 486 775 504 774 b 543 744 536 761 543 756 b 540 731 543 740 542 736 b 514 676 535 711 525 693 b 390 500 476 615 435 557 b 306 389 363 464 333 426 b 294 382 301 383 299 382 b 285 388 292 382 289 383 b 281 396 282 390 281 393 l 281 399 b 283 418 283 406 283 411 b 239 464 283 442 267 461 b 226 465 235 464 231 465 b 203 460 219 465 211 464 b 197 458 200 458 199 458 b 183 465 192 458 188 461 b 149 539 160 488 149 511 b 158 583 149 553 151 568 b 222 671 172 617 196 646 b 411 768 276 719 339 753 b 465 775 429 772 449 775 z m 299 307 b 313 264 310 294 313 279 b 296 213 311 246 306 228 b 158 71 261 154 215 107 b 107 50 143 61 126 53 b 100 49 104 50 101 49 b 82 64 90 49 86 54 b 78 92 79 74 78 83 b 81 125 78 103 79 114 b 143 283 90 182 114 233 b 204 365 161 313 181 340 b 217 374 210 371 213 374 b 229 368 219 374 222 372 b 258 346 239 361 249 353 b 264 338 263 343 264 340 b 261 329 264 335 263 332 b 207 253 242 304 225 278 b 183 214 199 240 190 228 b 179 203 182 210 181 207 b 188 188 179 196 182 190 b 196 185 190 186 193 185 b 206 189 199 185 203 186 b 214 200 208 193 211 197 b 290 299 238 235 264 267 b 299 307 292 301 294 304 z "},"9":{"ha":650,"x_min":0,"x_max":0,"o":"m 586 744 b 589 738 588 742 589 739 b 586 726 589 733 588 729 b 561 639 579 697 571 668 b 440 361 532 542 496 446 b 304 197 401 301 357 246 b 190 106 269 164 231 133 b 7 -8 132 65 75 21 b 0 -18 3 -10 0 -12 b 11 -26 1 -24 6 -26 l 15 -26 b 40 -19 25 -26 32 -24 b 101 11 61 -11 82 0 b 314 149 175 53 244 99 b 400 217 343 169 374 192 b 522 385 451 267 490 322 b 614 635 561 465 592 549 b 635 749 624 672 632 710 l 635 756 b 628 785 635 765 632 775 b 601 803 622 796 613 803 b 586 799 596 803 592 801 b 567 786 578 796 572 792 l 533 757 b 526 753 532 756 531 753 l 525 753 b 522 764 522 756 524 760 b 478 831 518 793 504 815 b 415 843 458 840 436 843 b 272 793 363 840 315 822 b 93 575 192 738 133 664 b 75 501 82 551 75 528 b 144 435 78 463 106 435 l 154 435 b 236 465 183 439 210 451 b 329 529 268 485 300 507 b 567 729 413 592 492 658 b 586 744 572 735 578 742 z m 472 718 b 474 711 474 715 474 714 b 456 683 474 700 465 692 b 292 553 403 638 349 593 b 204 497 264 532 235 513 b 163 481 190 490 176 485 b 138 478 154 478 146 478 b 126 488 129 479 126 481 l 126 492 b 135 524 126 503 131 514 b 182 599 147 551 164 575 b 322 724 222 647 268 692 b 421 761 353 742 386 757 b 439 763 428 763 433 763 b 453 761 443 763 449 763 b 469 744 463 760 468 756 b 472 718 471 736 472 729 z "}," ":{"ha":383,"x_min":0,"x_max":0,"o":""},"!":{"ha":439,"x_min":0,"x_max":0,"o":"m 65 175 b 69 142 65 164 67 153 b 79 125 71 136 74 129 b 97 117 85 119 92 117 b 104 118 100 117 101 117 b 114 133 111 122 114 126 l 114 144 b 131 228 114 174 122 201 b 238 494 158 319 196 408 b 368 717 274 572 322 643 b 383 728 372 722 376 726 b 397 742 390 731 396 735 b 414 779 399 756 407 767 b 421 803 419 788 421 794 b 410 829 421 811 418 821 b 376 846 400 840 389 846 b 347 835 367 846 357 842 b 303 790 331 822 315 807 b 204 618 263 736 229 679 b 83 276 158 506 115 393 b 65 175 75 243 68 210 z m 47 -58 b 71 -54 58 -58 64 -57 b 85 -36 79 -50 85 -43 b 82 -26 85 -33 83 -29 b 79 -15 81 -22 79 -19 b 90 4 79 -8 85 -1 b 113 21 97 10 106 15 b 121 35 118 25 121 31 b 111 49 121 40 118 44 b 97 53 107 51 103 53 b 88 51 94 53 90 53 b 26 22 64 47 44 36 b 7 -1 19 15 13 8 b 3 -18 4 -7 3 -12 b 15 -43 3 -26 7 -36 b 47 -58 25 -53 38 -57 z "},"\"":{"ha":222,"x_min":0,"x_max":0,"o":"m 78 1101 b 49 1081 64 1100 54 1093 b 1 925 25 1032 7 979 l 1 915 b 3 904 1 911 1 908 b 25 886 6 894 15 886 b 44 904 35 886 40 892 b 46 911 46 907 46 908 b 108 1039 58 958 78 1001 b 118 1063 114 1047 118 1054 b 114 1078 118 1068 117 1072 b 78 1101 106 1093 93 1099 z m 99 921 l 99 913 b 117 894 100 903 108 894 l 119 894 b 136 908 126 894 132 899 b 139 919 138 913 138 917 b 196 1033 153 961 165 1001 b 206 1054 203 1040 206 1047 b 203 1067 206 1058 204 1063 b 168 1090 196 1081 185 1089 b 140 1069 154 1090 146 1082 b 125 1029 135 1057 129 1043 b 99 921 111 993 103 957 z "},"#":{"ha":442,"x_min":0,"x_max":0,"o":"m 239 356 b 240 349 240 353 240 350 b 238 336 240 344 239 340 b 214 218 226 297 218 258 l 214 207 b 217 178 214 197 215 188 b 235 164 221 169 228 164 l 238 164 b 251 182 247 165 250 169 b 254 211 251 192 251 201 b 290 347 261 257 276 303 b 304 361 293 358 296 361 l 311 361 l 336 357 l 340 357 b 350 363 344 357 347 358 b 351 369 351 365 351 367 b 347 378 351 372 350 375 b 338 385 344 381 340 382 b 324 389 333 386 328 388 b 310 397 313 392 310 393 b 313 411 310 400 311 404 b 322 435 317 419 319 426 b 350 453 329 453 331 453 l 356 453 b 389 450 368 453 378 450 b 406 464 399 450 406 456 b 403 474 406 467 404 471 b 389 485 400 479 394 482 b 363 492 379 488 371 489 b 351 499 356 494 351 496 b 356 508 351 501 353 504 b 393 571 367 531 379 551 b 410 582 397 576 403 581 b 425 603 419 586 425 593 b 424 611 425 606 425 608 b 396 638 419 625 410 635 b 385 639 392 639 389 639 b 351 625 372 639 363 633 b 319 576 338 611 328 594 b 292 510 310 554 301 532 b 279 496 290 503 288 496 b 221 489 260 493 242 492 b 222 493 222 490 222 492 l 222 496 b 258 549 232 515 242 533 b 275 581 269 558 275 569 b 267 604 275 589 272 597 b 229 625 257 618 243 625 b 193 610 217 625 204 619 b 169 565 182 596 175 581 b 146 493 161 542 153 518 b 115 465 142 476 132 469 b 42 440 90 460 65 451 b 10 408 28 432 15 422 b 7 394 7 404 7 399 b 32 361 7 379 17 364 b 39 360 35 360 38 360 b 51 367 44 360 49 363 b 118 407 67 392 94 396 b 119 403 119 406 119 404 b 118 396 119 400 118 397 b 92 367 117 379 108 369 b 49 353 76 365 63 358 b 17 329 36 347 25 339 b 8 308 11 324 8 317 l 8 304 b 28 286 10 293 18 286 b 39 290 32 286 36 288 b 50 299 42 294 46 297 b 100 318 67 310 86 318 b 94 263 99 299 96 281 b 92 231 93 251 92 242 b 93 210 92 224 93 217 b 117 188 94 196 104 188 b 135 210 128 188 133 194 l 135 214 b 157 324 139 251 147 288 b 168 342 158 331 161 339 b 239 356 192 349 215 354 z m 179 388 b 192 425 181 401 186 413 b 203 432 193 429 199 431 l 257 444 l 261 444 b 267 440 264 444 267 443 b 265 435 267 439 267 438 b 256 403 263 424 260 414 b 246 393 254 397 251 394 b 179 388 224 392 203 390 z "},"$":{"ha":569,"x_min":0,"x_max":0,"o":"m 179 211 b 171 181 178 199 174 190 b 140 43 158 135 146 90 b 139 26 139 38 139 32 l 139 21 b 154 3 139 10 146 4 b 171 18 163 3 168 7 b 175 38 172 25 174 32 b 217 182 185 88 201 135 b 265 219 228 217 228 217 b 376 242 303 222 340 228 b 428 268 394 247 413 256 b 454 315 446 281 454 299 b 432 360 454 331 447 346 b 399 383 422 369 410 376 b 322 417 374 396 349 407 b 311 426 314 419 311 422 b 314 438 311 429 311 432 b 356 532 328 469 342 500 b 382 554 361 544 369 551 b 469 569 411 563 440 567 l 478 569 b 494 565 483 569 490 569 b 500 547 501 561 499 553 b 517 532 503 538 510 532 b 525 535 519 532 522 533 b 551 583 542 544 551 564 b 549 599 551 589 550 593 b 503 646 542 622 525 638 b 439 653 482 653 461 653 l 429 653 b 419 656 426 653 424 653 l 424 664 l 482 772 b 493 781 485 778 488 781 b 501 779 496 781 499 781 b 513 776 506 778 510 776 b 533 800 525 776 533 786 l 533 803 b 529 835 533 814 532 825 b 494 864 525 854 510 864 b 471 857 486 864 478 863 b 447 835 463 851 454 843 b 404 774 432 815 417 794 b 340 650 379 735 358 693 b 311 621 335 636 326 626 b 221 569 278 608 249 590 b 168 513 200 553 181 535 b 158 479 163 501 158 490 b 179 432 158 461 165 446 b 213 410 189 422 200 415 l 233 401 b 240 393 238 400 240 397 b 239 388 240 392 240 390 l 197 267 b 183 254 196 258 190 256 b 58 243 142 250 100 244 l 46 243 b 17 249 36 243 25 243 b 11 250 15 249 14 250 b 4 247 10 250 7 249 b 1 239 1 244 1 242 b 3 233 1 238 1 235 b 22 215 6 224 13 218 b 61 208 35 211 47 208 l 107 208 b 179 211 131 208 154 208 z m 263 268 l 256 268 b 250 271 251 268 250 268 b 251 278 250 274 250 275 b 288 371 263 308 275 340 b 296 379 289 376 292 379 b 301 378 297 379 299 379 b 393 339 333 367 364 356 b 401 332 396 336 399 335 b 408 324 406 329 408 326 b 401 314 408 321 406 318 b 385 304 396 310 390 307 b 263 268 344 286 301 276 z m 285 511 b 263 449 278 490 269 469 b 256 443 261 444 258 443 b 250 444 254 443 251 443 b 224 457 242 449 232 451 b 217 465 219 460 217 463 b 222 474 217 468 219 471 b 282 514 239 492 260 504 b 285 511 283 514 283 513 z "},"%":{"ha":542,"x_min":0,"x_max":0,"o":"m 199 792 b 194 797 197 793 196 794 b 163 813 185 807 174 813 b 136 804 154 813 146 810 b 108 779 125 799 115 789 b 61 701 88 756 74 729 b 38 597 47 668 38 633 l 38 585 b 49 549 38 571 40 558 b 88 526 58 533 71 526 b 99 528 90 526 94 526 b 132 544 111 532 122 536 b 231 675 176 578 210 622 b 242 736 238 696 242 715 b 235 781 242 750 240 765 b 229 799 231 790 229 796 b 254 807 229 806 236 806 b 388 814 299 810 343 813 b 414 815 396 814 406 815 b 460 811 429 815 444 814 b 475 803 469 810 475 807 b 469 790 475 800 474 796 b 443 754 461 778 451 767 b 296 561 392 692 340 629 b 46 132 206 422 122 279 b 7 44 32 104 17 75 b 1 15 4 35 1 25 l 1 8 b 6 -8 1 3 3 -4 b 21 -17 10 -14 15 -17 l 25 -17 b 39 -1 33 -15 38 -10 b 53 38 40 13 47 25 b 211 308 100 131 156 219 b 406 582 271 403 339 493 b 500 719 440 626 471 671 b 524 782 511 739 519 760 l 524 792 b 483 840 524 815 510 835 b 463 842 476 842 469 842 l 453 842 b 399 839 435 842 417 839 b 274 835 357 838 315 835 l 253 835 b 218 831 242 835 229 832 b 197 810 206 828 197 821 b 199 800 197 807 197 803 b 200 794 199 799 200 796 b 199 792 200 793 200 793 z m 204 774 b 211 736 208 761 211 749 b 207 704 211 725 210 715 b 126 579 196 653 168 613 b 94 563 118 572 107 567 l 92 563 b 83 572 86 563 83 565 b 85 592 83 578 83 585 b 161 731 99 644 126 690 b 175 739 165 735 168 739 l 182 739 b 203 760 196 739 200 744 b 204 774 204 764 204 769 z m 364 238 b 342 306 364 264 356 289 b 322 333 333 314 328 322 b 293 356 317 347 306 356 b 267 343 283 356 274 351 b 253 324 261 338 257 331 b 199 188 226 282 210 235 b 196 164 197 179 196 172 l 196 158 b 246 104 196 125 217 104 b 268 108 253 104 260 106 l 285 117 b 354 197 317 136 339 164 b 364 238 360 211 364 226 z m 317 254 b 260 157 314 211 293 181 b 253 154 258 156 256 154 b 250 156 251 154 251 154 b 247 161 249 157 247 158 b 249 165 247 163 249 164 b 254 183 250 172 251 178 b 299 279 265 217 282 247 b 306 286 300 282 301 286 b 314 276 311 286 313 281 b 317 254 317 269 317 261 z "},"&":{"ha":776,"x_min":0,"x_max":0,"o":"m 576 1024 l 538 1024 b 507 1019 528 1024 518 1021 b 268 868 410 999 332 943 b 146 615 207 793 168 708 b 132 492 136 574 132 532 b 136 425 132 469 133 447 b 167 317 140 388 151 351 b 171 304 169 311 171 307 b 161 292 171 300 168 297 l 144 279 b 53 194 113 254 79 226 b 7 111 33 169 15 143 b 1 79 4 101 1 90 b 3 67 1 75 1 71 b 60 -7 8 32 29 8 b 125 -22 81 -17 103 -21 l 132 -22 b 233 0 167 -22 201 -12 b 368 81 283 19 326 49 b 385 90 376 88 381 90 b 403 82 389 90 394 88 b 517 25 439 58 476 39 b 614 8 549 14 581 8 l 632 8 b 654 22 646 8 654 14 b 632 35 654 29 646 35 l 628 35 b 565 44 607 35 586 39 b 439 104 519 57 479 79 b 421 121 426 113 421 117 b 435 139 421 125 425 129 b 578 335 493 196 543 260 b 600 404 589 357 596 379 b 601 415 600 408 601 411 b 588 454 601 429 596 442 b 565 467 581 463 572 467 b 540 447 556 467 546 460 b 535 432 539 442 538 438 b 511 369 529 410 521 389 b 368 174 475 296 422 233 b 360 169 365 171 363 169 b 351 174 357 169 354 171 b 251 289 314 208 278 244 b 244 304 247 296 244 300 b 257 318 244 308 249 311 b 388 410 300 349 344 379 b 582 564 454 458 521 507 b 715 724 632 611 679 663 b 758 861 740 767 758 811 l 758 876 b 710 978 756 917 739 951 b 576 1024 671 1011 625 1024 z m 207 490 b 342 844 211 615 251 739 b 508 963 386 899 440 940 b 586 976 533 971 560 976 b 632 971 601 976 617 975 b 719 899 672 961 704 940 b 725 857 724 885 725 871 b 722 819 725 844 724 832 b 663 693 713 772 690 732 b 506 533 619 632 564 581 b 242 349 422 467 331 408 b 231 343 236 346 233 343 b 222 357 226 343 225 347 b 207 490 211 396 207 436 z m 124 24 l 111 24 b 74 32 99 24 86 26 b 46 75 57 40 46 54 l 46 83 b 56 126 46 99 49 113 b 101 192 67 151 82 172 b 183 264 126 218 154 242 b 192 268 186 267 189 268 b 201 263 194 268 197 267 b 314 146 233 219 274 182 b 325 135 321 140 325 138 b 315 124 325 132 321 129 b 186 38 278 88 235 57 b 124 24 165 31 146 24 z "},"'":{"ha":135,"x_min":0,"x_max":0,"o":"m 78 1101 b 49 1081 64 1100 54 1093 b 1 925 25 1032 7 979 l 1 915 b 3 904 1 911 1 908 b 25 886 6 894 15 886 b 44 904 35 886 40 892 b 46 911 46 907 46 908 b 108 1039 58 958 78 1001 b 118 1063 114 1047 118 1054 b 114 1078 118 1068 117 1072 b 78 1101 106 1093 93 1099 z "},"(":{"ha":533,"x_min":0,"x_max":0,"o":"m 46 119 b 53 211 49 149 49 181 b 101 418 61 282 75 351 b 232 639 135 499 179 571 b 368 774 272 689 315 736 b 444 818 392 792 417 807 b 460 822 450 819 454 822 b 467 821 463 822 464 822 b 471 814 471 819 471 817 l 471 804 l 475 796 b 488 789 479 792 483 789 b 500 796 492 789 497 792 b 514 832 508 807 514 818 b 504 861 514 842 511 851 b 467 886 494 875 482 882 b 443 889 458 889 451 889 b 397 881 428 889 413 885 b 243 786 338 863 288 828 b 65 511 161 708 104 615 b 4 149 22 394 4 272 l 4 111 b 21 14 6 78 10 46 b 71 -51 31 -14 47 -35 b 89 -58 76 -56 82 -58 b 101 -51 94 -58 99 -56 l 101 -49 b 99 -39 101 -44 100 -42 b 93 -35 97 -37 94 -36 b 53 35 68 -18 58 7 b 46 119 47 63 47 90 z "},")":{"ha":533,"x_min":0,"x_max":0,"o":"m 475 711 b 468 619 471 682 471 650 b 418 413 458 549 444 479 b 288 192 386 332 342 260 b 153 57 249 142 204 96 b 75 13 128 39 103 24 b 60 8 69 11 65 8 b 54 10 58 8 56 8 b 49 26 47 13 50 21 b 44 35 47 29 47 32 b 32 42 42 39 36 42 b 19 36 26 42 22 40 b 6 -1 11 25 6 13 b 15 -31 6 -11 8 -21 b 53 -56 25 -43 38 -51 b 76 -58 61 -58 68 -58 b 124 -50 92 -58 108 -54 b 278 44 182 -32 232 3 b 454 321 360 122 415 215 b 515 682 497 436 515 558 l 515 719 b 499 817 515 753 510 786 b 449 882 489 844 472 865 b 431 889 443 886 438 889 b 418 882 425 889 421 888 l 418 879 b 421 869 418 875 419 872 b 426 865 422 868 425 867 b 467 796 451 849 461 824 b 475 711 472 768 472 740 z "},"*":{"ha":299,"x_min":0,"x_max":0,"o":"m 219 975 b 240 1010 226 989 233 1000 b 271 1051 250 1024 261 1038 b 278 1074 275 1058 278 1067 b 256 1110 278 1088 269 1100 b 236 1115 249 1114 243 1115 b 203 1094 224 1115 213 1108 b 193 1075 199 1089 196 1082 b 169 1025 185 1058 178 1042 b 161 1014 168 1021 168 1015 b 154 1031 157 1018 156 1025 b 144 1058 151 1039 147 1049 b 126 1079 142 1068 135 1075 b 111 1083 121 1082 117 1083 b 99 1079 107 1083 103 1082 b 90 1063 92 1075 90 1069 b 92 1053 90 1060 90 1056 b 100 1031 93 1046 97 1039 b 125 986 108 1017 117 1001 b 128 976 126 982 128 979 b 117 971 128 974 125 972 l 92 967 b 29 949 71 963 49 957 b 6 928 18 944 10 939 b 3 918 4 925 3 921 b 15 896 3 908 8 901 b 26 892 19 893 24 892 b 44 901 32 892 38 896 b 122 932 67 922 96 924 b 124 926 122 931 124 928 b 118 914 124 922 121 918 b 83 818 106 883 93 851 b 72 775 79 804 75 789 l 72 771 b 88 750 72 761 78 753 b 93 749 89 750 92 749 b 111 764 100 749 107 754 b 125 800 115 776 121 788 b 165 885 138 829 150 857 b 175 896 169 893 172 896 b 185 886 178 896 181 893 b 201 858 192 878 196 868 b 217 849 207 851 211 849 b 224 850 219 849 222 849 b 229 860 228 853 229 857 b 226 869 229 863 228 867 b 222 879 225 874 224 876 b 201 922 215 894 208 908 b 197 936 199 929 197 933 b 215 943 197 942 201 943 b 261 939 231 943 246 942 l 265 939 b 278 947 269 939 275 940 l 278 950 b 267 963 278 954 274 960 b 254 967 263 965 258 965 b 219 975 243 969 232 972 z "},"+":{"ha":401,"x_min":0,"x_max":0,"o":"m 185 436 l 185 433 b 179 417 185 426 181 422 b 111 257 156 364 132 311 b 103 231 108 249 106 240 b 101 224 103 228 101 226 b 111 210 101 217 106 213 b 117 208 113 210 115 208 b 131 219 124 208 128 213 b 142 240 135 226 139 233 b 240 428 172 304 207 365 b 265 444 246 438 253 443 b 290 446 274 446 282 446 b 364 436 315 446 339 443 l 371 436 b 383 443 376 436 381 438 b 385 450 385 446 385 447 b 376 465 385 456 382 461 b 363 472 372 468 368 469 b 314 485 347 478 331 482 b 282 489 303 486 292 488 l 282 492 b 285 499 282 494 283 496 b 311 540 293 513 303 525 b 318 568 315 549 318 558 l 318 572 b 293 601 315 586 307 596 b 285 603 290 603 288 603 b 261 592 275 603 268 599 b 244 567 254 583 249 576 b 217 501 235 546 225 524 b 196 488 213 492 207 488 l 185 488 b 139 485 169 488 154 486 b 54 474 111 482 82 479 b 22 460 43 471 32 467 b 6 431 11 453 6 442 b 18 404 6 421 10 413 b 35 396 24 399 29 396 b 51 403 40 396 46 399 b 61 408 54 404 57 407 b 185 436 100 425 142 432 z "},",":{"ha":140,"x_min":0,"x_max":0,"o":"m 126 221 b 86 271 126 244 108 267 l 83 271 b 56 251 71 271 60 264 b 53 238 54 247 53 242 l 53 231 b 43 179 53 213 49 197 b 4 42 29 133 17 88 b 0 21 3 35 0 28 b 18 -1 1 10 7 1 b 25 -3 21 -1 22 -3 b 42 10 32 -3 38 1 l 46 18 b 118 190 69 76 94 133 b 126 221 122 200 125 211 z "},"-":{"ha":413,"x_min":0,"x_max":0,"o":"m 1 467 l 1 461 b 31 428 1 442 14 428 b 47 432 36 428 42 429 b 78 442 57 436 68 440 b 207 461 121 451 164 458 b 281 465 232 464 256 465 b 356 460 306 465 331 464 b 375 457 363 460 369 457 l 381 457 b 394 465 386 457 392 458 b 397 474 396 468 397 471 b 390 489 397 479 394 483 b 372 499 386 494 379 497 b 271 517 339 510 306 515 b 221 518 254 517 238 518 b 58 506 167 518 113 514 b 22 494 46 503 33 501 b 1 467 10 489 1 481 z "},".":{"ha":125,"x_min":0,"x_max":0,"o":"m 57 258 b 6 221 31 258 10 243 b 1 185 3 210 4 197 l 1 182 b 13 165 1 175 7 169 b 38 157 19 161 29 157 l 42 157 b 99 194 67 161 86 174 b 106 215 103 201 106 208 b 85 250 106 229 97 242 b 57 258 76 256 67 258 z "},"/":{"ha":794,"x_min":0,"x_max":0,"o":"m 738 936 b 700 921 724 935 711 929 b 629 864 674 904 651 885 b 422 625 553 792 483 711 b 126 186 321 482 222 335 b 32 19 93 132 60 78 b 6 -44 22 -1 14 -22 b 4 -51 4 -47 4 -50 b 22 -71 4 -62 13 -71 l 26 -71 b 42 -56 35 -68 39 -62 b 96 43 57 -21 76 11 b 267 292 149 129 207 211 b 468 551 331 381 396 468 b 711 818 547 642 629 731 b 768 869 728 838 746 857 b 781 893 776 875 779 883 b 738 936 781 915 760 936 z "},":":{"ha":125,"x_min":0,"x_max":0,"o":"m 57 258 b 6 221 31 258 10 243 b 1 185 3 210 4 197 l 1 182 b 13 165 1 175 7 169 b 38 157 19 161 29 157 l 42 157 b 99 194 67 161 86 174 b 106 215 103 201 106 208 b 85 250 106 229 97 242 b 57 258 76 256 67 258 z m 57 619 b 6 582 31 619 10 604 b 1 546 3 571 4 558 l 1 543 b 13 526 1 536 7 531 b 38 518 19 522 29 518 l 42 518 b 99 556 67 522 86 535 b 106 576 103 563 106 569 b 85 611 106 590 97 603 b 57 619 76 617 67 619 z "},";":{"ha":167,"x_min":0,"x_max":0,"o":"m 126 221 b 86 271 126 244 108 267 l 83 271 b 56 251 71 271 60 264 b 53 238 54 247 53 242 l 53 231 b 43 179 53 213 49 197 b 4 42 29 133 17 88 b 0 21 3 35 0 28 b 18 -1 1 10 7 1 b 25 -3 21 -1 22 -3 b 42 10 32 -3 38 1 l 46 18 b 118 190 69 76 94 133 b 126 221 122 200 125 211 z m 99 619 b 47 582 72 619 51 604 b 43 546 44 571 46 558 l 43 543 b 54 526 43 536 49 531 b 79 518 61 522 71 518 l 83 518 b 140 556 108 522 128 535 b 147 576 144 563 147 569 b 126 611 147 590 139 603 b 99 619 118 617 108 619 z "},"<":{"ha":283,"x_min":0,"x_max":0,"o":"m 225 615 b 189 603 211 615 200 611 b 50 500 142 571 94 536 b 25 474 42 492 33 483 b 6 421 13 456 6 439 b 24 369 6 404 13 386 b 51 335 33 358 42 346 b 122 263 74 308 94 283 b 140 250 128 258 133 254 b 150 247 144 249 147 247 b 160 253 154 247 157 249 b 163 261 163 256 163 258 b 157 272 163 265 160 269 b 154 276 156 274 156 275 b 89 361 128 301 107 331 b 75 399 79 376 75 388 b 100 442 75 413 83 426 l 103 444 b 194 511 131 469 161 492 b 249 542 213 522 231 532 b 268 571 261 547 268 557 l 268 574 b 225 615 268 594 247 615 z "},"=":{"ha":308,"x_min":0,"x_max":0,"o":"m 4 475 b 28 439 4 460 13 446 b 43 435 33 436 39 435 b 64 447 51 435 58 439 b 89 465 71 457 79 461 b 174 485 115 478 144 482 b 226 490 190 488 208 490 b 275 479 243 490 258 488 b 281 478 276 478 279 478 b 293 493 288 478 293 485 l 293 496 b 278 518 292 506 286 513 b 235 535 265 528 250 532 b 151 542 207 540 179 542 b 67 538 124 542 96 540 b 47 535 61 538 54 536 b 4 475 14 524 6 504 z m 0 385 b 28 354 0 369 13 354 b 38 357 31 354 35 356 b 83 371 51 364 68 368 b 167 381 111 376 139 381 b 206 378 179 381 192 381 l 210 378 b 222 383 215 378 219 379 b 224 390 224 386 224 388 b 219 401 224 394 222 397 b 206 411 215 407 211 410 b 178 418 197 414 188 417 b 126 422 161 421 143 422 b 29 411 94 422 61 418 b 11 404 22 410 17 408 b 0 385 4 399 0 393 z "},">":{"ha":283,"x_min":0,"x_max":0,"o":"m 44 247 b 79 260 57 247 69 253 b 218 364 128 293 174 326 b 243 390 228 371 236 381 b 263 442 257 407 263 425 b 244 493 263 458 257 476 b 217 529 236 506 226 517 b 147 600 196 554 174 581 b 129 613 142 606 135 610 b 118 617 126 615 122 617 b 108 611 115 617 111 615 b 107 604 107 608 107 607 b 111 592 107 600 108 596 l 115 588 b 181 501 142 561 161 532 b 194 464 189 488 194 475 b 169 422 194 450 186 438 b 167 419 168 421 168 419 b 74 351 138 393 107 371 b 19 321 56 342 38 331 b 0 293 8 315 1 306 b 44 247 0 269 21 247 z "},"?":{"ha":575,"x_min":0,"x_max":0,"o":"m 382 875 b 244 850 329 875 286 865 b 96 750 188 828 138 796 b 60 675 78 728 64 704 l 60 665 b 111 589 60 628 86 600 b 122 586 114 588 118 586 b 135 592 126 586 131 588 b 139 601 138 594 139 599 b 135 615 139 606 138 611 b 132 619 133 617 133 618 b 126 636 128 625 126 631 b 131 651 126 642 128 647 b 168 699 140 669 153 685 b 356 790 222 744 285 775 b 401 796 371 793 385 796 l 411 796 b 467 782 431 794 450 792 b 478 769 474 778 478 774 b 474 758 478 767 476 763 b 458 736 469 750 464 743 b 406 681 443 715 424 697 b 268 554 360 639 313 597 b 122 382 214 503 167 443 b 61 272 99 347 76 313 b 50 221 56 256 50 239 l 50 215 b 71 172 51 199 58 183 b 88 164 75 167 82 164 b 96 167 90 164 93 165 b 103 179 100 171 103 175 b 100 190 103 183 101 186 b 96 207 97 196 96 201 b 101 229 96 214 99 222 b 118 264 106 240 111 253 b 244 421 153 322 196 374 b 481 631 321 493 403 560 b 543 710 506 653 529 678 b 554 756 550 725 554 740 b 531 818 554 778 546 799 b 468 860 514 839 492 851 b 382 875 438 871 407 875 z m 117 108 b 93 104 110 107 101 106 b 19 67 65 97 40 85 b 7 38 11 58 7 49 b 24 7 7 26 13 14 b 40 1 29 3 36 1 b 63 22 53 1 61 10 b 82 53 63 38 72 46 b 142 74 100 65 121 74 l 153 74 b 165 82 158 74 163 75 l 165 85 b 153 100 165 93 160 97 b 117 108 142 106 131 107 z "},"@":{"ha":799,"x_min":0,"x_max":0,"o":"m 482 528 b 475 543 478 533 478 539 b 399 600 465 576 432 600 b 388 599 394 600 392 599 b 304 547 353 593 325 574 b 242 381 267 499 247 442 l 242 372 b 249 336 242 360 244 347 b 286 310 257 319 271 310 b 308 315 293 310 301 311 b 326 328 314 318 321 324 b 431 429 364 360 396 396 b 447 444 435 435 439 440 b 442 425 446 436 443 431 b 425 350 433 400 428 375 b 424 329 424 343 424 336 b 428 300 424 319 425 308 b 474 267 436 278 453 267 b 488 268 478 267 483 267 b 517 282 499 271 507 276 b 553 310 529 290 540 299 b 688 464 604 356 649 408 b 757 586 715 503 740 542 b 782 700 772 624 782 661 l 782 714 b 674 856 779 783 738 838 b 611 865 653 863 632 865 b 578 863 600 865 589 864 b 400 797 514 854 456 829 b 132 553 293 736 204 653 b 4 239 64 460 14 357 b 3 207 3 228 3 217 b 39 57 3 154 13 104 b 194 -35 68 4 125 -35 b 218 -33 203 -35 210 -35 b 351 21 268 -28 313 -8 b 543 213 425 76 489 140 b 585 290 561 236 575 263 b 589 301 586 293 589 299 b 583 308 589 304 588 307 b 579 310 582 310 581 310 b 568 296 572 310 571 301 b 528 226 558 271 544 249 b 336 43 472 157 410 94 b 228 -3 304 19 268 3 b 207 -4 221 -4 214 -4 b 76 85 158 -4 100 19 b 63 174 67 114 63 143 b 64 208 63 185 63 197 b 118 388 71 271 90 331 b 367 689 178 507 263 607 b 533 781 418 728 472 760 b 626 797 564 790 594 797 b 650 796 635 797 642 797 b 728 738 689 793 718 772 b 733 692 732 722 733 707 b 707 583 731 654 722 618 b 521 335 665 486 600 404 b 486 311 510 325 499 317 b 476 308 482 310 479 308 b 472 318 474 308 472 311 b 474 333 472 324 474 328 b 507 424 479 365 492 394 b 563 535 524 461 543 499 b 572 563 567 543 571 553 l 572 568 b 554 596 572 579 565 592 b 543 599 550 597 547 599 b 522 588 536 599 529 594 b 499 553 513 576 506 564 b 482 528 493 544 489 535 z m 303 353 l 303 357 b 396 506 321 415 353 464 b 403 511 399 507 400 510 b 417 518 407 514 411 518 b 421 517 418 518 419 518 b 426 510 425 515 426 513 b 424 499 426 506 425 503 l 424 494 b 428 481 424 490 425 485 b 431 472 429 478 431 475 b 426 463 431 468 429 465 b 318 360 393 425 358 390 b 303 353 314 357 310 353 z "},"A":{"ha":1458,"x_min":0,"x_max":0,"o":"m 696 240 b 694 246 696 242 694 244 b 701 260 694 251 699 256 b 753 360 718 293 736 326 b 822 529 779 415 804 471 b 846 660 836 571 846 615 l 846 675 b 729 815 842 746 804 800 b 686 819 715 818 701 819 b 638 815 671 819 654 818 b 432 744 565 804 497 778 b 131 501 315 682 215 601 b 28 344 90 453 54 401 b 0 231 13 308 0 271 b 89 117 0 171 32 131 b 150 110 108 113 129 110 b 178 111 160 110 168 110 b 303 126 221 114 263 119 b 575 181 394 142 485 163 b 588 183 578 182 583 183 b 593 181 589 183 592 183 b 594 176 594 179 594 178 b 588 164 594 172 590 168 b 492 -14 556 104 524 46 b 417 -169 464 -65 438 -115 b 401 -224 410 -186 403 -204 l 401 -231 b 433 -262 401 -249 415 -262 b 447 -260 438 -262 442 -261 b 478 -240 460 -256 469 -249 b 515 -203 490 -228 504 -215 b 638 -53 560 -156 599 -104 b 835 210 704 35 769 122 b 865 228 843 221 851 228 b 903 233 878 229 890 232 b 1140 257 982 243 1061 253 l 1147 257 b 1156 246 1154 257 1154 256 b 1163 193 1158 228 1160 211 b 1260 -81 1176 96 1208 4 b 1306 -140 1274 -101 1288 -122 b 1332 -154 1313 -147 1321 -153 b 1350 -140 1343 -154 1350 -150 b 1349 -133 1350 -139 1350 -136 b 1338 -111 1346 -125 1342 -118 b 1238 199 1282 -14 1250 89 b 1235 246 1236 214 1235 229 l 1235 250 b 1247 260 1235 258 1238 260 l 1258 260 b 1344 249 1288 260 1317 258 b 1351 247 1347 249 1350 247 b 1361 253 1356 247 1360 249 b 1363 257 1361 254 1363 256 b 1353 268 1363 263 1357 265 b 1342 272 1349 269 1346 271 b 1296 283 1326 278 1311 281 b 1247 288 1279 286 1264 288 b 1233 300 1238 288 1233 292 l 1233 324 b 1254 482 1238 376 1243 429 b 1331 760 1272 576 1299 668 b 1429 1026 1361 849 1388 940 b 1433 1046 1432 1033 1433 1040 b 1394 1097 1433 1068 1418 1090 b 1379 1100 1389 1099 1385 1100 b 1353 1089 1369 1100 1361 1096 b 1333 1065 1346 1082 1339 1074 b 1146 817 1271 982 1208 900 b 829 383 1038 675 931 532 b 746 261 801 343 774 303 b 728 244 742 254 738 246 b 696 240 717 243 707 242 z m 142 147 l 122 147 b 85 151 110 147 97 147 b 38 213 54 161 40 181 l 38 218 b 63 315 38 253 49 285 b 149 446 85 364 115 406 b 471 703 239 554 347 639 b 642 765 525 732 581 754 b 688 769 657 768 672 769 b 719 767 699 769 708 769 b 738 764 725 767 732 765 b 793 696 772 753 790 732 b 794 667 794 686 794 676 b 788 607 794 647 792 626 b 726 439 774 549 751 493 b 633 249 699 374 667 311 b 600 225 626 233 615 228 b 397 188 532 215 465 203 b 217 153 338 176 278 163 b 142 147 192 149 167 147 z m 1231 739 b 1226 718 1231 731 1228 725 b 1168 486 1201 642 1181 565 b 1154 333 1161 435 1154 385 l 1154 300 b 1143 286 1154 292 1151 288 b 1110 283 1132 286 1121 285 b 903 265 1042 281 972 274 l 893 265 b 882 267 889 265 886 265 b 1231 739 886 276 1217 724 z m 492 -117 b 519 -64 501 -99 510 -81 b 660 185 567 19 613 101 b 682 200 665 193 671 199 b 701 203 689 201 694 201 l 703 201 l 703 199 b 700 193 703 197 701 194 b 496 -118 632 89 564 -15 b 492 -117 494 -118 493 -118 z "},"B":{"ha":1319,"x_min":0,"x_max":0,"o":"m 835 442 l 835 446 b 903 483 857 458 881 469 b 1128 658 986 531 1064 586 b 1213 804 1165 701 1196 749 b 1224 875 1219 828 1224 853 b 1192 983 1224 913 1214 949 b 1081 1071 1164 1025 1125 1053 b 921 1101 1029 1093 975 1101 b 878 1100 907 1101 892 1101 b 640 1046 796 1094 717 1075 b 308 843 518 997 407 931 b 67 515 204 751 122 643 b 7 253 31 432 7 344 b 10 204 7 238 8 221 b 79 13 17 135 38 69 b 236 -85 118 -42 168 -78 b 251 -104 251 -86 251 -87 b 293 -237 253 -151 265 -197 b 438 -344 329 -290 378 -324 b 572 -367 482 -360 526 -367 b 681 -356 608 -367 644 -362 b 982 -214 793 -335 893 -286 b 1143 -15 1050 -160 1106 -94 b 1176 125 1164 29 1176 76 l 1176 133 b 1099 307 1172 201 1144 258 b 858 436 1033 378 950 415 b 835 442 850 439 842 440 z m 763 476 b 778 529 768 494 774 511 b 801 671 792 575 801 622 b 799 694 801 679 800 686 b 763 729 792 711 781 724 b 751 731 758 731 754 731 b 718 706 736 731 724 722 b 708 660 714 690 711 675 b 553 222 676 507 625 361 b 521 197 546 208 536 201 b 314 63 439 174 368 129 b 267 -22 293 36 278 8 b 250 -42 261 -37 260 -42 b 239 -40 247 -42 243 -40 b 118 33 188 -33 149 -7 b 56 197 82 82 63 138 b 51 258 53 218 51 239 b 115 524 51 351 76 439 b 351 829 171 643 253 743 b 651 1011 440 907 540 968 b 843 1058 713 1035 778 1053 b 896 1060 861 1060 878 1060 b 1065 1026 954 1060 1011 1051 b 1129 982 1089 1015 1111 1001 b 1168 890 1156 956 1168 924 b 1161 844 1168 876 1165 860 b 1097 728 1149 800 1126 763 b 990 626 1065 690 1029 657 b 763 476 918 571 842 525 z m 553 -301 l 529 -301 b 415 -281 492 -301 453 -296 b 307 -139 354 -253 315 -207 b 304 -111 306 -129 304 -119 l 304 -104 b 326 -81 307 -85 308 -85 b 442 -26 368 -69 407 -51 b 564 90 489 6 529 46 b 626 181 586 119 607 149 b 643 194 631 188 635 193 b 733 204 674 200 703 204 b 774 201 746 204 760 204 b 838 171 799 197 822 190 b 843 165 839 168 842 167 b 849 164 844 165 846 164 b 854 167 850 164 853 165 b 856 175 856 168 856 172 b 847 188 854 179 850 183 b 803 217 835 201 819 211 b 743 228 783 224 764 228 b 706 229 731 229 718 229 b 667 226 692 229 679 229 l 663 226 b 657 229 658 226 657 228 b 660 238 657 232 658 235 b 672 263 663 246 668 254 b 731 389 693 304 713 346 b 746 407 736 403 739 407 b 758 406 749 407 753 407 b 849 390 789 400 819 399 b 1018 311 911 375 968 351 b 1060 271 1033 300 1047 286 b 1107 146 1092 231 1107 189 b 1088 54 1107 117 1100 86 b 990 -90 1065 0 1031 -47 b 718 -272 914 -172 824 -235 b 553 -301 665 -290 611 -301 z m 328 -24 b 507 149 349 39 440 124 b 328 -24 460 76 408 15 z "},"C":{"ha":1147,"x_min":0,"x_max":0,"o":"m 1 183 l 1 175 b 43 -76 1 85 14 3 b 138 -219 64 -131 93 -181 b 267 -276 174 -253 217 -272 l 281 -276 b 400 -249 324 -276 363 -267 b 533 -160 449 -225 492 -194 b 682 -19 586 -117 636 -69 b 843 150 735 38 789 93 b 1036 342 906 217 969 281 b 1115 397 1069 372 1097 386 b 1147 408 1126 403 1136 408 l 1154 408 b 1161 415 1158 408 1161 410 b 1146 424 1161 422 1153 424 b 1125 421 1139 424 1132 424 b 1100 411 1117 418 1108 415 b 950 306 1071 403 1010 364 b 758 111 883 243 822 176 b 582 -71 700 50 643 -12 b 450 -176 542 -110 499 -146 b 326 -229 413 -200 372 -221 b 294 -232 315 -232 304 -232 b 211 -204 264 -232 236 -224 b 147 -126 183 -183 164 -157 b 100 53 117 -71 104 -10 b 99 97 99 68 99 82 b 135 331 99 176 111 254 b 363 760 185 488 261 631 b 542 935 415 826 472 886 b 676 996 582 964 626 989 b 693 997 682 997 689 997 b 743 951 721 997 736 985 b 749 894 747 933 749 914 b 744 838 749 876 747 857 b 688 653 736 774 713 713 b 639 550 672 618 657 583 b 633 533 636 544 633 539 b 638 524 633 531 635 526 b 660 513 643 515 651 513 l 665 513 b 686 519 674 513 679 515 b 717 549 697 528 708 538 b 847 858 785 642 829 744 b 851 906 850 874 851 889 b 829 1006 851 939 844 974 b 714 1104 806 1056 768 1090 b 668 1110 699 1108 683 1110 b 618 1104 651 1110 635 1108 b 492 1049 572 1093 531 1074 b 303 882 419 1003 357 946 b 67 493 203 764 124 636 b 1 183 28 392 1 286 z "},"D":{"ha":1361,"x_min":0,"x_max":0,"o":"m 0 186 b 8 106 0 168 4 138 b 68 -78 18 42 36 -19 b 75 -103 72 -86 74 -94 b 140 -253 78 -161 99 -212 b 317 -325 189 -301 250 -321 b 346 -326 326 -326 336 -326 b 482 -306 392 -326 438 -318 b 860 -89 626 -265 751 -189 b 1031 100 922 -31 979 32 b 1211 414 1104 197 1167 300 b 1268 692 1246 503 1268 596 b 1267 731 1268 706 1268 718 b 1233 890 1264 786 1254 840 b 1008 1092 1190 993 1115 1061 b 889 1107 969 1103 929 1107 b 799 1100 860 1107 829 1104 b 538 1004 706 1085 619 1051 b 268 789 436 946 347 874 b 64 485 183 699 114 599 b 0 186 25 394 1 300 z m 529 275 l 529 278 b 535 292 529 283 532 288 b 632 506 567 363 600 435 b 722 743 667 583 699 661 b 726 765 725 751 726 758 b 706 806 726 781 719 794 b 671 818 694 814 682 818 b 631 797 656 818 642 811 b 608 756 621 785 614 769 b 532 560 581 692 558 625 b 418 263 494 461 456 363 b 392 240 413 250 406 244 b 250 183 343 225 294 208 b 83 -26 167 136 108 67 b 81 -33 82 -28 82 -31 b 69 -11 75 -26 72 -18 b 42 111 54 29 46 69 b 39 168 40 131 39 149 b 103 453 39 267 63 361 b 288 739 147 558 211 653 b 542 950 363 821 446 893 b 799 1046 621 999 706 1033 b 871 1051 822 1050 847 1051 b 1042 1011 929 1051 986 1040 b 1158 885 1096 983 1135 942 b 1189 729 1179 835 1189 783 b 1186 683 1189 714 1188 699 b 1096 382 1176 576 1142 478 b 785 -54 1017 219 915 72 b 467 -249 693 -143 589 -211 b 318 -274 418 -264 368 -274 b 290 -272 308 -274 300 -272 b 139 -174 222 -267 171 -235 b 133 -158 136 -168 135 -162 l 133 -153 b 136 -151 135 -151 135 -151 b 142 -153 138 -151 140 -153 b 183 -161 156 -158 169 -161 b 242 -144 203 -161 222 -156 b 326 -74 275 -128 301 -101 b 426 76 365 -28 397 24 b 503 226 454 125 479 175 b 531 247 508 239 517 244 b 600 254 554 250 576 254 b 626 253 608 254 618 254 b 653 246 635 251 644 249 b 663 243 656 244 660 243 b 671 249 667 243 669 244 l 671 253 b 658 264 671 260 664 261 b 613 275 643 269 628 275 b 575 276 600 276 588 276 b 538 274 563 276 550 276 l 535 272 b 529 275 532 272 531 274 z m 122 -78 b 174 57 126 -29 144 17 b 296 164 207 101 247 136 b 372 200 319 178 346 189 b 383 203 376 201 379 203 l 386 203 b 390 200 389 203 390 201 b 389 196 390 199 390 197 b 386 188 389 193 388 190 b 274 -43 353 108 319 29 b 225 -103 260 -65 244 -85 b 193 -122 215 -111 206 -118 b 174 -126 186 -125 181 -126 b 128 -106 156 -126 138 -118 b 122 -78 121 -97 124 -89 z "},"E":{"ha":1042,"x_min":0,"x_max":0,"o":"m 451 208 l 461 208 b 446 199 453 204 450 200 b 319 124 403 175 361 150 b 101 -50 242 74 167 18 b 31 -144 75 -79 50 -110 b 6 -218 17 -167 8 -192 b 4 -233 6 -224 4 -228 b 63 -329 4 -275 26 -307 b 167 -357 94 -349 129 -356 l 179 -357 b 290 -343 217 -357 254 -351 b 603 -217 401 -319 506 -275 b 750 -101 656 -183 707 -147 b 794 -35 768 -82 785 -60 b 800 -4 799 -24 800 -14 b 738 72 800 32 776 63 b 701 76 725 75 714 76 b 671 74 692 76 681 75 b 539 25 624 67 581 49 b 304 -142 454 -22 376 -79 b 228 -226 275 -167 249 -194 b 215 -256 222 -235 217 -244 l 215 -262 b 222 -285 215 -271 217 -278 b 233 -290 225 -287 229 -290 b 238 -289 235 -290 236 -290 b 243 -282 242 -287 243 -285 b 242 -276 243 -281 242 -278 b 240 -269 242 -274 240 -272 b 251 -244 240 -260 246 -253 b 292 -197 263 -226 276 -211 b 493 -50 353 -140 421 -92 b 626 14 536 -25 579 -1 b 704 28 651 22 678 28 l 713 28 b 753 4 740 26 753 21 b 744 -25 753 -3 750 -12 b 699 -86 732 -47 715 -67 b 546 -199 653 -131 601 -167 b 194 -317 436 -258 321 -307 b 175 -318 188 -317 182 -318 b 100 -304 150 -318 125 -312 b 81 -293 93 -301 86 -299 b 56 -247 64 -282 56 -267 b 57 -236 56 -244 56 -240 b 69 -200 60 -222 63 -211 b 118 -131 82 -174 99 -151 b 276 10 165 -79 219 -33 b 538 174 358 71 447 122 b 593 207 556 185 575 194 b 611 239 606 215 611 228 b 585 275 611 253 603 267 b 553 281 575 279 564 281 b 428 272 511 279 469 275 b 367 269 407 271 388 269 b 258 278 331 269 294 272 b 196 296 236 281 215 286 b 142 376 163 313 144 339 l 142 386 b 158 469 142 414 147 442 b 225 582 175 510 199 547 b 449 804 289 667 364 740 b 790 982 553 882 665 944 b 950 1007 842 997 896 1007 b 979 1006 960 1007 969 1006 b 1061 982 1008 1004 1036 997 b 1100 922 1082 968 1096 950 b 1101 906 1101 917 1101 911 b 1096 861 1101 890 1099 876 b 1033 713 1086 807 1064 757 b 679 436 944 582 829 488 b 660 417 669 433 661 428 l 660 413 b 674 392 660 403 665 397 b 714 382 688 383 700 382 l 725 382 b 825 419 761 388 794 401 b 1058 599 913 467 992 525 b 1167 758 1103 647 1140 699 b 1196 881 1185 797 1196 838 b 1193 915 1196 892 1194 904 b 1024 1099 1179 1008 1117 1076 b 932 1110 993 1106 963 1110 b 835 1100 900 1110 868 1106 b 501 969 715 1079 604 1033 b 224 725 394 903 303 821 b 106 543 178 669 136 610 b 72 414 86 503 72 460 l 72 396 b 119 285 75 353 90 315 b 229 225 150 254 188 235 b 418 207 292 210 354 207 b 451 208 428 207 438 208 z "},"F":{"ha":1056,"x_min":0,"x_max":0,"o":"m 404 290 l 410 290 b 406 276 410 285 408 281 b 313 -11 372 181 340 86 b 272 -178 297 -67 281 -121 b 267 -221 271 -192 267 -207 b 269 -240 267 -228 268 -233 b 301 -267 275 -257 286 -267 b 319 -261 307 -267 314 -265 b 344 -237 329 -256 338 -247 b 376 -189 356 -221 367 -206 b 551 117 438 -89 494 14 b 658 317 589 183 625 250 b 692 340 667 332 676 339 b 757 343 714 342 736 343 b 804 342 774 343 789 342 b 868 331 826 342 847 338 b 882 326 872 329 876 328 l 886 326 b 897 333 890 326 894 328 b 899 339 899 335 899 338 b 894 349 899 343 897 346 b 881 358 890 354 886 356 b 844 371 869 364 857 368 b 743 382 811 378 776 382 b 707 381 731 382 719 382 b 699 379 704 381 701 379 b 694 382 697 379 696 381 l 694 390 b 726 458 706 413 717 436 b 799 675 758 528 785 599 b 806 746 803 699 806 722 b 786 847 806 781 800 814 b 783 857 785 851 783 854 b 788 868 783 861 785 864 b 810 914 794 883 803 899 b 814 933 813 921 814 926 b 786 976 814 950 804 967 b 761 983 778 981 769 983 b 725 964 749 983 736 976 l 717 951 b 707 942 711 944 710 942 b 696 946 704 942 701 943 b 614 981 669 961 643 972 b 493 1004 576 993 536 999 b 507 1008 500 1006 503 1007 b 646 1024 553 1014 599 1019 b 822 1042 704 1031 763 1038 b 985 1053 876 1046 931 1049 b 1107 1057 1026 1056 1067 1056 b 1249 1061 1154 1060 1201 1061 b 1406 1056 1300 1061 1353 1060 b 1497 1042 1436 1053 1467 1050 b 1540 1015 1514 1038 1531 1033 b 1553 1008 1543 1011 1547 1008 b 1561 1010 1556 1008 1558 1008 b 1569 1024 1568 1013 1569 1018 l 1569 1028 b 1550 1060 1567 1040 1560 1051 b 1499 1085 1535 1071 1518 1079 b 1371 1106 1457 1097 1414 1101 b 1276 1111 1339 1108 1308 1108 b 1164 1114 1239 1113 1201 1114 b 1028 1111 1119 1114 1074 1113 b 789 1101 949 1110 868 1107 b 664 1093 747 1099 706 1097 b 447 1063 590 1085 518 1075 b 274 1024 389 1051 331 1039 l 249 1015 b 235 996 242 1011 235 1006 l 235 993 b 254 974 236 983 243 976 l 269 974 b 315 976 285 974 300 976 l 360 976 b 538 965 419 976 479 974 b 674 922 585 958 632 946 b 690 908 685 915 690 913 b 683 893 690 906 688 900 b 638 806 668 864 651 835 b 440 368 564 663 499 517 b 410 343 435 353 426 346 b 185 292 335 329 258 314 b 47 228 136 278 89 258 b 11 194 33 218 22 207 b 0 167 4 186 0 178 b 11 150 0 158 4 153 b 18 149 14 149 15 149 b 28 154 22 149 25 150 b 64 179 36 168 50 174 b 393 289 169 231 281 264 b 404 290 397 290 400 290 z m 757 807 l 761 807 b 767 758 764 790 767 774 l 767 747 b 736 603 764 697 751 650 b 647 390 711 529 679 460 b 631 375 644 382 639 376 b 560 368 607 374 583 369 l 554 368 b 547 372 550 368 547 369 b 550 382 547 375 549 378 b 576 442 558 403 568 422 b 743 782 629 556 686 669 b 757 807 747 790 753 799 z m 336 -167 l 344 -137 b 514 300 394 11 451 157 b 536 318 518 311 525 317 b 599 329 557 321 578 325 b 607 331 601 329 604 331 b 614 326 610 331 613 329 b 615 324 614 325 615 325 b 610 314 615 321 613 317 b 540 179 586 269 564 224 b 356 -143 481 71 419 -37 b 339 -169 350 -151 344 -160 b 336 -167 338 -168 336 -168 z "},"G":{"ha":1042,"x_min":0,"x_max":0,"o":"m 814 254 b 810 239 814 247 811 243 b 729 85 786 186 757 136 b 690 15 717 61 703 39 b 681 4 686 8 685 4 b 669 8 678 4 675 6 b 624 18 656 15 640 18 l 613 18 b 564 13 596 18 581 15 b 396 -40 506 1 450 -18 b 278 -106 354 -57 314 -78 b 206 -185 249 -128 224 -153 b 189 -253 194 -207 189 -231 b 218 -336 189 -283 199 -312 b 336 -393 249 -372 289 -392 l 343 -393 b 461 -358 386 -393 424 -379 b 607 -224 519 -324 565 -276 b 726 -49 651 -169 689 -110 b 851 178 771 25 815 99 b 879 256 864 203 875 228 b 881 267 879 260 881 263 b 829 318 881 296 858 318 b 815 317 825 318 821 318 b 772 300 800 313 786 307 b 629 218 724 275 676 247 b 411 97 558 175 488 131 b 257 51 361 75 311 56 l 244 51 b 144 88 208 51 174 63 b 88 183 115 114 99 147 b 75 274 79 213 75 243 b 78 324 75 290 76 307 b 140 532 85 397 108 467 b 463 919 215 689 322 818 b 668 1017 525 965 593 1000 b 738 1025 692 1022 714 1025 b 806 1015 760 1025 783 1022 b 904 911 858 1000 892 965 b 910 869 908 897 910 883 b 906 826 910 856 908 842 b 857 688 899 778 879 732 b 744 522 825 628 786 574 b 643 418 714 485 682 449 b 610 403 633 410 622 403 b 600 404 607 403 603 403 b 594 406 599 406 596 406 b 575 390 585 406 578 399 l 575 388 b 592 367 575 378 581 369 b 628 361 603 364 615 361 l 636 361 b 714 393 665 363 690 376 b 785 458 740 413 763 435 b 944 701 850 531 906 611 b 982 869 967 756 982 811 b 981 896 982 878 982 888 b 939 1010 976 938 964 976 b 740 1113 889 1078 821 1107 b 718 1114 733 1113 726 1114 b 565 1082 665 1114 615 1100 b 313 915 469 1044 386 986 b 61 554 204 813 119 692 b 6 310 28 476 6 394 b 7 275 6 297 6 286 b 54 121 11 219 25 168 b 250 10 101 46 167 10 b 285 11 261 10 274 10 b 414 46 329 17 371 29 b 656 168 499 79 576 124 b 792 246 701 194 746 222 b 814 254 799 250 806 254 z m 333 -349 b 243 -262 279 -349 243 -310 b 249 -229 243 -251 244 -240 b 311 -143 260 -194 283 -167 b 501 -37 367 -93 432 -62 b 600 -10 533 -25 565 -17 b 622 -8 607 -8 614 -8 l 643 -8 b 651 -10 646 -8 649 -10 b 667 -22 663 -14 667 -17 b 663 -35 667 -25 665 -29 b 560 -185 631 -86 597 -136 b 446 -301 526 -228 490 -269 b 357 -346 419 -322 390 -339 b 333 -349 349 -349 339 -349 z "},"H":{"ha":1472,"x_min":0,"x_max":0,"o":"m 1094 -178 b 1108 -281 1094 -212 1096 -247 b 1124 -310 1111 -292 1115 -301 b 1139 -318 1128 -315 1133 -318 b 1147 -315 1142 -318 1144 -317 b 1154 -304 1151 -312 1154 -308 b 1151 -293 1154 -300 1153 -297 b 1139 -233 1142 -274 1140 -254 l 1139 -218 b 1153 -58 1139 -164 1146 -111 b 1199 197 1165 28 1181 113 b 1278 478 1221 292 1244 386 b 1299 499 1282 488 1288 494 b 1411 558 1338 517 1375 536 b 1688 846 1525 633 1617 731 b 1749 997 1717 893 1740 942 b 1751 1033 1750 1010 1751 1021 b 1743 1088 1751 1051 1749 1069 b 1649 1160 1728 1132 1692 1160 l 1640 1160 b 1582 1140 1619 1158 1600 1150 b 1504 1083 1553 1125 1528 1106 b 1368 913 1450 1033 1406 975 b 1200 508 1294 786 1239 651 b 1175 483 1197 494 1190 486 b 910 444 1088 460 1000 449 l 900 444 b 890 450 893 444 890 446 b 894 465 890 453 892 458 b 975 742 925 557 951 649 b 1024 985 994 822 1013 903 b 1025 994 1024 988 1025 992 b 993 1043 1025 1017 1013 1035 b 975 1047 986 1046 981 1047 b 940 1025 961 1047 949 1040 b 929 993 935 1015 932 1004 b 906 896 921 961 913 928 b 817 535 879 775 850 654 l 796 464 b 765 440 789 440 789 440 l 731 440 b 511 433 657 440 583 439 b 275 375 429 426 350 408 b 90 229 201 342 139 294 b 13 1 40 160 13 85 b 17 -57 13 -17 14 -37 b 238 -249 35 -167 126 -246 l 253 -249 b 411 -210 308 -249 360 -235 b 654 -10 507 -162 586 -93 b 826 282 726 78 782 176 b 871 396 842 319 857 357 b 892 413 875 406 881 413 l 894 413 b 944 417 911 413 928 415 b 1096 438 994 419 1046 428 b 1172 454 1121 442 1147 449 b 1181 456 1175 456 1178 456 b 1185 451 1183 456 1185 454 b 1183 443 1185 449 1185 446 b 1179 419 1182 435 1181 428 b 1114 42 1153 294 1132 168 b 1094 -178 1104 -31 1096 -104 z m 678 407 l 756 407 b 775 400 769 407 775 407 b 771 386 775 397 774 393 b 707 219 751 331 731 274 b 606 40 678 157 646 96 b 363 -174 540 -50 463 -124 b 247 -203 326 -192 288 -203 l 240 -203 b 67 -74 161 -203 93 -153 b 54 8 58 -46 54 -19 b 65 92 54 36 58 64 b 219 304 90 182 144 250 b 426 388 282 347 353 372 b 561 403 471 396 515 400 b 678 407 600 406 639 406 z m 1301 532 l 1299 532 b 1343 647 1313 572 1328 610 b 1463 889 1378 731 1417 811 b 1560 1028 1490 939 1522 985 b 1615 1078 1576 1047 1594 1064 b 1656 1097 1628 1088 1642 1094 b 1665 1099 1658 1099 1663 1099 b 1694 1078 1679 1099 1689 1092 b 1701 1040 1699 1065 1701 1053 b 1700 1022 1701 1035 1701 1028 b 1667 914 1694 985 1682 949 b 1478 649 1621 814 1558 725 b 1311 535 1428 601 1372 564 b 1301 532 1308 533 1306 532 z "},"I":{"ha":625,"x_min":0,"x_max":0,"o":"m 279 -103 l 279 -100 b 285 -87 279 -96 282 -92 b 314 -35 294 -69 304 -53 b 439 303 367 74 404 188 b 538 649 474 417 506 533 b 650 1050 574 782 615 915 b 671 1067 653 1065 656 1067 l 703 1067 b 811 1042 740 1067 778 1064 b 818 1040 814 1040 815 1040 b 824 1042 819 1040 822 1040 b 828 1053 826 1044 828 1049 l 828 1056 b 814 1071 825 1063 819 1067 b 758 1096 799 1085 779 1090 b 681 1103 733 1101 707 1103 l 649 1103 b 619 1107 639 1103 629 1103 b 604 1110 614 1110 608 1110 b 582 1104 596 1110 589 1108 b 561 1096 576 1099 569 1097 b 450 1076 524 1093 488 1085 b 368 1043 421 1069 393 1061 b 339 1003 354 1033 343 1021 l 339 996 b 344 976 339 989 340 982 b 358 968 349 971 354 968 b 369 976 363 968 367 971 b 399 1003 375 990 386 997 b 544 1051 444 1028 493 1042 l 550 1051 b 556 1047 553 1051 556 1050 b 554 1040 556 1044 554 1043 b 551 1031 554 1038 553 1033 b 386 407 497 822 440 615 b 282 54 354 288 324 169 b 206 -110 261 -3 236 -57 b 179 -131 199 -119 192 -128 b 136 -143 164 -133 150 -137 b 53 -176 107 -153 79 -161 b 8 -224 33 -187 17 -201 b 6 -239 7 -229 6 -233 b 32 -274 6 -254 15 -267 b 56 -278 40 -276 47 -278 b 72 -276 61 -278 67 -278 b 147 -246 99 -271 124 -261 b 233 -165 181 -224 208 -196 b 254 -150 239 -158 244 -153 b 372 -126 293 -140 332 -131 b 432 -119 392 -124 413 -121 b 446 -108 439 -118 444 -115 b 435 -94 446 -101 442 -97 b 413 -92 428 -92 421 -92 b 293 -103 374 -92 333 -96 b 285 -106 290 -104 288 -106 b 279 -103 283 -106 282 -104 z m 144 -189 b 54 -243 119 -217 93 -242 b 144 -189 75 -211 111 -201 z "},"J":{"ha":1264,"x_min":0,"x_max":0,"o":"m 365 -324 b 417 -319 382 -322 399 -321 b 638 -235 497 -310 569 -278 b 860 -35 724 -181 796 -112 b 1096 360 958 85 1038 217 b 1193 768 1150 490 1189 625 l 1193 785 b 1168 936 1193 836 1188 888 b 993 1096 1138 1018 1079 1072 b 911 1107 967 1104 939 1107 b 853 1103 892 1107 872 1106 b 644 1029 778 1093 708 1067 b 468 872 575 989 515 938 b 410 749 440 835 419 796 b 408 738 410 744 408 742 b 433 689 408 719 418 703 b 444 685 438 686 440 685 b 451 686 447 685 449 685 b 456 694 454 689 456 692 b 451 704 456 699 454 701 b 447 718 449 708 447 714 b 451 735 447 724 449 729 b 475 778 458 750 465 764 b 699 983 532 865 608 932 b 915 1043 767 1022 838 1043 b 954 1042 928 1043 940 1043 b 1118 917 1033 1033 1092 996 b 1138 782 1132 872 1138 828 l 1138 767 b 1114 596 1136 710 1128 651 b 1006 306 1090 494 1051 399 b 803 -4 951 194 885 90 b 617 -181 746 -68 686 -129 b 468 -262 569 -214 521 -242 b 340 -287 426 -279 383 -287 b 281 -282 321 -287 300 -286 b 99 -158 203 -265 144 -222 b 40 24 58 -103 40 -42 b 44 81 40 42 42 61 b 151 293 57 164 96 233 b 460 471 236 383 340 442 b 568 485 496 479 532 485 l 581 485 b 651 479 606 485 629 482 b 843 428 718 471 782 454 b 953 342 888 408 926 385 b 964 331 956 338 958 331 b 968 332 965 331 967 331 b 972 339 971 333 972 336 b 967 351 972 343 968 347 b 897 422 949 381 925 404 b 806 465 868 440 838 454 b 619 508 746 488 683 501 b 554 514 597 511 576 514 b 482 507 531 514 506 511 b 275 435 408 496 339 471 b 51 203 176 379 99 306 b 10 29 25 147 10 89 b 17 -40 10 6 13 -17 b 118 -226 32 -112 64 -176 b 365 -324 186 -293 271 -324 z "},"K":{"ha":1668,"x_min":0,"x_max":0,"o":"m 647 531 l 647 533 b 653 544 647 539 650 540 b 765 749 692 613 731 681 b 838 913 793 803 818 856 b 853 1007 847 943 853 975 b 744 1129 850 1072 808 1121 b 703 1132 731 1132 717 1132 b 661 1129 689 1132 675 1132 b 463 1064 592 1119 525 1097 b 107 739 315 988 197 879 b 10 494 60 664 24 583 b 4 429 6 472 4 451 b 22 328 4 396 10 361 b 124 214 40 276 72 236 b 192 189 146 203 169 196 b 203 188 196 188 199 188 l 207 188 b 218 200 214 189 218 194 b 214 210 218 203 217 206 b 200 221 211 215 206 218 b 149 246 183 229 165 238 b 67 349 106 267 79 303 b 60 410 63 369 60 390 b 67 476 60 432 63 454 b 165 701 82 558 118 633 b 449 974 240 813 336 903 b 664 1061 515 1015 586 1049 b 706 1064 678 1063 692 1064 b 751 1058 721 1064 736 1063 b 775 1024 771 1051 775 1044 b 756 944 775 996 767 971 b 675 785 733 890 704 838 b 518 489 621 688 567 589 b 488 458 511 474 503 465 b 432 429 468 450 449 442 b 414 399 419 421 414 410 b 433 367 414 388 421 376 b 450 360 439 364 444 361 b 456 353 454 358 456 356 b 454 347 456 351 456 349 b 450 338 453 344 451 340 b 368 140 422 272 394 206 b 265 -143 331 47 294 -46 b 236 -275 251 -186 239 -229 b 242 -312 236 -287 236 -300 b 264 -332 246 -322 253 -331 l 268 -332 b 281 -321 276 -332 281 -328 b 279 -315 281 -319 281 -318 b 275 -290 276 -307 275 -299 b 278 -267 275 -283 276 -275 b 307 -167 285 -232 294 -200 b 521 315 365 0 439 160 b 532 335 524 322 528 328 b 547 343 535 342 540 343 b 790 300 629 331 711 319 b 1146 192 913 272 1031 235 b 1388 83 1229 160 1310 126 b 1538 -39 1444 51 1501 19 b 1549 -46 1540 -43 1544 -46 b 1554 -44 1550 -46 1553 -46 b 1561 -35 1558 -43 1561 -39 b 1558 -25 1561 -32 1560 -29 b 1553 -18 1557 -22 1556 -19 b 1507 38 1540 4 1525 22 b 1347 140 1458 81 1404 113 b 921 313 1210 210 1067 264 b 604 390 817 346 713 375 b 578 396 596 392 586 393 b 569 401 574 396 569 397 l 571 404 b 611 449 582 422 588 442 b 740 499 654 464 697 482 b 1303 739 931 572 1118 651 b 1558 872 1390 781 1476 822 b 1665 951 1597 896 1632 922 b 1686 975 1674 958 1681 965 b 1690 992 1689 981 1690 986 b 1681 1017 1690 1001 1688 1010 b 1661 1026 1675 1022 1668 1026 b 1642 1019 1656 1026 1649 1024 b 1622 1007 1635 1017 1628 1011 b 1560 964 1601 992 1582 976 b 1279 811 1469 907 1375 858 b 1068 711 1210 776 1139 744 b 664 533 935 649 800 590 b 651 531 660 532 656 531 z "},"L":{"ha":1211,"x_min":0,"x_max":0,"o":"m 54 436 l 54 458 b 65 532 54 482 58 508 b 133 679 79 585 103 633 b 368 918 194 775 275 853 b 583 1024 435 964 506 1001 b 669 1038 613 1032 640 1038 b 708 1033 682 1038 694 1036 b 758 975 744 1026 757 1011 l 758 967 b 749 893 758 942 754 917 b 672 679 731 819 703 749 b 485 281 614 544 549 413 b 350 -17 438 182 392 83 b 293 -182 328 -71 306 -125 b 288 -218 290 -194 288 -206 l 288 -226 b 338 -276 290 -256 308 -274 l 357 -276 b 428 -258 382 -272 404 -265 b 686 -178 514 -231 599 -201 b 971 -121 779 -153 875 -135 b 1156 -101 1032 -114 1093 -107 b 1239 -97 1183 -100 1211 -100 b 1279 -96 1253 -96 1265 -96 b 1374 -101 1311 -96 1342 -99 b 1464 -125 1406 -104 1435 -111 b 1471 -126 1467 -125 1469 -126 b 1478 -122 1474 -126 1476 -125 b 1479 -117 1479 -121 1479 -118 b 1472 -107 1479 -112 1476 -108 b 1465 -103 1471 -106 1468 -104 b 1392 -79 1442 -92 1417 -83 b 1261 -68 1349 -71 1306 -69 b 1196 -71 1239 -68 1217 -71 b 1075 -78 1156 -72 1115 -75 b 844 -104 999 -85 922 -93 b 515 -179 733 -119 622 -144 b 386 -224 472 -194 429 -208 b 349 -233 374 -228 361 -232 l 344 -233 b 336 -226 338 -233 336 -232 l 336 -222 b 342 -200 338 -214 340 -207 b 393 -89 356 -162 374 -125 b 544 183 443 1 494 93 b 726 528 608 297 671 410 b 824 774 764 607 799 689 b 853 932 839 825 853 878 b 851 954 853 939 851 947 b 710 1108 846 1038 793 1099 b 676 1111 699 1110 688 1111 b 592 1099 649 1111 619 1106 b 367 999 511 1079 436 1044 b 67 688 242 919 139 818 b 4 465 29 618 4 544 b 6 442 4 458 6 450 b 53 303 8 390 24 344 b 233 188 97 240 161 207 b 240 186 236 186 239 186 b 254 194 246 186 250 189 b 256 199 254 196 256 197 b 243 214 256 204 251 210 b 228 221 238 217 233 218 b 183 238 213 226 197 231 b 126 274 163 246 143 258 b 54 436 78 317 54 371 z "},"M":{"ha":1653,"x_min":0,"x_max":0,"o":"m 1657 865 b 1640 843 1651 857 1646 850 b 1313 272 1503 668 1390 481 b 1219 -233 1251 108 1224 -60 l 1219 -258 b 1222 -324 1219 -279 1221 -301 b 1242 -447 1225 -365 1231 -407 b 1271 -508 1247 -469 1257 -489 b 1335 -537 1285 -528 1310 -537 b 1386 -518 1353 -537 1372 -532 b 1390 -510 1389 -515 1390 -512 b 1383 -500 1390 -506 1388 -503 b 1376 -497 1382 -499 1379 -497 b 1369 -500 1374 -497 1372 -499 b 1346 -508 1361 -503 1354 -506 b 1331 -510 1340 -510 1336 -510 b 1297 -489 1317 -510 1307 -504 b 1279 -443 1290 -475 1283 -460 b 1267 -349 1272 -412 1268 -381 l 1267 -296 b 1271 -189 1267 -260 1267 -224 b 1304 6 1276 -124 1286 -58 b 1514 504 1353 181 1426 346 b 1772 889 1590 639 1676 767 b 1828 963 1792 913 1811 936 b 1839 992 1833 971 1838 981 l 1839 997 b 1824 1028 1839 1010 1835 1019 b 1811 1032 1819 1031 1815 1032 b 1790 1025 1804 1032 1797 1029 b 1775 1015 1785 1022 1779 1019 l 1725 978 b 1300 604 1575 863 1435 738 b 1097 397 1231 536 1163 468 b 899 181 1031 325 965 253 b 803 90 868 149 838 117 b 786 81 797 88 792 81 b 781 82 785 81 782 81 b 775 99 775 85 775 92 l 775 106 b 783 183 778 131 779 157 b 835 378 796 249 814 314 b 1018 831 883 533 949 683 b 1129 1047 1053 904 1090 976 b 1138 1065 1132 1053 1135 1058 b 1139 1074 1139 1068 1139 1071 b 1121 1106 1139 1086 1132 1099 b 1104 1111 1115 1108 1110 1111 b 1082 1100 1097 1111 1089 1107 b 1060 1072 1074 1092 1067 1082 b 943 885 1015 1014 978 950 b 865 753 919 840 894 796 b 740 564 822 690 782 628 b 592 335 690 488 640 411 b 350 -26 513 213 436 90 b 213 -186 308 -83 264 -137 b 140 -237 190 -206 167 -224 b 103 -250 128 -243 115 -247 b 90 -251 99 -250 94 -251 b 51 -239 76 -251 63 -247 b 36 -207 42 -231 36 -219 b 38 -197 36 -204 38 -200 l 38 -196 b 24 -183 36 -189 31 -183 b 17 -185 21 -183 19 -183 b 4 -200 11 -187 7 -193 b 1 -218 3 -206 1 -212 b 7 -242 1 -226 3 -233 b 75 -293 19 -272 44 -287 b 97 -294 82 -294 90 -294 b 160 -283 118 -294 139 -290 b 268 -217 200 -268 235 -244 b 411 -56 324 -169 368 -112 b 582 206 474 28 528 117 b 785 535 650 315 715 426 b 794 547 788 539 789 543 b 790 531 793 540 792 535 b 724 282 763 449 740 367 b 703 119 713 229 703 174 l 703 108 b 711 61 704 93 706 76 b 760 17 719 38 735 24 b 774 15 764 15 769 15 b 818 28 789 15 804 21 b 869 68 836 39 853 53 b 972 179 907 103 939 142 b 1244 479 1061 282 1151 382 b 1544 772 1342 579 1440 678 b 1657 865 1581 804 1617 836 z "},"N":{"ha":1667,"x_min":0,"x_max":0,"o":"m 1168 1013 b 1171 1010 1168 1011 1169 1011 b 1160 981 1167 1000 1164 990 l 1031 697 b 888 271 969 560 919 418 b 856 13 869 185 856 100 b 857 -40 856 -6 856 -22 b 878 -158 860 -81 865 -121 b 918 -232 888 -186 900 -211 b 1011 -278 942 -261 976 -278 b 1075 -257 1032 -278 1054 -271 b 1107 -232 1086 -250 1097 -242 b 1167 -165 1129 -211 1149 -190 b 1311 71 1222 -92 1268 -11 b 1508 442 1376 194 1440 319 b 1757 831 1583 576 1665 707 b 1888 990 1799 886 1840 940 b 1946 1028 1904 1007 1919 1026 b 1953 1035 1950 1028 1953 1031 l 1953 1038 b 1947 1046 1953 1042 1950 1043 b 1932 1050 1942 1049 1936 1050 b 1918 1047 1926 1050 1922 1049 b 1883 1025 1904 1042 1893 1033 b 1804 943 1854 1000 1829 972 b 1640 735 1746 876 1692 807 b 1464 465 1578 647 1517 558 b 1318 186 1413 374 1365 281 b 1217 0 1286 124 1253 61 b 1092 -178 1181 -62 1140 -124 b 1031 -225 1074 -197 1054 -215 b 1013 -229 1024 -228 1018 -229 b 985 -214 1003 -229 994 -224 b 969 -193 979 -208 974 -200 b 950 -135 960 -175 954 -154 b 942 -40 944 -103 942 -72 b 947 53 942 -10 944 22 b 994 282 957 131 974 207 b 1133 671 1032 414 1081 543 b 1238 919 1167 754 1204 836 b 1263 1007 1249 947 1257 976 b 1264 1025 1264 1013 1264 1019 b 1258 1060 1264 1036 1263 1047 b 1199 1104 1247 1089 1225 1104 b 1167 1097 1189 1104 1178 1103 b 1138 1079 1156 1093 1146 1086 b 1057 1004 1107 1057 1082 1032 b 814 701 969 910 890 806 b 583 361 733 590 658 475 b 351 29 510 247 435 135 b 221 -111 311 -22 271 -71 b 121 -171 190 -136 160 -158 b 92 -176 111 -175 101 -176 b 39 -149 72 -176 54 -168 b 26 -136 35 -144 32 -139 b 17 -135 24 -135 21 -135 b 7 -137 14 -135 10 -135 b 1 -150 3 -140 1 -146 l 1 -156 b 8 -172 1 -161 4 -167 b 108 -226 26 -206 67 -226 b 125 -225 114 -226 119 -226 b 263 -162 178 -218 222 -194 b 418 3 322 -114 372 -57 b 622 306 492 100 557 203 b 972 808 731 479 844 649 b 1103 958 1014 861 1056 913 b 1168 1013 1124 978 1143 997 z "},"O":{"ha":1083,"x_min":0,"x_max":0,"o":"m 651 992 b 649 1000 650 996 649 999 b 586 1058 639 1038 615 1058 b 546 1047 574 1058 560 1054 b 492 1008 526 1038 508 1022 b 319 818 428 951 371 886 b 138 511 247 722 188 619 b 38 239 96 424 61 333 b 8 21 21 167 8 94 b 14 -64 8 -8 10 -36 b 51 -182 21 -106 31 -146 b 122 -256 68 -212 90 -239 b 199 -275 146 -269 172 -275 b 247 -269 215 -275 231 -274 b 346 -229 282 -262 314 -247 b 538 -82 415 -189 478 -137 b 765 188 622 0 697 92 b 986 549 849 301 924 421 b 1078 864 1033 649 1072 751 b 1079 890 1078 872 1079 881 b 1058 1003 1079 928 1074 967 b 901 1111 1032 1071 975 1111 l 897 1111 b 758 1071 847 1111 801 1094 b 651 992 719 1050 685 1024 z m 579 933 b 585 921 583 929 585 925 b 582 913 585 918 585 915 b 411 572 504 810 457 692 b 347 353 385 500 361 428 b 339 267 343 325 339 296 l 339 254 b 357 183 340 229 344 206 b 383 156 364 172 374 163 b 399 149 388 151 392 149 b 408 157 404 149 408 153 b 407 164 408 160 408 161 b 399 174 406 168 401 171 b 372 231 382 189 375 208 b 371 256 372 239 371 247 b 382 347 371 286 375 317 b 465 597 403 433 432 515 b 567 794 494 665 526 732 b 743 993 615 869 672 938 b 885 1060 786 1025 832 1051 b 910 1061 893 1061 901 1061 b 949 1056 924 1061 936 1060 b 1004 1008 974 1047 993 1032 b 1026 908 1021 976 1025 943 l 1026 899 b 996 718 1026 838 1013 778 b 882 461 967 628 926 544 b 682 149 824 351 757 247 b 494 -64 625 72 564 1 b 315 -200 439 -115 382 -164 b 218 -233 285 -217 253 -229 b 200 -235 213 -235 206 -235 b 117 -189 165 -235 138 -219 b 86 -86 96 -158 89 -122 b 85 -44 85 -72 85 -58 b 121 179 85 32 100 107 b 313 594 164 328 232 464 b 564 919 386 711 468 819 b 579 933 568 924 572 929 z "},"P":{"ha":1236,"x_min":0,"x_max":0,"o":"m 0 15 b 11 -186 0 -53 4 -119 b 40 -360 17 -244 25 -303 b 57 -401 44 -374 50 -389 b 93 -422 65 -415 79 -422 b 126 -406 106 -422 117 -417 b 144 -369 135 -394 140 -383 b 163 -312 151 -351 157 -332 b 243 -21 189 -215 214 -118 b 315 200 265 54 289 128 b 322 213 318 208 319 213 b 335 206 325 213 329 210 b 407 156 357 188 382 171 b 581 107 460 122 519 107 b 622 110 594 107 608 108 b 772 154 675 115 725 132 b 1163 561 950 243 1081 378 b 1211 778 1193 631 1211 703 b 1207 840 1211 799 1210 819 b 1085 1069 1196 932 1156 1010 b 839 1158 1014 1129 929 1154 b 811 1160 829 1158 821 1160 b 615 1121 744 1160 679 1146 b 281 875 481 1069 372 983 b 106 581 206 786 149 688 b 0 15 33 399 0 211 z m 83 -337 b 61 -253 71 -310 65 -281 b 38 -28 47 -178 40 -103 b 36 29 36 -8 36 11 b 104 465 36 178 60 322 b 250 775 138 575 185 679 b 529 1040 324 883 415 974 b 758 1115 600 1082 675 1110 b 803 1117 774 1117 788 1117 b 1017 1053 878 1117 951 1099 b 1129 869 1081 1008 1117 946 b 1133 811 1132 850 1133 831 b 1101 647 1133 756 1121 701 b 963 419 1069 563 1021 489 b 768 247 906 353 840 294 b 628 182 724 218 678 196 b 539 169 599 175 568 169 b 451 185 510 169 481 175 b 344 247 413 199 378 222 b 338 258 339 251 338 254 b 340 269 338 263 339 265 b 396 403 358 314 376 358 b 492 610 425 472 457 542 b 511 632 496 618 500 628 b 517 636 514 632 515 635 b 543 696 528 656 540 674 l 543 701 b 518 742 543 719 533 732 b 492 750 510 747 501 750 b 468 744 483 750 476 749 b 444 725 458 740 451 733 b 375 614 417 692 396 653 b 276 392 338 542 306 468 b 263 371 274 385 269 378 b 246 333 251 361 246 347 l 246 329 b 239 293 246 317 243 304 b 119 -144 189 150 149 4 b 88 -319 108 -203 99 -261 b 83 -337 86 -325 85 -331 z "},"Q":{"ha":1125,"x_min":0,"x_max":0,"o":"m 1068 767 l 1068 788 b 1046 914 1068 828 1061 872 b 847 1104 1011 1010 946 1075 b 736 1121 811 1115 774 1121 b 640 1110 704 1121 672 1117 b 360 954 532 1086 440 1031 b 125 560 246 844 169 713 b 101 382 108 501 101 442 b 103 331 101 365 101 347 l 103 322 b 93 281 103 307 100 294 b 4 -11 47 188 13 92 b 3 -47 3 -24 3 -35 b 21 -161 3 -86 8 -124 b 203 -293 50 -243 115 -293 l 210 -293 b 314 -272 246 -293 281 -285 b 467 -189 368 -251 419 -222 b 488 -182 474 -183 481 -182 b 506 -187 493 -182 499 -183 b 664 -262 556 -218 608 -243 b 769 -282 699 -274 732 -282 l 783 -282 b 800 -281 789 -282 794 -281 b 807 -271 804 -279 807 -276 l 807 -268 b 800 -260 807 -264 804 -261 b 783 -258 794 -258 789 -258 l 774 -258 b 694 -244 747 -258 719 -253 b 528 -165 635 -225 581 -197 b 521 -162 525 -165 524 -164 b 518 -157 519 -160 518 -158 b 521 -151 518 -156 519 -153 b 528 -146 522 -149 525 -147 b 764 85 614 -78 693 0 b 1021 526 874 218 961 364 b 1068 767 1049 603 1068 681 z m 174 418 b 210 579 179 474 192 528 b 360 840 244 675 294 763 b 604 1026 426 921 506 986 b 754 1058 651 1046 701 1058 l 763 1058 b 911 1015 815 1057 867 1046 b 1007 861 965 978 994 924 b 1017 768 1014 831 1017 799 b 999 628 1017 721 1010 674 b 876 322 974 519 929 419 b 607 -29 804 190 714 75 b 494 -128 571 -64 533 -97 b 482 -135 488 -133 485 -135 b 469 -129 479 -135 475 -133 b 311 -3 413 -92 360 -50 b 188 217 250 60 211 133 b 186 228 186 221 186 224 b 194 250 186 235 189 242 b 311 401 229 304 269 354 b 438 518 350 444 392 483 b 488 554 453 532 471 543 b 500 560 493 557 497 560 b 507 544 504 560 506 556 b 510 535 507 542 508 538 b 525 522 513 526 518 522 b 538 528 529 522 533 524 b 572 585 553 543 567 561 b 574 596 574 588 574 592 b 518 663 574 624 549 654 b 497 665 511 664 504 665 b 456 657 482 665 468 661 b 343 593 414 643 376 619 b 188 435 283 547 233 493 b 174 418 183 429 181 422 z m 142 154 b 151 142 149 151 149 146 b 303 -47 186 67 239 6 b 435 -146 344 -82 389 -115 b 444 -151 438 -147 440 -149 b 450 -158 447 -154 450 -156 b 443 -165 450 -160 447 -162 b 249 -256 383 -206 321 -243 b 211 -260 236 -258 224 -260 b 172 -256 197 -260 185 -258 b 85 -179 131 -244 101 -219 b 69 -92 74 -151 69 -121 b 71 -65 69 -83 71 -74 b 135 144 79 8 103 78 b 142 154 136 147 138 151 z "},"R":{"ha":1285,"x_min":0,"x_max":0,"o":"m 547 183 b 563 193 551 190 558 190 b 867 335 665 236 768 282 b 1217 572 992 403 1110 478 b 1394 786 1288 635 1350 703 b 1449 972 1426 844 1449 906 l 1449 989 b 1386 1143 1447 1049 1426 1100 b 1265 1219 1353 1179 1313 1204 b 1094 1249 1210 1239 1153 1249 b 979 1238 1057 1249 1018 1244 b 668 1118 868 1218 765 1175 b 361 867 553 1050 451 965 b 125 513 264 760 186 642 b 6 6 50 351 6 183 b 7 -33 6 -7 7 -21 b 44 -226 10 -100 21 -164 b 97 -314 57 -258 72 -289 b 163 -342 118 -333 140 -342 b 215 -328 181 -342 199 -336 b 251 -300 228 -321 240 -311 b 321 -210 279 -274 300 -242 b 447 42 369 -129 408 -44 b 483 124 460 69 471 96 b 497 139 489 135 490 139 b 513 136 500 139 506 138 b 540 131 522 135 531 132 b 803 68 629 113 717 96 b 1129 -65 915 33 1025 -8 b 1229 -150 1168 -87 1207 -108 b 1239 -157 1231 -154 1235 -157 b 1244 -156 1240 -157 1243 -157 b 1251 -146 1249 -154 1251 -150 b 1250 -140 1251 -144 1250 -143 b 1233 -111 1246 -129 1240 -121 b 1154 -46 1211 -85 1183 -64 b 979 43 1099 -11 1040 17 b 619 168 863 93 744 139 b 547 183 596 174 572 178 z m 539 246 l 539 249 b 544 264 539 253 542 258 b 682 600 592 375 640 486 b 707 678 690 626 700 651 b 710 694 708 683 710 689 b 688 731 710 710 701 721 b 660 739 679 736 669 739 b 625 724 647 739 635 733 b 599 679 614 710 606 694 b 525 504 572 622 549 564 b 293 -79 449 310 374 114 b 219 -231 271 -131 247 -182 b 181 -282 208 -249 197 -268 b 151 -297 169 -292 161 -297 b 124 -283 143 -297 133 -293 b 83 -222 106 -267 93 -244 b 46 -89 64 -181 53 -136 b 38 26 40 -50 38 -12 b 63 244 38 100 47 172 b 350 815 110 460 207 649 b 674 1088 443 924 550 1015 b 1000 1200 775 1147 883 1186 b 1076 1204 1025 1203 1051 1204 b 1250 1172 1135 1204 1193 1196 b 1324 1124 1278 1160 1301 1143 b 1374 1006 1360 1090 1374 1051 b 1372 976 1374 997 1374 986 b 1289 790 1363 907 1329 847 b 1133 621 1244 728 1190 672 b 774 363 1022 522 901 438 b 546 246 700 319 624 283 z "},"S":{"ha":928,"x_min":0,"x_max":0,"o":"m 832 1094 l 876 1094 b 963 1072 907 1093 936 1086 b 1022 979 1003 1054 1022 1022 b 997 864 1022 938 1013 900 b 904 703 974 806 942 753 b 715 510 851 629 789 564 b 626 468 689 490 660 475 l 614 464 b 606 451 608 461 606 456 b 610 442 606 449 607 444 b 625 433 614 438 619 435 b 646 431 632 432 639 431 b 660 432 650 431 656 432 b 744 458 690 435 718 444 b 889 557 797 483 844 518 b 1089 822 974 632 1042 718 b 1121 961 1108 867 1121 913 b 1119 989 1121 971 1121 979 b 1085 1090 1115 1025 1104 1058 b 929 1196 1049 1147 994 1179 b 832 1207 897 1204 864 1207 b 733 1197 799 1207 767 1204 b 429 1082 625 1179 524 1138 b 147 839 321 1018 226 938 b 29 649 100 781 58 718 b 3 526 13 610 3 569 l 3 513 b 71 371 6 456 29 408 b 224 292 115 332 168 310 b 438 236 294 269 367 256 b 604 176 494 221 551 204 b 653 142 621 167 639 156 b 671 100 664 129 671 115 b 668 83 671 94 669 89 b 638 19 663 60 651 39 b 500 -99 600 -29 553 -68 b 238 -179 418 -147 332 -179 b 200 -178 225 -179 213 -179 b 107 -144 165 -175 133 -165 b 76 -83 86 -129 76 -110 b 92 -31 78 -64 82 -47 b 168 54 110 3 136 31 b 372 146 229 101 299 128 b 438 153 394 151 415 153 l 456 153 b 504 133 475 153 490 146 b 511 128 507 132 508 129 b 521 124 514 125 517 124 b 528 128 522 124 525 125 b 529 132 529 129 529 131 b 525 142 529 136 528 139 b 519 149 524 144 521 147 b 457 181 503 168 481 176 b 428 182 447 182 438 182 b 375 178 411 182 393 181 b 244 144 331 172 288 160 b 101 65 193 125 143 103 b 32 -37 69 38 43 6 b 25 -78 28 -51 25 -64 b 65 -167 25 -110 39 -140 b 135 -211 85 -186 108 -200 b 254 -231 174 -225 214 -231 b 317 -226 275 -231 296 -229 b 618 -99 428 -210 528 -167 b 721 14 660 -68 696 -32 b 742 86 733 38 742 61 b 740 103 742 92 742 97 b 676 208 735 147 710 181 b 569 268 644 235 608 253 b 358 331 501 296 431 314 b 215 367 310 342 263 351 b 135 404 186 375 158 386 b 86 479 108 424 93 449 b 85 503 85 488 85 496 b 94 567 85 525 89 546 b 146 671 106 604 124 638 b 328 871 196 747 258 813 b 629 1051 419 947 518 1008 b 832 1094 694 1076 761 1094 z "},"T":{"ha":901,"x_min":0,"x_max":0,"o":"m 783 990 b 801 997 790 996 796 997 b 932 1010 844 1001 889 1006 b 1110 1021 992 1014 1050 1019 b 1361 1031 1193 1025 1278 1028 l 1400 1031 b 1596 1022 1467 1031 1531 1028 b 1707 993 1633 1018 1674 1017 b 1715 990 1710 992 1713 990 b 1725 994 1718 990 1722 992 b 1729 1003 1728 997 1729 1000 b 1725 1014 1729 1007 1728 1010 b 1694 1039 1717 1025 1707 1033 b 1636 1057 1675 1049 1656 1053 b 1428 1076 1567 1071 1497 1075 b 1239 1079 1365 1078 1301 1079 b 1050 1075 1176 1079 1114 1078 b 906 1068 1003 1072 954 1069 b 819 1063 876 1068 849 1064 b 724 1054 788 1060 756 1058 l 718 1054 b 706 1058 714 1054 710 1056 b 515 1110 647 1090 582 1106 b 447 1111 493 1111 471 1111 b 193 1081 363 1111 276 1103 b 54 1031 146 1068 99 1054 b 14 1000 39 1022 25 1014 b 4 976 7 993 4 985 b 18 950 4 967 8 957 b 47 936 26 943 38 939 b 113 931 69 932 92 931 l 133 931 b 281 940 182 933 232 935 b 497 963 353 949 425 954 b 724 989 574 971 649 981 b 731 990 726 989 729 990 b 758 974 742 990 750 983 b 799 842 786 933 796 889 l 799 835 b 790 801 799 824 796 813 b 710 619 761 743 735 682 b 581 249 660 499 618 374 b 492 -111 544 131 515 10 b 486 -150 489 -124 488 -136 b 500 -167 486 -158 492 -165 b 506 -168 501 -167 504 -168 b 521 -157 513 -168 518 -164 l 525 -144 b 539 -103 531 -131 533 -117 b 726 399 594 67 661 232 b 896 774 776 526 838 649 b 908 786 899 779 901 783 b 926 811 922 790 926 799 l 926 815 b 928 833 926 822 926 828 l 928 838 b 899 886 928 860 918 876 b 871 894 889 892 881 894 b 840 883 861 894 850 890 b 832 879 838 881 836 879 l 829 879 b 783 990 821 918 808 957 z m 56 981 b 94 1004 67 990 81 997 b 238 1051 140 1025 188 1039 b 450 1078 307 1068 379 1076 l 479 1078 b 628 1058 529 1078 579 1072 b 646 1050 633 1056 640 1056 l 646 1049 b 642 1046 646 1046 644 1046 b 300 997 528 1032 414 1013 b 81 975 226 988 154 976 l 57 975 b 56 981 57 976 56 979 z "},"U":{"ha":999,"x_min":0,"x_max":0,"o":"m 744 431 b 713 321 735 392 722 357 b 622 -144 669 168 633 14 b 621 -178 621 -156 621 -167 b 625 -239 621 -199 622 -219 b 638 -274 628 -251 632 -262 b 676 -294 647 -287 661 -294 b 689 -293 681 -294 685 -294 b 701 -281 696 -290 701 -287 l 701 -278 b 686 -267 701 -269 693 -267 l 682 -267 b 678 -268 681 -267 679 -268 b 667 -256 671 -268 669 -262 b 663 -229 664 -247 663 -237 b 661 -201 663 -219 661 -211 b 674 -78 661 -160 667 -119 b 769 289 694 47 725 169 b 925 624 813 404 867 515 b 965 686 938 644 949 668 l 1065 803 b 1206 972 1113 858 1161 914 b 1253 1044 1222 996 1240 1018 b 1260 1069 1257 1053 1260 1061 l 1260 1074 b 1219 1111 1257 1097 1240 1111 b 1201 1108 1214 1111 1207 1111 b 1151 1076 1183 1101 1167 1090 b 1029 944 1106 1038 1065 992 b 815 589 944 835 875 715 b 785 542 807 572 797 557 b 739 489 769 525 754 507 b 438 138 638 372 538 254 b 289 -15 392 83 342 32 b 213 -75 265 -37 240 -57 b 147 -106 192 -87 171 -100 b 128 -108 140 -107 133 -108 b 81 -75 107 -108 92 -97 b 72 -47 76 -67 74 -57 b 64 17 67 -26 64 -4 l 64 29 b 81 175 64 78 72 126 b 171 478 100 279 132 379 b 383 903 228 626 301 767 b 463 1019 408 943 433 982 b 472 1044 469 1028 472 1036 b 467 1065 472 1051 471 1058 b 426 1090 457 1082 442 1090 b 397 1081 417 1090 407 1088 b 358 1040 382 1069 369 1056 b 219 824 304 974 260 900 b 24 268 126 649 61 463 b 3 65 10 200 3 132 l 3 35 b 28 -81 4 -6 11 -44 b 124 -149 47 -125 82 -149 b 167 -140 138 -149 151 -146 b 228 -110 189 -132 208 -122 b 353 -7 274 -82 314 -44 b 497 147 404 42 451 94 b 689 365 561 219 625 293 b 744 431 707 388 726 408 z "},"V":{"ha":625,"x_min":0,"x_max":0,"o":"m 1 125 l 1 92 b 3 7 1 72 1 40 b 22 -171 7 -53 11 -111 b 56 -262 29 -203 38 -235 b 97 -289 65 -281 82 -289 b 135 -274 110 -289 122 -285 b 164 -235 146 -262 156 -250 b 225 -108 189 -194 207 -151 b 324 139 260 -26 289 57 b 549 585 388 293 463 442 b 838 997 636 729 731 867 b 926 1099 865 1033 894 1068 b 1014 1153 951 1122 975 1150 b 1022 1161 1019 1153 1022 1157 b 1018 1171 1022 1165 1021 1168 b 1006 1175 1014 1174 1010 1175 l 1000 1175 b 972 1169 990 1175 982 1172 b 910 1125 949 1158 929 1142 b 775 976 861 1079 817 1028 b 586 725 708 894 647 811 b 303 206 471 564 376 390 b 211 -43 271 124 242 40 b 139 -206 189 -99 168 -154 b 114 -240 132 -218 124 -231 b 106 -246 111 -244 108 -246 b 99 -239 103 -246 101 -244 b 90 -211 94 -229 92 -221 b 75 -92 79 -172 76 -132 b 74 -33 75 -72 74 -53 b 89 247 74 61 79 154 b 117 472 96 322 106 397 b 190 867 138 604 164 736 b 215 1003 200 913 210 957 l 215 1008 b 207 1036 215 1019 213 1028 b 168 1058 197 1050 185 1058 l 161 1058 b 128 1029 142 1057 133 1044 b 121 1004 125 1021 124 1013 b 79 814 104 942 93 878 b 8 321 44 651 21 486 b 1 125 4 258 1 197 z "},"W":{"ha":1460,"x_min":0,"x_max":0,"o":"m 671 589 l 674 586 b 668 569 672 581 669 575 b 621 403 649 515 633 460 b 593 217 608 342 597 279 b 592 163 593 199 592 181 b 597 54 592 126 593 90 b 643 -135 604 -11 617 -74 b 711 -237 660 -174 679 -210 b 811 -279 740 -264 774 -279 b 838 -276 819 -279 829 -278 b 910 -243 864 -271 888 -258 b 990 -161 942 -221 967 -192 b 1103 25 1033 -103 1069 -40 b 1319 488 1182 175 1250 332 b 1529 931 1385 638 1454 786 b 1642 1110 1561 993 1589 1060 b 1646 1117 1644 1111 1646 1114 b 1644 1122 1646 1118 1646 1121 b 1636 1128 1642 1126 1639 1128 b 1631 1126 1635 1128 1632 1126 b 1614 1115 1624 1124 1618 1119 b 1576 1071 1599 1103 1588 1086 b 1469 883 1536 1011 1503 947 b 1297 532 1410 768 1351 651 b 1183 283 1260 450 1221 367 b 1033 -21 1136 181 1088 78 b 943 -156 1007 -68 979 -115 b 858 -226 919 -185 893 -211 b 814 -237 843 -233 829 -237 b 744 -203 789 -237 765 -225 b 703 -132 726 -182 714 -158 b 669 33 682 -79 672 -24 b 667 115 668 61 667 89 b 685 324 667 185 672 254 b 776 654 704 438 735 547 b 821 764 790 692 806 728 b 824 778 822 768 824 774 b 808 801 824 788 818 796 b 797 806 804 804 801 806 b 775 792 790 806 783 801 b 744 744 763 778 753 761 b 699 676 732 719 715 699 b 650 613 683 656 667 633 b 213 -24 493 408 351 193 b 119 -157 183 -69 153 -114 b 90 -187 111 -168 101 -179 b 81 -193 86 -192 83 -193 b 72 -183 76 -193 75 -190 b 61 -135 65 -168 63 -151 l 61 -104 b 65 -17 61 -75 63 -46 b 154 356 82 111 113 235 b 256 608 185 442 218 526 b 392 865 297 696 342 782 b 410 879 396 871 401 878 b 425 896 418 881 424 888 b 439 926 426 908 432 917 b 446 951 443 935 446 943 b 442 971 446 957 444 964 b 397 1000 432 990 415 1000 b 363 986 386 1000 374 996 b 319 936 346 971 332 954 b 167 654 258 847 208 753 b 21 167 99 497 51 335 b 1 -42 10 99 1 29 l 1 -58 b 17 -167 3 -94 6 -131 b 36 -207 21 -181 26 -194 b 75 -228 47 -221 61 -228 b 104 -219 85 -228 94 -225 b 140 -186 118 -211 129 -200 b 178 -135 153 -171 167 -153 b 356 142 239 -44 297 49 b 640 550 444 282 540 418 b 671 589 650 563 661 576 z "},"X":{"ha":849,"x_min":0,"x_max":0,"o":"m 417 457 b 419 446 418 450 419 449 b 435 321 424 404 428 363 b 514 -43 454 199 482 76 b 586 -250 533 -114 554 -183 b 638 -326 600 -278 615 -304 b 668 -350 646 -336 656 -344 b 678 -351 671 -351 674 -351 b 692 -344 683 -351 689 -349 b 694 -337 693 -342 694 -339 b 685 -324 694 -332 690 -328 b 660 -296 674 -317 667 -307 b 621 -224 643 -274 632 -249 b 558 -3 593 -151 575 -78 b 513 281 538 92 521 186 b 507 449 508 336 507 392 b 508 564 507 486 508 525 b 515 582 508 571 511 576 b 560 633 531 599 544 615 b 718 788 610 688 663 738 b 924 956 783 847 851 904 b 1040 1028 961 982 999 1008 b 1104 1047 1061 1038 1082 1046 b 1140 1042 1117 1047 1129 1046 b 1147 1040 1143 1040 1146 1040 b 1156 1046 1151 1040 1154 1042 b 1157 1051 1157 1047 1157 1050 b 1151 1063 1157 1056 1154 1060 b 1142 1067 1149 1064 1144 1067 b 1097 1076 1128 1072 1113 1076 b 1085 1075 1093 1076 1089 1075 b 1011 1051 1058 1071 1035 1063 b 783 901 929 1011 856 957 b 528 678 693 832 608 757 b 518 672 524 675 522 672 l 517 672 b 515 682 515 675 515 678 l 515 690 b 526 819 517 733 521 776 b 554 1046 533 894 540 971 b 556 1063 556 1051 556 1057 b 519 1108 556 1085 542 1103 b 507 1110 515 1110 511 1110 b 469 1085 492 1110 478 1101 b 456 1043 463 1072 458 1057 b 417 732 429 942 421 838 b 413 601 414 689 413 644 l 413 572 b 403 546 413 561 410 553 b 240 325 343 475 289 403 b 58 -26 168 214 107 97 b 11 -174 39 -75 22 -124 b 8 -193 10 -181 8 -187 b 46 -232 8 -219 24 -232 b 72 -228 54 -232 63 -231 b 76 -226 74 -226 75 -226 b 89 -214 82 -224 88 -221 b 78 -197 89 -206 85 -201 b 68 -189 71 -193 68 -192 b 72 -178 68 -186 69 -183 b 79 -161 74 -172 76 -167 b 169 38 107 -94 138 -28 b 385 413 231 169 301 294 b 417 457 394 426 404 440 z "},"Y":{"ha":1111,"x_min":0,"x_max":0,"o":"m 274 222 l 271 219 b 236 201 258 213 247 207 b 64 53 168 164 108 118 b 10 -112 29 1 10 -53 b 14 -161 10 -128 11 -144 b 108 -319 25 -226 58 -279 b 278 -383 160 -361 215 -383 b 326 -379 293 -383 310 -382 b 460 -319 376 -371 419 -349 b 611 -169 518 -278 568 -226 b 785 106 679 -83 733 10 b 1042 678 882 292 968 482 b 1117 918 1071 757 1097 836 b 1129 1010 1124 949 1129 979 l 1129 1021 b 1115 1065 1129 1038 1125 1051 b 1085 1081 1107 1075 1096 1081 b 1064 1074 1078 1081 1071 1078 b 1036 1049 1053 1067 1044 1058 b 975 969 1014 1022 994 996 b 715 626 890 853 807 738 b 510 396 650 547 583 469 b 403 306 476 364 442 332 b 328 268 379 290 356 274 b 297 264 317 265 307 264 b 244 313 271 264 256 276 b 236 358 239 328 238 343 l 236 375 b 267 542 236 432 249 488 b 410 858 301 653 351 757 b 486 975 433 899 458 938 b 503 986 490 981 496 986 b 508 985 504 986 507 985 b 517 983 511 983 514 983 b 532 996 522 983 528 988 b 540 1026 536 1006 539 1015 b 542 1038 542 1031 542 1033 b 532 1064 542 1047 539 1056 b 493 1086 521 1079 507 1086 b 461 1075 482 1086 471 1082 b 404 1018 438 1060 421 1039 b 265 774 347 943 303 860 b 171 432 218 664 181 551 b 169 404 171 422 169 414 b 183 315 169 374 174 344 b 268 225 197 272 222 239 b 274 222 269 225 271 224 z m 668 281 l 683 281 b 735 275 701 281 719 279 b 750 269 740 274 746 272 b 772 254 767 264 772 261 b 765 233 772 249 771 243 b 589 -92 713 121 657 11 b 460 -253 551 -150 510 -206 b 344 -331 425 -286 388 -314 b 264 -347 318 -342 292 -347 b 200 -336 243 -347 221 -343 b 46 -165 119 -307 63 -253 b 40 -117 43 -149 40 -132 b 82 19 40 -68 56 -24 b 232 161 119 81 172 125 b 493 260 313 213 400 242 b 668 281 551 271 610 281 z m 432 271 b 583 414 488 314 536 363 b 785 642 653 488 719 564 b 1010 926 863 735 938 829 b 1057 988 1025 947 1042 968 b 1068 997 1060 992 1061 996 b 1058 951 1067 981 1063 967 b 960 668 1033 854 997 761 b 825 363 918 565 871 464 b 790 283 814 336 801 310 b 781 272 786 275 785 272 b 769 276 778 272 775 274 b 667 299 738 294 701 299 l 653 299 b 511 285 606 299 558 292 b 432 271 485 281 458 275 z "},"Z":{"ha":1250,"x_min":0,"x_max":0,"o":"m 601 451 l 601 456 b 624 467 608 460 617 463 b 1013 689 758 532 889 604 b 1167 821 1068 728 1121 769 b 1221 901 1189 844 1208 871 b 1233 960 1229 919 1233 940 b 1165 1075 1233 1004 1213 1049 b 1108 1099 1147 1085 1129 1093 b 994 1113 1071 1108 1033 1113 b 886 1103 958 1113 922 1108 b 626 1010 794 1088 708 1057 b 456 872 563 974 503 929 b 396 768 429 842 407 807 b 390 726 392 754 390 740 b 406 667 390 706 394 686 b 432 636 413 654 421 644 b 444 631 436 632 439 631 b 451 632 446 631 449 631 b 457 642 454 633 457 638 b 454 653 457 646 456 649 b 451 660 454 656 453 657 b 443 690 444 669 443 681 b 451 729 443 704 446 717 b 546 846 472 776 507 814 b 790 989 618 910 700 956 b 1013 1033 861 1015 936 1033 l 1028 1033 b 1131 1008 1064 1032 1099 1026 b 1164 968 1153 997 1164 985 b 1154 936 1164 960 1160 949 b 1114 882 1143 917 1129 899 b 1001 782 1081 844 1042 813 b 643 558 889 697 768 625 b 439 454 576 522 507 489 b 414 442 431 450 421 446 b 399 417 404 435 399 426 b 406 400 399 411 401 406 b 439 381 414 386 425 381 b 449 382 442 381 446 382 b 558 390 485 386 521 389 l 576 390 b 740 376 632 390 686 385 b 901 325 796 367 851 351 b 978 260 931 308 958 288 b 1001 192 993 239 1001 217 l 1001 186 b 969 78 1001 147 988 111 b 860 -51 940 28 903 -14 b 625 -189 789 -111 711 -156 b 381 -235 544 -219 464 -235 b 283 -228 349 -235 315 -233 b 136 -165 229 -219 179 -200 b 72 -56 101 -137 81 -100 b 69 -25 71 -46 69 -35 b 85 56 69 3 75 29 b 200 206 108 117 149 167 b 406 283 260 253 328 283 l 425 283 b 526 249 463 282 496 271 b 642 135 569 215 607 176 b 703 49 664 107 683 78 b 719 29 707 40 713 33 b 725 28 721 28 722 28 b 731 29 726 28 729 28 b 733 36 732 31 733 33 l 733 39 b 729 50 732 43 731 46 b 704 89 721 63 713 76 b 547 278 661 160 610 224 b 394 338 503 318 451 338 b 349 333 379 338 364 336 b 189 269 290 324 238 301 b 33 81 119 221 63 161 b 15 -15 22 47 15 15 b 79 -176 15 -72 36 -126 b 221 -274 117 -222 165 -254 b 400 -304 281 -294 340 -304 b 513 -294 438 -304 475 -301 b 775 -201 606 -279 692 -246 b 965 -51 846 -161 911 -112 b 1054 103 1006 -6 1038 44 b 1065 174 1061 126 1065 150 b 1014 313 1065 224 1049 269 b 925 383 989 343 960 365 b 679 449 849 424 765 440 b 622 451 661 450 642 451 z "},"[":{"ha":524,"x_min":0,"x_max":0,"o":"m 103 24 b 69 26 93 24 82 24 b 57 40 61 29 57 33 l 57 43 b 60 56 58 47 58 51 b 86 133 64 83 75 108 b 231 435 133 235 182 335 b 365 708 275 526 319 618 b 400 775 376 731 386 754 b 429 792 407 785 415 792 l 450 792 b 486 785 463 792 475 790 b 494 782 489 783 492 782 b 504 786 497 782 501 783 b 508 797 507 789 508 793 b 507 804 508 800 508 801 b 486 832 503 817 496 825 b 424 857 467 844 446 851 b 406 860 417 858 411 860 b 353 835 385 860 368 851 b 329 796 343 824 336 810 l 204 554 b 72 271 157 461 114 367 b 8 100 49 215 25 158 b 0 49 4 83 0 65 b 36 -4 1 22 13 6 b 61 -11 44 -8 53 -10 b 83 -12 68 -12 76 -12 b 135 -7 100 -12 118 -10 b 239 33 172 0 206 14 b 249 46 243 36 249 40 b 247 50 249 47 249 49 b 236 57 244 56 240 57 b 228 56 233 57 231 57 b 200 44 218 53 210 47 b 103 24 169 31 139 24 z "},"\\":{"ha":796,"x_min":0,"x_max":0,"o":"m 43 936 b 1 896 22 936 1 917 l 1 893 b 14 869 1 883 6 875 b 71 818 36 857 53 838 b 313 551 153 731 233 642 b 515 292 385 468 451 381 b 685 43 575 211 632 129 b 740 -56 706 11 724 -21 b 754 -71 743 -62 746 -68 l 758 -71 b 778 -51 768 -71 778 -62 b 776 -44 778 -49 778 -47 b 749 19 768 -22 760 -1 b 654 186 721 78 689 132 b 358 625 560 335 461 482 b 151 864 297 711 229 792 b 82 921 129 885 107 904 b 43 936 69 929 57 935 z "},"]":{"ha":522,"x_min":0,"x_max":0,"o":"m 407 824 b 440 821 415 824 428 824 b 451 807 447 818 451 814 l 451 803 b 450 790 451 799 451 794 b 422 714 446 764 433 739 b 279 411 376 613 328 513 b 144 138 235 321 189 229 b 108 72 133 115 122 93 b 81 54 101 63 93 54 l 68 54 b 24 63 53 54 38 56 b 14 65 21 64 17 65 b 6 61 11 65 8 64 b 1 50 3 58 1 54 b 3 42 1 47 1 44 b 24 15 6 31 14 22 b 85 -11 42 3 63 -6 b 103 -14 92 -12 97 -14 b 156 13 124 -14 140 -4 b 181 50 167 24 174 38 b 304 293 222 132 264 213 b 436 575 351 386 396 481 b 500 747 461 632 483 688 b 508 799 506 764 508 781 b 474 851 508 824 496 842 b 449 858 465 854 457 857 b 426 860 442 860 433 860 b 374 854 408 860 392 857 b 271 814 338 847 303 833 b 261 801 265 811 261 807 b 263 796 261 800 261 799 b 274 789 264 792 269 789 b 281 790 276 789 278 789 l 310 803 b 407 824 340 815 371 824 z "},"^":{"ha":253,"x_min":0,"x_max":0,"o":"m 239 979 b 232 994 239 985 236 989 b 213 1028 224 1004 218 1017 b 196 1065 206 1040 201 1053 b 151 1097 186 1086 169 1097 b 121 1088 142 1097 131 1094 b 50 1039 96 1072 72 1057 b 10 1001 36 1026 22 1015 b 3 986 6 997 3 992 b 4 979 3 983 3 982 b 26 963 8 969 15 964 l 32 963 b 47 967 38 963 43 964 b 71 983 56 972 64 978 b 131 1029 92 999 110 1015 b 147 1038 139 1035 144 1038 b 163 1024 153 1038 156 1033 b 185 994 171 1014 178 1004 b 211 971 192 985 201 978 b 224 967 214 968 219 967 l 226 967 b 239 979 233 967 239 972 z "},"_":{"ha":476,"x_min":0,"x_max":0,"o":"m 0 168 b 15 136 1 156 7 144 b 35 126 22 129 28 126 b 53 132 40 126 46 128 b 72 140 58 135 65 138 b 308 181 149 169 228 178 b 361 182 326 181 343 182 b 444 172 389 182 417 181 b 450 171 446 171 449 171 b 460 178 454 171 458 174 b 461 186 461 181 461 183 b 458 196 461 190 461 193 b 444 204 454 200 450 203 b 408 215 432 210 421 213 b 285 225 368 222 326 225 l 261 225 b 121 222 214 225 167 224 b 71 218 104 221 88 221 b 22 203 54 215 38 213 b 0 168 10 194 1 183 z "},"`":{"ha":193,"x_min":0,"x_max":0,"o":"m 138 960 b 164 972 147 961 157 965 b 174 992 171 978 174 985 b 156 1015 174 1000 167 1010 b 101 1040 136 1022 118 1031 b 43 1072 82 1051 63 1061 b 32 1078 39 1074 36 1076 b 22 1079 29 1079 25 1079 b 6 1071 15 1079 10 1076 b 3 1061 3 1068 3 1065 b 11 1046 3 1057 6 1051 b 51 1014 25 1035 38 1025 b 110 971 71 1000 90 986 b 138 960 118 965 126 961 z "},"a":{"ha":340,"x_min":0,"x_max":0,"o":"m 93 203 b 92 218 92 208 92 213 b 96 240 92 226 93 233 b 156 383 111 290 131 338 b 178 425 164 397 171 411 b 181 436 179 429 181 432 b 175 449 181 440 179 444 b 160 456 171 453 165 456 b 150 453 157 456 154 454 b 140 450 146 450 143 450 b 129 456 136 450 133 451 b 86 472 117 467 101 472 b 74 471 82 472 78 471 b 36 453 60 468 47 463 b -43 339 -3 424 -26 385 b -56 276 -50 319 -54 299 b -33 231 -56 258 -53 239 b -19 228 -28 228 -24 228 b 14 244 -6 228 4 235 b 54 290 29 258 42 274 b 63 296 57 293 58 296 l 64 296 b 56 251 61 281 57 267 b 53 226 54 243 53 235 b 57 200 53 217 54 208 b 86 174 63 183 72 174 b 103 178 92 174 97 175 b 139 203 117 182 129 192 b 185 253 154 218 169 236 b 344 408 233 308 285 364 b 351 414 347 410 350 413 b 353 418 353 415 353 417 b 351 421 353 419 353 421 b 347 422 350 422 349 422 l 344 422 b 335 418 340 422 338 421 b 303 396 324 411 313 404 b 185 285 261 361 222 324 b 147 246 172 272 161 258 b 93 203 131 231 115 214 z m -3 274 b 74 389 15 319 39 358 b 92 400 79 394 85 399 l 94 401 b 100 396 99 401 100 399 l 100 393 b 96 385 100 390 97 388 b 7 279 67 349 40 311 b -3 274 6 276 3 274 z "},"b":{"ha":453,"x_min":0,"x_max":0,"o":"m 33 310 b 31 315 32 313 31 314 b 32 321 31 318 32 319 b 64 419 39 356 51 388 b 81 432 67 428 74 431 b 131 451 99 435 115 442 b 208 507 157 468 183 486 b 349 647 260 550 306 597 b 476 814 394 700 439 756 b 518 900 494 840 508 868 b 524 939 522 913 524 925 l 524 951 b 454 1015 519 990 490 1015 b 440 1014 450 1015 444 1015 b 396 999 425 1011 410 1006 b 268 907 347 976 306 943 b 132 738 215 857 171 799 b -12 361 60 621 11 496 b -15 329 -15 350 -15 340 b -14 301 -15 319 -15 311 b 18 267 -12 279 1 267 b 43 276 26 267 35 269 b 67 299 51 283 58 292 b 149 385 94 328 121 357 b 250 469 181 415 214 443 b 275 482 257 475 265 481 b 276 475 276 479 276 478 b 272 463 276 471 274 467 b 231 379 261 433 246 406 b 210 357 225 369 219 363 b 110 294 174 340 140 319 b -17 156 60 254 15 211 b -36 103 -26 139 -33 122 b -37 93 -36 100 -37 96 b 7 50 -37 67 -19 50 b 21 51 11 50 15 50 b 82 82 44 56 64 68 b 163 160 111 106 138 131 b 303 363 217 222 265 289 b 318 378 306 369 310 376 b 446 408 360 392 401 408 l 456 408 b 465 414 460 408 464 408 l 465 415 b 458 424 465 419 463 421 b 439 426 453 426 446 426 b 422 425 433 426 428 426 b 339 407 394 422 367 415 b 326 404 336 406 331 404 l 324 404 b 335 447 326 419 331 433 b 339 475 338 456 339 465 b 338 490 339 481 338 485 b 288 535 333 518 313 535 b 268 532 281 535 275 535 b 238 517 257 528 247 522 b 165 458 211 500 188 481 b 51 328 124 418 89 372 b 33 310 46 321 42 314 z m 479 936 b 461 879 476 918 469 899 b 382 740 439 831 411 785 b 279 606 350 693 317 647 b 126 478 233 557 183 514 b 92 461 117 471 104 465 l 89 461 b 85 465 86 461 85 463 l 85 469 b 90 481 86 474 88 476 b 271 793 140 590 197 696 b 385 918 304 838 342 881 b 433 950 400 931 415 942 b 453 958 440 954 446 957 b 465 961 458 960 463 961 b 479 936 476 961 479 954 z m 196 322 b 192 313 193 317 193 315 b 53 124 149 247 104 182 b 11 86 40 110 26 96 b 1 82 7 83 4 82 b -6 97 -4 82 -6 88 b 7 142 -6 113 0 128 b 54 210 19 167 36 189 b 186 318 92 253 136 288 b 196 322 188 319 190 319 z "},"c":{"ha":286,"x_min":0,"x_max":0,"o":"m 72 396 b 69 369 72 388 71 378 b 79 354 69 363 72 357 l 82 354 b 94 360 86 354 92 357 b 118 394 104 369 111 381 b 124 419 121 403 124 411 b 114 443 124 428 121 436 b 79 461 104 456 93 461 b 64 458 75 461 69 460 b 10 428 43 453 25 442 b -78 244 -42 378 -72 317 l -78 236 b -67 193 -78 221 -75 206 b -22 168 -57 176 -40 168 b -8 169 -18 168 -12 168 b 26 188 4 174 15 181 b 94 247 51 206 72 226 b 293 411 156 307 217 369 b 299 418 296 413 299 414 l 299 419 b 293 424 297 422 296 424 b 289 422 292 424 290 422 b 261 411 279 421 269 415 b 136 315 215 385 174 351 b 29 222 101 283 68 250 b -7 203 18 214 6 207 b -14 201 -10 201 -12 201 b -24 214 -19 201 -22 206 l -24 221 b -18 254 -24 233 -21 244 b 61 388 -3 304 25 349 b 72 396 64 392 67 396 z "},"d":{"ha":529,"x_min":0,"x_max":0,"o":"m 40 265 b 43 261 42 264 43 263 b 42 258 43 260 42 260 b 33 189 38 236 36 213 b 32 172 33 183 32 178 b 40 114 32 153 36 133 b 51 86 42 104 46 94 b 101 60 64 69 81 60 l 110 60 b 156 76 126 63 142 68 b 247 146 189 94 219 119 b 388 292 296 193 340 243 b 536 410 433 336 476 383 b 540 414 539 411 540 413 l 540 415 b 535 419 540 418 538 419 b 510 410 525 418 517 414 b 390 317 464 386 425 354 b 246 168 343 267 296 215 b 182 115 225 149 206 131 b 117 83 163 101 142 89 b 104 82 113 82 108 82 b 76 107 90 82 81 89 b 74 129 75 115 74 122 b 83 206 74 156 76 181 b 132 353 94 256 113 304 b 153 372 136 363 142 368 b 296 444 204 390 251 415 b 610 749 421 525 525 628 b 672 867 636 785 658 824 b 681 915 676 882 681 899 l 681 922 b 608 989 676 961 647 989 l 597 989 b 543 975 578 986 560 982 b 389 874 485 951 435 915 b 128 510 278 771 193 647 b 96 438 117 486 107 461 b 89 428 93 431 92 428 b 79 431 86 428 83 429 b 51 436 69 435 61 436 b 15 426 39 436 28 433 b -26 394 0 419 -14 408 b -101 249 -64 353 -89 304 b -104 225 -103 242 -104 233 b -103 208 -104 219 -103 214 b -67 175 -100 188 -86 175 b -49 179 -61 175 -56 176 b -19 200 -37 183 -28 192 b 29 254 -1 217 14 236 b 40 265 32 258 35 264 z m 151 396 b 163 422 156 406 158 414 b 392 769 225 549 300 664 b 521 893 431 814 472 857 b 588 932 542 908 563 924 b 613 939 596 936 604 938 b 622 940 615 940 619 940 b 642 918 633 940 639 933 l 642 911 b 640 892 642 904 642 897 b 592 768 633 846 614 806 b 256 438 508 628 396 519 b 171 399 228 422 200 410 b 157 394 167 397 163 394 b 151 396 156 394 153 396 z m -56 208 b 68 361 -44 264 28 353 b 43 303 61 340 58 319 b -31 224 19 275 -1 246 b -56 208 -37 218 -44 211 z "},"e":{"ha":278,"x_min":0,"x_max":0,"o":"m -54 282 l -54 269 b 10 203 -51 229 -25 203 b 44 211 21 203 32 206 b 92 243 63 219 78 229 b 197 340 126 275 161 308 b 282 404 224 364 250 386 b 289 408 285 406 288 407 b 292 413 290 410 292 411 l 290 415 b 285 419 290 418 288 418 b 272 415 281 419 276 418 b 244 400 263 411 253 406 b 118 297 199 369 157 336 b 51 244 99 278 76 258 b 28 235 44 240 36 236 l 21 235 b 6 251 11 235 7 240 b 15 297 6 268 10 283 b 36 315 19 308 26 313 b 128 381 76 324 106 347 b 138 408 135 390 138 400 b 104 451 138 429 122 444 b 76 456 94 454 86 456 l 67 456 b 1 419 40 450 18 439 b -54 282 -33 381 -51 335 z m 46 346 b 88 389 60 369 72 382 b 46 346 81 369 67 357 z "},"f":{"ha":339,"x_min":0,"x_max":0,"o":"m -64 106 b -14 71 -50 88 -33 79 b 0 63 -10 68 -4 65 b 18 29 14 56 18 43 l 18 24 b -3 -32 14 4 7 -14 b -103 -182 -29 -86 -64 -135 b -147 -235 -117 -200 -131 -218 b -168 -250 -154 -240 -160 -246 b -174 -251 -171 -251 -172 -251 b -182 -244 -178 -251 -181 -249 b -183 -232 -183 -240 -183 -236 b -182 -215 -183 -226 -183 -221 b -146 -83 -176 -169 -161 -126 b -72 96 -124 -22 -99 36 b -64 106 -71 99 -69 101 z m 13 264 b 97 419 39 317 67 368 b 115 433 101 426 108 429 b 263 589 181 469 229 521 b 272 622 267 599 271 610 l 272 626 b 225 675 272 656 251 675 b 211 674 221 675 215 675 b 185 661 201 671 193 667 b 143 629 169 651 156 642 b 64 528 113 599 88 564 b -54 304 18 457 -19 381 b -179 -26 -104 196 -147 88 b -212 -182 -194 -78 -207 -129 b -214 -208 -214 -190 -214 -200 b -211 -240 -214 -219 -214 -229 b -178 -272 -207 -261 -194 -272 b -154 -265 -171 -272 -162 -269 b -126 -242 -144 -258 -135 -250 b 13 -50 -71 -185 -25 -121 b 36 13 22 -31 32 -10 b 39 32 38 19 39 25 b 8 78 39 51 29 65 b -22 94 -1 83 -12 89 b -50 129 -42 104 -50 115 b -43 156 -50 138 -47 146 b -12 201 -35 172 -25 188 b 247 381 57 285 143 346 b 338 404 276 390 306 399 l 344 404 b 351 410 349 404 351 404 l 351 411 b 340 418 351 418 346 418 l 335 418 b 328 417 332 418 331 418 b 257 401 303 415 281 408 b 103 335 203 386 150 368 b 13 264 72 314 42 289 z m 125 464 b 228 614 156 517 186 568 l 228 607 b 125 464 228 561 175 488 z "},"g":{"ha":468,"x_min":0,"x_max":0,"o":"m 483 410 b 463 419 475 418 471 419 l 456 419 b 396 408 435 417 415 413 b 318 389 369 403 343 396 b 310 386 314 388 311 386 b 303 397 306 386 304 390 b 299 421 301 406 300 414 b 257 460 289 447 275 460 b 221 446 247 460 235 456 b 210 436 217 443 213 440 b 171 408 197 428 185 418 b 161 401 165 404 163 401 b 153 413 158 401 157 406 b 86 457 139 442 117 457 l 82 457 b 29 440 63 457 44 451 b -50 344 -8 417 -33 385 b -57 314 -54 335 -57 325 l -57 310 b -6 254 -57 283 -39 254 b 13 257 0 254 6 256 b 36 267 19 260 28 263 b 89 299 54 275 71 288 b 126 322 101 307 113 319 b 161 350 146 325 149 343 b 221 394 182 364 201 381 b 236 404 226 399 232 401 b 240 406 238 404 239 406 b 244 403 242 406 243 404 b 246 393 244 400 246 396 b 240 364 246 383 243 374 b 226 351 239 357 232 354 b 57 251 167 324 110 289 b -210 -4 -44 179 -133 94 b -275 -117 -236 -39 -260 -75 b -289 -189 -283 -140 -289 -164 l -289 -192 b -182 -300 -289 -247 -253 -297 l -171 -300 b -53 -265 -128 -300 -90 -286 b 121 -99 18 -224 74 -165 b 250 153 176 -21 217 64 b 301 346 275 215 294 279 b 321 369 304 358 310 365 b 483 410 374 388 426 404 z m 229 328 l 232 328 b 233 324 233 326 233 325 b 231 314 233 319 232 317 b 60 -78 194 175 140 42 b -57 -206 26 -126 -11 -171 b -161 -254 -89 -228 -122 -246 b -196 -256 -172 -256 -183 -256 b -250 -197 -228 -253 -247 -232 b -251 -181 -250 -192 -251 -186 b -226 -83 -251 -146 -240 -114 b -143 43 -204 -37 -176 4 b 176 301 -53 149 56 233 b 218 324 189 310 204 317 b 229 328 221 326 225 328 z m 6 300 l 6 303 b 88 382 25 336 53 363 b 97 386 90 383 93 386 b 104 381 99 386 101 385 b 108 367 107 378 108 372 b 104 356 108 363 107 358 b 13 300 76 333 47 311 b 8 299 11 299 11 299 b 6 300 8 299 7 299 z "},"h":{"ha":551,"x_min":0,"x_max":0,"o":"m 258 351 b 236 289 250 329 240 310 b 231 256 233 278 231 267 b 232 242 231 251 231 246 b 268 206 236 218 249 206 b 289 210 274 206 281 207 b 335 236 306 217 321 225 b 426 313 365 261 394 288 b 557 406 468 344 510 378 b 564 413 560 407 564 408 b 563 415 564 414 563 414 b 558 419 563 418 560 419 b 550 417 556 419 553 418 b 521 403 540 413 531 408 b 338 271 460 360 394 319 b 286 239 322 257 306 246 b 278 236 283 238 281 236 b 272 239 276 236 275 236 b 282 268 274 250 278 258 l 315 351 b 324 381 319 361 322 371 b 290 417 324 403 308 417 b 278 415 286 417 282 417 b 253 403 268 413 261 408 b 144 321 214 381 176 353 b 58 239 115 294 88 267 b 33 219 50 232 43 225 b 32 224 32 221 32 222 b 96 390 46 282 69 338 b 111 401 99 397 104 400 b 201 424 143 404 172 413 b 469 588 300 463 389 519 b 636 778 535 643 590 707 b 679 878 657 808 672 842 b 681 904 681 888 681 896 b 665 963 681 925 676 944 b 564 1011 640 999 604 1011 l 557 1011 b 460 989 524 1010 492 1001 b 304 888 401 964 350 929 b 32 503 186 779 96 650 b -28 300 4 438 -17 371 b -33 249 -31 283 -33 267 b -29 217 -33 239 -32 228 b 14 174 -24 189 -7 174 b 46 185 24 174 35 178 b 90 219 63 194 76 207 b 239 342 139 261 186 304 b 258 351 244 344 249 350 z m 640 888 b 618 801 639 860 631 831 b 486 624 589 732 542 674 b 207 447 403 549 310 492 b 131 426 183 436 157 429 b 124 425 128 425 125 425 b 117 428 121 425 118 425 l 117 431 b 119 440 117 433 118 438 b 190 565 142 483 165 525 b 367 804 243 650 300 732 b 493 914 404 846 446 885 b 582 950 521 932 549 946 l 592 950 b 617 946 600 950 608 949 b 636 926 626 943 632 936 b 640 888 639 915 639 903 z "},"i":{"ha":332,"x_min":0,"x_max":0,"o":"m -68 231 b -61 189 -68 214 -65 201 b -18 156 -54 167 -39 156 b 0 158 -12 156 -7 157 b 32 175 11 163 22 168 b 129 253 67 199 97 226 b 335 407 194 308 261 363 b 340 411 336 408 339 410 b 344 417 343 413 344 414 l 344 419 b 336 422 342 422 339 422 l 319 414 b 238 361 290 399 264 379 b 101 251 189 328 146 290 b 19 193 76 229 50 207 l -1 185 b -8 183 -4 185 -7 183 b -17 194 -14 183 -17 186 l -17 199 b -8 228 -15 208 -11 218 b 31 301 3 254 17 278 b 90 392 50 332 69 363 b 100 418 97 401 100 410 b 79 451 100 431 93 442 b 58 457 72 456 65 457 b 35 451 50 457 43 456 b 7 426 24 444 14 436 b -68 231 -40 368 -60 300 z m 133 567 b 92 543 114 567 100 558 b 75 521 86 535 82 528 b 68 503 71 515 68 510 b 72 488 68 499 69 493 b 106 467 79 474 90 467 l 110 467 b 165 497 133 467 151 479 b 175 524 172 506 175 514 b 171 542 175 529 174 536 b 133 567 163 558 149 567 z "},"j":{"ha":225,"x_min":0,"x_max":0,"o":"m -540 -185 l -540 -192 b -468 -276 -540 -237 -512 -268 b -447 -279 -461 -278 -454 -279 b -433 -278 -443 -279 -437 -278 b -365 -256 -410 -274 -387 -267 b -224 -151 -311 -231 -267 -193 b -69 40 -164 -94 -114 -29 b 75 356 -8 139 43 243 b 101 382 79 371 86 378 b 231 407 144 393 186 404 b 238 410 233 407 236 407 l 238 413 b 232 418 238 415 235 417 b 214 421 226 421 221 421 b 129 408 186 421 158 413 b 96 401 118 406 107 403 l 93 401 b 88 407 89 401 88 403 b 90 422 89 413 90 417 b 78 463 90 438 88 451 b 49 476 69 472 58 476 b 19 460 38 476 28 471 b 8 439 15 453 13 446 b -14 379 0 419 -7 400 b -35 356 -17 368 -24 361 b -101 322 -58 347 -81 335 b -394 94 -211 261 -310 186 b -507 -68 -439 46 -479 -8 b -540 -185 -525 -106 -539 -143 z m -35 328 b -33 322 -33 326 -33 324 l -33 319 b -161 29 -67 218 -106 119 b -308 -158 -203 -39 -249 -104 b -400 -225 -336 -185 -365 -208 b -449 -243 -415 -233 -432 -240 b -462 -244 -453 -244 -458 -244 b -510 -203 -487 -244 -503 -231 b -511 -181 -511 -196 -511 -187 b -506 -136 -511 -165 -510 -151 b -450 -15 -496 -92 -475 -53 b -276 175 -403 57 -344 121 b -51 321 -207 233 -132 282 b -35 328 -46 324 -42 328 z m 131 533 l 131 540 b 104 582 131 560 119 572 b 83 588 97 586 90 588 b 46 547 63 588 46 571 l 46 529 b 44 517 44 525 44 521 b 57 493 44 507 49 499 b 82 483 64 488 72 483 b 100 489 88 483 94 486 b 131 533 119 499 131 513 z "},"k":{"ha":517,"x_min":0,"x_max":0,"o":"m 15 168 b 13 176 14 171 13 174 b 15 188 13 181 14 185 b 88 386 35 256 61 321 b 113 404 93 397 100 403 b 199 433 143 410 172 419 b 503 697 322 496 424 585 b 568 818 529 735 553 774 b 582 889 576 840 582 864 l 582 901 b 476 997 578 960 533 997 l 465 997 b 368 958 429 993 397 978 b 218 818 308 921 261 872 b 82 604 165 751 122 679 b -46 204 15 478 -35 347 b -47 183 -47 197 -47 190 b -39 126 -47 164 -44 144 b -11 101 -33 110 -22 101 b 15 114 -3 101 7 106 b 49 160 29 126 38 143 b 63 176 53 165 56 172 b 72 158 68 171 69 164 b 118 131 82 140 97 131 l 122 131 b 168 144 139 131 154 138 b 219 179 186 154 203 167 b 350 296 264 217 306 258 b 526 403 403 340 457 383 b 532 410 529 404 532 406 b 528 417 532 413 531 415 b 517 419 524 418 521 419 l 513 419 b 489 413 504 417 496 415 b 315 304 425 386 365 353 b 238 229 290 278 264 254 b 160 172 214 207 189 186 b 125 161 149 167 138 161 b 107 178 113 161 108 165 l 107 185 b 113 218 107 197 110 208 b 135 238 115 231 121 236 b 285 318 193 247 243 276 b 314 371 299 333 310 350 b 315 382 315 375 315 378 b 275 419 315 403 299 419 l 268 419 b 225 403 253 417 239 411 b 110 300 181 376 144 340 b 26 185 79 264 53 225 b 15 168 24 179 21 174 z m 113 424 l 108 424 b 107 428 108 425 107 426 b 111 438 107 431 110 435 b 319 800 168 565 235 688 b 413 899 346 836 376 871 b 461 929 428 911 444 921 b 504 939 475 936 489 939 b 542 913 524 939 535 932 b 547 882 546 903 547 892 b 546 865 547 876 547 871 b 494 735 539 818 519 775 b 332 544 451 663 394 601 b 215 460 296 511 257 483 b 113 424 183 442 150 428 z m 147 283 l 147 286 b 150 292 147 289 149 290 b 239 372 178 321 206 350 b 268 385 249 378 258 383 l 271 385 b 275 381 274 385 275 383 l 275 378 b 261 357 272 369 267 364 b 188 301 240 333 214 317 b 147 283 175 296 163 286 z "},"l":{"ha":433,"x_min":0,"x_max":0,"o":"m -51 192 l -51 181 b -40 121 -51 160 -49 140 b 11 85 -29 97 -12 85 b 29 88 17 85 22 86 b 72 108 44 92 58 100 b 144 161 97 124 121 142 b 281 288 190 203 235 246 b 439 408 329 333 381 375 l 440 410 b 446 417 443 411 446 413 l 446 418 b 440 419 444 419 443 419 l 435 419 l 418 411 b 308 338 379 390 342 367 b 185 229 267 303 225 265 b 86 150 153 201 122 174 b 28 119 68 138 49 125 b 17 117 24 118 19 117 b 4 135 8 117 6 122 l 4 144 b 10 189 4 160 7 174 b 88 397 26 261 57 329 b 108 413 92 406 99 411 b 233 467 153 424 194 443 b 533 774 360 543 458 647 b 575 885 554 808 569 844 b 576 899 575 890 576 894 b 503 971 576 942 547 969 l 496 971 b 392 943 458 971 425 960 b 207 782 319 903 260 846 b -22 356 103 656 28 513 b -51 192 -39 303 -51 247 z m 110 436 l 110 439 b 114 449 110 443 113 444 b 351 807 179 578 257 699 b 463 906 385 844 419 879 b 508 925 476 914 492 922 l 518 925 b 540 899 533 925 539 918 b 524 819 540 871 533 844 b 419 649 497 757 461 700 b 186 461 354 569 276 507 b 119 436 164 450 142 442 b 114 435 118 435 117 435 b 110 436 113 435 111 435 z "},"m":{"ha":554,"x_min":0,"x_max":0,"o":"m 199 308 b 214 343 204 321 210 332 b 228 382 219 356 225 368 l 228 386 b 210 418 228 400 221 411 b 197 421 206 419 201 421 b 175 408 190 421 183 417 b 64 292 138 371 100 332 b 18 242 49 275 35 260 b 24 257 18 250 22 253 b 81 360 43 292 63 325 b 92 394 85 371 90 382 l 92 400 b 63 443 92 418 81 436 b 43 447 56 446 50 447 b 13 433 32 447 22 443 b -1 417 8 428 3 422 b -75 203 -43 351 -68 281 l -75 194 b -69 171 -75 186 -74 178 b -43 153 -64 158 -53 153 b -21 163 -35 153 -28 156 b -1 185 -14 169 -8 178 b 125 321 36 233 79 279 b 149 339 132 326 139 333 b 143 311 146 328 144 319 b 142 293 143 306 142 299 b 144 275 142 286 143 281 b 167 256 149 263 157 256 b 182 261 171 256 176 257 b 201 276 189 265 194 271 b 281 340 226 299 253 321 b 299 349 285 343 290 349 l 290 315 b 289 301 289 311 289 306 b 301 272 289 290 292 281 b 319 265 307 268 313 265 b 344 274 328 265 336 269 b 400 306 364 282 382 293 b 561 408 453 340 503 382 b 564 411 563 410 564 410 b 567 415 565 413 567 413 l 567 417 b 561 421 567 419 564 421 l 557 421 b 549 419 554 421 551 421 b 511 401 536 415 524 408 b 396 324 472 378 435 350 b 350 297 382 314 367 304 b 332 292 344 294 338 293 l 328 292 b 321 296 324 292 321 293 b 322 301 321 297 322 300 b 329 318 324 307 326 313 l 350 360 b 356 382 353 367 356 374 b 332 406 354 397 344 406 b 319 403 328 406 324 404 b 297 388 311 399 304 393 b 215 318 268 367 243 342 b 199 308 211 314 208 308 z "},"n":{"ha":468,"x_min":0,"x_max":0,"o":"m 53 326 b 51 328 53 326 51 326 b 56 338 53 331 54 333 b 96 407 69 360 83 383 b 100 426 99 414 100 419 b 82 461 100 439 94 451 b 56 471 74 467 64 471 b 26 460 44 471 35 467 b 13 440 21 454 15 447 b -71 222 -29 374 -57 300 b -72 211 -72 218 -72 215 b -69 194 -72 206 -71 200 b -47 176 -67 185 -58 178 l -43 176 b -24 189 -33 176 -28 182 b 14 243 -12 208 0 226 b 168 388 58 297 108 347 b 182 394 172 390 175 394 l 185 394 b 178 379 185 388 181 383 b 147 304 165 356 154 331 b 143 275 146 294 143 285 b 146 258 143 269 144 264 b 181 222 150 235 164 222 b 207 229 189 222 197 224 b 253 261 224 238 239 249 b 358 343 286 290 322 317 b 471 407 393 368 429 392 b 479 413 475 408 479 408 l 479 415 b 472 421 478 419 475 421 b 467 419 471 421 468 419 b 440 411 457 418 449 415 b 403 393 428 406 415 399 b 282 301 358 368 319 336 b 217 254 263 283 240 268 b 200 247 211 251 206 249 b 192 246 197 246 194 246 b 185 249 189 246 186 246 b 183 253 183 250 183 251 b 186 263 183 256 185 260 b 204 297 192 274 197 286 b 243 365 217 321 231 343 b 261 406 251 378 257 392 b 264 425 264 413 264 418 b 250 454 264 438 260 447 b 231 461 243 460 236 461 b 204 451 222 461 213 457 b 106 376 168 431 136 404 b 53 326 88 360 71 343 z "},"o":{"ha":281,"x_min":0,"x_max":0,"o":"m -60 264 b -51 215 -60 247 -58 231 b -7 185 -42 196 -26 185 b 14 189 0 185 7 186 b 43 207 25 193 35 200 b 133 321 79 240 110 278 b 150 378 143 339 150 358 b 149 390 150 382 149 386 b 147 399 147 394 147 397 b 160 404 147 404 150 404 b 275 408 199 404 236 408 b 286 410 279 408 282 410 b 294 415 289 410 293 411 b 286 424 294 421 290 422 l 151 424 b 119 432 140 424 129 425 b 114 433 118 433 115 433 b 100 432 110 433 104 432 b 94 433 99 432 96 432 b 75 449 89 439 83 444 b 56 453 68 451 61 453 b 18 436 42 453 29 447 b -60 264 -32 390 -56 331 z m 107 411 b 128 390 122 408 126 404 b 129 378 129 386 129 382 b 121 344 129 365 126 354 b 15 225 97 294 61 256 b 10 222 14 224 11 224 b 0 218 7 221 3 218 b -3 219 -1 218 -1 219 b -6 224 -4 221 -6 222 b -3 233 -6 226 -4 231 b 8 265 -1 244 3 256 b 92 381 31 308 56 349 b 107 411 100 389 100 390 z "},"p":{"ha":385,"x_min":0,"x_max":0,"o":"m -83 31 l -86 33 b -83 39 -85 35 -85 38 b 25 283 -51 122 -15 203 b 79 403 44 322 64 361 b 82 418 81 408 82 413 b 63 451 82 431 75 443 b 44 457 56 454 50 457 b 15 440 33 457 24 451 b 4 425 11 436 8 431 b -46 338 -14 396 -31 367 b -193 -132 -121 189 -171 33 b -197 -196 -196 -153 -197 -174 l -197 -210 b -185 -231 -197 -222 -193 -229 l -182 -231 b -164 -217 -175 -231 -169 -226 b -158 -203 -162 -212 -160 -207 b -3 135 -112 -87 -62 26 b 132 340 36 207 81 276 b 199 407 153 365 174 389 b 222 419 206 413 214 417 b 235 414 226 419 232 419 b 239 401 238 411 239 406 b 225 371 239 390 233 376 b 190 350 213 364 201 358 b 83 232 147 318 108 281 b 71 190 76 219 72 206 l 71 182 b 111 142 71 157 86 142 l 119 142 b 158 160 135 143 147 150 b 279 354 222 210 263 275 b 306 383 282 371 289 379 b 390 406 333 392 360 404 b 397 410 393 406 396 406 l 397 411 b 392 418 397 414 394 415 b 378 421 388 419 382 421 b 367 419 374 421 369 419 b 301 401 344 415 324 408 b 288 399 294 400 292 399 b 276 415 282 399 281 403 b 231 451 268 439 251 451 b 203 443 222 451 213 449 b 165 417 189 436 178 426 b 72 307 131 383 100 347 b -74 50 17 225 -31 139 b -83 31 -76 43 -81 38 z m 224 342 b 206 301 219 326 213 314 b 118 185 181 260 153 219 b 101 171 114 181 107 171 b 97 172 100 171 99 172 b 92 182 93 175 92 178 b 96 197 92 188 94 193 b 100 213 97 203 99 208 b 224 342 128 269 171 310 z "},"q":{"ha":410,"x_min":0,"x_max":0,"o":"m 128 353 b 131 350 129 351 129 350 b 128 344 129 349 129 346 b -7 76 72 261 29 171 b -67 -164 -35 -1 -61 -81 l -67 -179 b -58 -233 -67 -197 -65 -215 b -25 -258 -51 -250 -40 -258 b -7 -256 -19 -258 -14 -258 b 10 -247 -1 -254 4 -250 b 53 -212 26 -237 40 -225 b 154 -82 92 -172 125 -129 b 197 11 172 -53 189 -22 b 200 35 200 19 200 26 b 182 83 200 51 194 68 b 156 111 175 93 165 103 b 126 171 136 128 126 147 b 128 189 126 176 126 182 b 154 242 131 210 142 226 b 379 399 215 315 290 368 b 415 406 390 403 403 406 b 424 411 418 406 422 406 b 415 418 424 415 419 417 b 406 419 413 419 408 419 b 394 418 401 419 399 419 b 367 411 385 417 376 414 b 208 328 308 394 256 367 b 197 319 206 324 203 319 l 194 319 b 201 342 194 328 199 335 b 231 414 213 365 224 389 b 232 428 232 418 232 424 b 231 439 232 432 232 435 b 208 460 226 451 218 460 b 190 451 201 460 196 457 b 156 415 178 440 167 426 b 143 406 151 411 150 406 b 140 410 142 407 142 408 b 79 460 132 442 108 460 b 47 453 69 460 58 457 b -3 414 26 444 10 431 b -69 240 -40 361 -62 303 l -69 233 b -67 217 -69 228 -68 222 b -37 193 -62 203 -50 193 b -19 199 -32 193 -25 196 b 1 217 -12 204 -6 210 b 75 297 26 243 50 271 b 128 353 93 315 111 333 z m 110 158 b 158 79 115 125 135 101 b 179 29 174 65 179 49 b 175 -1 179 19 178 10 b 143 -67 167 -25 156 -46 b 15 -217 108 -122 68 -175 b -8 -232 8 -222 0 -228 b -19 -235 -12 -233 -17 -235 b -31 -221 -25 -235 -29 -231 b -33 -204 -32 -215 -33 -210 b -28 -169 -33 -193 -29 -181 b 15 -28 -19 -119 -3 -74 b 99 147 39 32 67 90 b 110 158 100 150 101 154 z m -15 246 b 51 347 3 285 25 318 b 82 376 61 358 71 368 b 92 381 85 379 88 381 b 107 368 99 381 106 375 l 107 367 b 101 358 107 363 104 361 b 28 281 78 331 53 306 b 1 256 18 272 10 264 b -15 246 -3 251 -6 247 z "},"r":{"ha":269,"x_min":0,"x_max":0,"o":"m 58 374 b 57 375 58 375 57 375 l 69 400 b 76 414 72 404 75 410 b 78 425 78 418 78 421 b 57 457 78 439 69 450 b 42 461 51 460 46 461 b 15 446 32 461 24 457 b 3 425 11 439 6 432 b -56 229 -26 363 -46 297 l -56 224 b -51 207 -56 218 -54 213 b -36 197 -47 200 -42 197 b -24 204 -32 197 -26 199 b -15 219 -19 210 -18 214 b 72 358 10 268 38 315 b 124 415 88 378 104 399 b 136 422 129 421 133 422 b 150 413 140 422 144 419 b 188 390 158 399 172 390 l 192 390 b 275 411 219 394 247 404 b 282 419 279 413 282 415 l 282 422 b 272 432 282 428 278 431 l 251 432 b 218 426 240 431 229 428 b 201 425 213 425 207 425 b 168 442 189 425 178 428 b 147 454 163 450 156 454 b 125 444 140 454 133 450 b 93 414 114 435 103 425 b 58 374 82 400 71 388 z "},"s":{"ha":261,"x_min":0,"x_max":0,"o":"m 68 393 b 67 404 67 397 67 401 b 75 425 67 411 69 417 b 126 460 89 442 106 453 b 138 463 131 461 135 463 b 149 460 142 463 146 461 b 158 457 153 458 156 457 b 174 474 167 457 172 464 l 174 479 b 169 496 174 486 172 490 b 126 521 160 511 144 519 l 121 521 b 35 489 89 521 61 508 b -1 417 10 471 -1 446 b 0 399 -1 411 -1 404 b 6 368 1 389 3 379 l 6 364 b 0 353 6 360 4 356 b -32 332 -11 346 -22 339 b -174 196 -86 294 -133 249 b -231 71 -200 158 -222 117 b -232 47 -232 63 -232 54 b -164 -54 -232 0 -208 -37 b -115 -62 -149 -60 -132 -62 b -94 -61 -108 -62 -101 -62 b 68 42 -26 -50 28 -14 b 113 181 99 85 113 132 b 107 239 113 200 111 219 b 76 350 100 278 88 314 b 74 363 75 356 74 360 b 88 374 74 368 78 369 b 201 411 124 390 163 403 b 238 417 214 414 225 417 b 261 413 246 417 253 415 b 267 411 263 413 265 411 b 272 415 268 411 271 413 b 274 418 272 417 274 417 b 265 426 274 422 268 424 b 244 432 260 431 251 432 b 211 431 233 432 222 432 b 83 396 168 424 125 411 b 72 392 81 394 76 392 b 68 393 71 392 69 393 z m 53 188 b -29 24 51 122 21 68 b -115 -19 -54 1 -82 -14 b -131 -21 -121 -19 -125 -21 b -154 -17 -139 -21 -146 -19 b -193 24 -175 -10 -187 3 b -197 50 -196 32 -197 42 b -192 86 -197 63 -194 74 b -147 181 -183 121 -167 151 b 3 325 -107 239 -56 285 b 14 332 8 329 11 332 b 24 319 18 332 21 328 b 53 188 40 278 53 236 z "},"t":{"ha":458,"x_min":0,"x_max":0,"o":"m 181 828 b 174 813 176 821 175 817 b 71 606 136 746 101 676 b -22 340 33 519 0 432 b -46 168 -37 283 -46 226 l -46 146 b -28 75 -44 121 -40 97 b 17 47 -17 57 -3 47 b 35 50 22 47 28 49 b 67 65 46 54 57 58 b 128 113 89 79 108 94 l 236 221 b 400 371 289 274 343 324 b 465 415 421 388 442 403 b 471 422 468 418 471 419 l 471 424 b 465 428 469 426 467 428 b 460 426 464 428 461 426 b 449 421 456 425 451 424 b 406 394 433 414 418 404 b 325 328 376 374 351 350 b 189 199 278 286 233 243 b 124 136 167 178 146 157 b 47 82 101 115 75 96 b 26 75 40 79 33 75 b 18 74 24 75 21 74 b 0 92 8 74 3 79 b -4 121 -3 101 -4 111 b -3 138 -4 126 -4 132 b 15 239 0 172 6 206 b 69 392 31 290 49 342 b 290 828 133 542 211 685 b 311 840 296 836 301 839 b 394 846 339 844 367 846 b 501 849 431 847 465 849 b 735 829 579 849 657 843 b 822 807 764 824 793 818 b 850 794 832 804 842 800 b 858 785 856 790 858 788 b 853 776 858 783 857 781 l 849 772 b 842 763 846 769 842 765 b 843 758 842 761 843 760 b 857 749 844 751 850 749 b 896 765 872 749 886 753 b 901 783 900 771 901 776 b 893 807 901 790 897 799 b 875 824 889 814 882 818 b 838 842 864 831 851 836 b 699 867 793 858 746 863 b 547 871 649 871 597 871 b 386 864 493 871 440 869 b 333 860 369 863 351 861 l 324 860 b 313 864 315 860 313 861 b 319 882 313 868 315 874 b 339 921 326 894 333 907 b 342 938 342 926 342 932 b 319 974 342 951 335 964 b 296 981 313 978 304 981 b 267 967 285 981 275 976 b 251 946 261 961 257 954 b 206 868 236 921 219 894 b 172 844 197 854 189 844 l 163 844 b 139 842 154 844 147 843 b 11 829 96 838 54 833 b -111 817 -31 825 -71 819 b -224 807 -149 813 -186 810 b -278 806 -242 806 -260 806 b -333 807 -297 806 -315 806 b -393 817 -353 808 -374 810 b -446 843 -412 822 -431 829 b -454 857 -451 847 -454 851 b -453 864 -454 858 -454 861 b -450 876 -450 868 -450 872 b -469 907 -450 889 -458 901 b -486 911 -475 910 -481 911 b -514 885 -500 911 -512 901 b -501 843 -514 869 -510 856 b -451 803 -489 824 -471 811 b -344 782 -417 788 -381 783 b -301 781 -331 782 -315 781 b -136 792 -246 781 -192 785 b 83 818 -64 800 10 810 b 181 828 114 821 146 824 z "},"u":{"ha":444,"x_min":0,"x_max":0,"o":"m 178 346 b 181 344 178 346 179 346 b 175 328 178 339 176 333 b 169 283 172 313 169 299 l 169 274 b 215 228 174 244 192 228 b 243 235 224 228 233 229 b 274 257 254 240 264 249 b 451 410 332 310 388 364 b 457 415 454 413 457 413 b 456 418 457 417 456 417 b 451 421 454 419 453 421 b 446 418 450 421 447 419 b 433 411 442 417 438 414 b 374 365 413 397 393 382 b 261 279 336 336 301 306 b 228 260 250 271 240 264 b 218 258 224 258 221 258 b 213 264 215 258 213 260 b 214 272 213 267 214 269 b 232 326 217 292 224 308 b 286 421 247 360 267 390 b 294 439 289 426 293 433 b 296 447 296 442 296 444 b 282 471 296 457 290 465 b 268 475 278 474 272 475 b 251 467 263 475 258 472 b 240 454 249 463 244 458 b 211 422 232 443 222 432 b 121 340 181 394 151 367 b 54 286 99 321 78 301 b 40 278 50 283 44 278 b 36 279 39 278 38 278 b 33 283 35 281 33 282 b 40 296 33 288 39 292 b 118 418 63 339 88 381 b 128 444 125 426 128 435 b 126 457 128 449 128 453 b 78 492 119 476 100 492 b 49 482 68 492 58 489 b 28 460 40 476 33 468 b -36 324 -3 419 -25 374 b -39 293 -37 314 -39 303 b -35 263 -39 282 -37 272 b 15 226 -26 239 -6 226 b 38 231 22 226 31 228 b 72 254 51 236 63 244 l 135 308 b 178 346 149 321 164 333 z "},"v":{"ha":310,"x_min":0,"x_max":0,"o":"m 43 239 b 42 244 42 242 42 243 l 42 249 b 67 365 47 288 56 326 b 75 404 69 378 74 390 l 75 413 b 40 454 75 432 61 450 l 33 454 b 6 435 21 454 10 447 b -3 407 1 426 -1 417 b -17 283 -11 365 -17 325 b -15 251 -17 272 -15 263 b -7 214 -15 239 -12 226 b 28 186 1 196 14 186 b 61 207 40 186 51 193 b 92 257 72 222 82 239 b 179 390 118 303 146 349 b 219 435 192 407 204 422 b 231 442 225 439 228 442 b 242 433 235 442 238 439 b 307 406 260 413 282 407 b 318 407 311 406 314 407 b 322 413 321 408 322 410 l 322 414 b 318 421 322 418 321 419 l 310 421 b 257 451 288 422 269 432 b 233 468 250 463 243 468 b 211 458 226 468 219 464 b 199 447 207 456 203 451 b 139 376 176 426 157 403 b 57 256 113 336 85 296 b 43 239 53 250 50 244 z "},"w":{"ha":486,"x_min":0,"x_max":0,"o":"m 149 342 b 143 321 146 332 144 326 b 131 233 136 292 131 264 l 131 224 b 143 182 132 208 135 194 b 181 160 153 168 167 160 b 206 167 189 160 197 163 b 228 185 214 171 221 178 b 288 267 251 210 269 238 b 369 396 314 310 340 354 b 397 433 378 408 388 421 b 404 439 400 438 401 439 b 411 433 407 439 410 438 b 475 399 425 410 450 404 l 488 399 b 499 408 493 400 499 401 l 499 410 b 488 419 499 417 493 418 b 436 464 461 424 442 436 b 428 476 435 469 432 474 b 414 483 422 481 418 483 b 394 474 407 483 401 479 b 354 422 379 457 367 440 b 292 319 332 389 313 353 b 214 219 269 283 244 250 b 192 203 207 214 200 207 b 186 201 189 201 188 201 b 181 208 183 201 182 204 b 182 232 181 217 181 225 b 214 328 188 265 201 296 b 246 407 225 354 236 381 b 251 428 249 414 251 421 l 251 433 b 236 454 250 443 244 450 b 228 456 233 456 231 456 b 213 449 222 456 218 453 b 188 419 203 440 194 431 b 164 389 181 408 174 399 b 33 267 124 346 79 306 b 28 264 32 265 31 264 l 25 264 l 25 267 b 29 278 25 271 28 274 b 64 338 40 297 51 318 b 99 390 76 356 88 372 b 107 417 104 399 107 408 b 104 432 107 422 106 426 b 60 463 96 451 78 463 b 29 453 49 463 39 460 b 14 438 24 449 18 443 b -51 294 -19 394 -39 346 b -56 247 -56 278 -56 263 b -49 222 -56 238 -53 229 b -14 199 -40 207 -28 199 b 13 208 -4 199 4 201 b 38 231 21 215 29 224 b 128 324 68 263 97 293 b 149 342 133 329 139 335 z "},"x":{"ha":364,"x_min":0,"x_max":0,"o":"m 29 286 b 51 247 36 272 43 260 b 115 213 71 224 92 213 b 167 229 132 213 149 218 b 210 264 182 239 197 251 b 369 408 261 314 311 367 b 376 415 372 411 376 413 b 375 418 376 417 375 417 b 368 424 374 422 371 424 b 363 422 367 424 364 422 b 335 404 353 418 343 411 b 203 294 290 368 247 331 b 143 253 185 279 165 263 b 121 247 135 249 128 247 b 89 275 107 247 96 257 b 81 322 82 290 81 306 b 89 340 81 329 82 336 b 199 399 124 364 154 393 b 207 407 203 400 207 403 l 207 410 b 201 418 207 414 204 415 b 186 422 196 421 190 422 b 176 421 182 422 179 421 b 142 408 164 418 153 414 b 99 386 126 401 113 393 b 85 381 92 383 88 381 b 81 394 81 381 81 385 b 78 429 81 407 81 418 b 46 463 72 446 63 457 b 31 467 40 465 35 467 b 0 438 15 467 3 456 b -1 419 0 432 -1 425 b 0 403 -1 414 0 408 b 11 344 3 383 6 364 b 13 339 13 342 13 340 b 4 325 13 333 10 329 b -58 264 -18 306 -37 285 b -71 249 -62 258 -67 254 b -76 235 -75 243 -76 238 b -72 225 -76 231 -75 228 b -60 218 -68 221 -64 218 b -49 221 -56 218 -53 219 b -26 236 -40 224 -33 229 b 13 274 -12 249 0 261 b 29 286 17 278 21 283 z "},"y":{"ha":439,"x_min":0,"x_max":0,"o":"m 47 232 b -92 100 -1 190 -49 147 b -201 -61 -136 51 -175 -1 b -222 -149 -212 -90 -222 -118 l -222 -156 b -140 -232 -218 -199 -183 -232 l -132 -232 b -69 -210 -110 -229 -89 -221 b 29 -119 -31 -186 0 -154 b 136 53 72 -67 104 -8 b 247 318 181 138 215 228 b 274 347 253 332 261 342 b 396 397 314 367 354 385 b 447 413 413 403 429 408 b 453 418 450 413 453 414 b 446 422 451 421 449 422 b 422 419 438 422 429 421 b 293 375 378 408 333 394 b 265 365 285 371 276 367 b 275 404 268 379 272 392 b 278 422 276 410 278 417 b 276 435 278 426 278 431 b 254 457 274 446 265 454 b 247 458 251 458 250 458 b 228 446 240 458 233 453 b 94 315 186 400 140 357 b 44 276 79 301 63 288 b 38 272 43 275 40 272 b 32 274 36 272 35 272 b 46 307 38 285 42 296 b 89 382 58 333 74 358 b 107 414 96 392 101 403 b 110 429 110 419 110 425 b 104 451 110 438 108 444 b 61 476 94 468 78 476 b 25 461 49 476 36 471 b 1 424 15 450 8 438 b -26 329 -11 394 -21 363 b -31 296 -29 318 -31 307 b -26 267 -31 286 -29 276 b 21 225 -19 242 -1 225 b 43 231 28 225 36 226 b 47 232 44 231 46 231 z m 161 276 l 144 235 b 42 8 113 158 81 82 b -57 -142 14 -44 -15 -97 b -125 -193 -76 -162 -97 -182 b -147 -197 -133 -196 -140 -197 b -187 -156 -169 -197 -185 -183 l -187 -140 b -181 -90 -187 -124 -186 -107 b -124 19 -168 -50 -147 -15 b 83 226 -65 100 6 167 b 140 269 103 242 122 256 b 157 279 146 272 151 276 b 161 276 158 279 160 278 z m 189 354 b 157 303 185 333 179 314 b 76 253 129 289 104 269 b 189 354 114 288 151 321 z "},"z":{"ha":383,"x_min":0,"x_max":0,"o":"m 158 422 b 143 407 154 414 149 411 b 50 339 114 382 82 361 b 4 303 35 328 18 317 b -8 282 -4 296 -8 289 b -3 265 -8 278 -6 272 b -1 258 -1 263 -1 260 b -7 250 -1 256 -3 253 l -65 204 b -258 19 -136 149 -203 90 b -339 -110 -292 -19 -321 -61 b -350 -161 -346 -126 -350 -143 b -296 -228 -350 -197 -331 -221 b -278 -229 -290 -229 -283 -229 b -233 -222 -262 -229 -249 -226 b -79 -142 -176 -204 -126 -175 b 113 78 4 -85 68 -11 b 135 168 125 107 135 136 l 135 175 b 83 265 133 215 115 244 b 72 275 79 268 74 269 b 76 281 74 276 75 279 b 313 396 150 331 228 371 b 372 408 332 401 351 408 b 386 407 376 408 382 408 l 390 407 b 397 411 393 407 396 407 b 390 421 397 417 394 419 b 368 426 383 425 375 426 b 358 425 365 426 361 425 b 214 388 308 418 260 410 b 203 383 211 385 207 383 l 200 383 b 210 400 203 389 207 394 b 218 428 215 408 218 418 b 206 460 218 439 214 450 b 161 483 194 474 179 481 b 132 486 151 486 142 486 b 54 467 104 486 79 479 b 10 435 38 460 22 449 b -3 406 3 426 -3 417 l -3 401 b 19 379 -1 388 7 379 b 31 382 22 379 26 381 b 36 386 32 383 35 385 b 133 422 67 401 100 414 b 147 424 138 424 143 424 b 158 422 150 424 154 424 z m -318 -154 b -308 -114 -318 -142 -314 -128 b -233 8 -292 -68 -262 -29 b 19 240 -160 97 -72 172 b 33 246 25 244 29 246 b 43 244 38 246 40 246 b 74 226 54 240 65 235 b 92 189 86 217 92 203 b 90 176 92 185 92 181 b 57 99 86 147 72 122 b 15 46 44 79 31 61 b -189 -136 -49 -21 -117 -82 b -250 -172 -208 -150 -229 -162 b -287 -183 -262 -178 -275 -182 l -294 -183 b -318 -154 -311 -183 -318 -175 z "},"{":{"ha":619,"x_min":0,"x_max":0,"o":"m 133 329 l 138 329 b 132 313 138 322 135 318 b 65 168 111 264 89 217 b 10 35 44 125 25 81 b 1 0 7 24 3 13 l 1 -3 b 47 -54 1 -32 19 -51 b 63 -56 53 -56 57 -56 b 218 -24 117 -54 167 -42 b 279 4 239 -17 260 -7 b 290 18 285 8 290 11 l 290 22 b 278 31 289 28 285 31 b 267 28 275 31 271 29 b 253 21 263 25 258 24 b 71 -19 196 -4 135 -18 l 67 -19 b 50 -7 56 -19 50 -15 b 53 6 50 -4 51 0 b 74 58 57 24 65 40 b 158 240 101 118 131 179 b 207 379 179 285 199 329 b 215 393 208 385 211 389 b 329 551 260 442 294 497 b 464 747 371 618 414 685 b 533 813 483 772 506 796 b 557 822 540 818 549 822 b 572 811 565 822 568 815 b 585 806 576 807 581 806 b 599 817 590 806 596 810 b 603 832 601 822 603 826 b 594 857 603 840 599 849 b 535 893 582 879 560 893 b 522 892 531 893 526 893 b 453 857 496 888 474 874 b 363 744 417 824 389 785 b 272 582 331 692 301 636 b 200 457 250 539 226 497 b 192 447 196 450 194 447 b 181 451 189 447 186 449 b 154 458 172 456 163 458 b 129 451 146 458 138 456 b 69 376 99 436 78 411 b 68 367 68 372 68 369 b 110 325 68 343 86 325 b 118 326 113 325 115 326 b 133 329 124 328 128 329 z m 115 363 l 114 363 b 110 365 113 363 111 363 b 111 371 110 367 110 369 b 151 413 119 389 133 404 b 156 414 153 414 154 414 b 160 413 157 414 158 414 b 163 408 161 411 163 410 b 161 404 163 407 161 406 b 115 363 149 388 135 374 z "},"|":{"ha":476,"x_min":0,"x_max":0,"o":"m 0 -18 b 7 -49 1 -28 1 -39 b 25 -58 11 -54 18 -58 b 32 -57 28 -58 29 -57 b 42 -42 39 -54 42 -50 l 42 -31 b 43 -15 42 -25 42 -21 b 57 40 47 4 51 22 b 288 564 121 221 190 397 b 451 833 340 654 393 746 b 460 857 457 842 460 849 b 450 882 460 865 457 874 b 413 900 440 894 426 900 b 397 897 407 900 403 899 b 372 879 388 893 379 888 b 338 835 360 865 347 850 b 200 574 282 753 236 665 b 88 282 160 478 124 381 b 11 46 60 204 32 126 b 0 -18 6 26 3 6 z "},"}":{"ha":619,"x_min":0,"x_max":0,"o":"m 472 508 l 468 508 b 474 525 468 515 471 519 b 540 669 494 574 517 621 b 594 803 560 713 581 757 b 603 838 599 814 603 825 l 603 843 b 557 892 603 871 586 890 b 543 893 553 893 547 893 b 388 861 489 892 438 879 b 326 833 367 854 346 844 b 315 819 321 829 315 826 l 315 815 b 328 807 317 810 321 807 b 339 810 331 807 335 808 b 351 817 343 813 347 814 b 535 857 410 843 471 856 l 539 857 b 556 844 550 857 556 853 b 553 832 556 842 554 838 b 532 779 547 814 540 797 b 447 597 504 719 475 658 b 397 458 426 553 407 508 b 390 444 397 453 394 449 b 276 286 346 396 311 342 b 142 90 233 219 192 153 b 72 25 121 65 100 42 b 49 15 65 19 57 15 b 33 26 40 15 38 22 b 21 32 29 31 25 32 b 7 21 15 32 10 28 b 3 4 4 15 3 10 b 11 -19 3 -4 6 -12 b 74 -56 24 -42 47 -56 b 83 -54 76 -56 81 -54 b 153 -18 110 -50 132 -36 b 243 93 189 14 217 53 b 333 256 275 146 304 201 b 406 381 356 299 379 340 b 414 390 410 388 411 390 b 425 386 417 390 419 389 b 451 381 433 382 442 381 b 476 386 460 381 468 382 b 536 461 507 401 528 426 b 538 471 538 465 538 468 b 494 513 538 494 519 513 b 486 511 492 513 489 511 b 472 508 482 510 478 508 z m 489 475 l 492 475 b 494 472 493 475 494 475 b 496 469 496 472 496 471 b 494 467 496 468 496 468 b 454 425 486 449 472 433 b 450 424 453 424 451 424 b 446 425 449 424 447 424 b 443 429 444 426 443 428 b 444 433 443 431 444 432 b 489 475 457 450 471 464 z "},"~":{"ha":261,"x_min":0,"x_max":0,"o":"m 0 383 b 24 339 3 364 7 349 b 35 336 28 338 31 336 b 61 349 44 336 53 343 b 69 360 67 353 69 356 b 64 369 69 363 67 365 b 60 378 63 372 60 375 b 61 381 60 378 60 379 b 85 413 68 393 75 404 b 90 417 86 415 89 417 b 96 411 92 417 94 414 b 103 400 99 407 100 404 b 131 367 110 388 118 375 b 158 357 140 360 150 357 b 192 375 171 357 182 363 b 218 411 201 386 210 399 b 242 450 228 424 235 438 b 244 460 244 454 244 457 b 239 469 244 464 243 467 b 228 475 235 472 231 475 b 218 471 224 475 221 474 b 203 456 213 467 208 461 b 165 421 190 444 179 431 b 156 415 160 417 157 415 b 147 425 151 415 150 418 b 131 457 142 436 138 447 b 85 482 118 474 101 482 b 57 474 76 482 67 479 b 0 383 22 453 7 419 z "},"":{"ha":440,"x_min":0,"x_max":0,"o":"m 360 240 l 360 249 b 357 274 360 257 358 265 b 347 290 354 279 353 286 b 331 299 343 296 336 299 b 322 297 328 299 325 299 b 311 278 314 293 311 286 l 311 271 b 296 188 311 242 304 214 b 189 -79 268 96 231 7 b 58 -301 153 -157 103 -228 b 43 -312 54 -307 50 -311 b 29 -326 36 -314 29 -319 b 11 -364 28 -340 18 -351 b 4 -386 7 -371 4 -379 b 17 -414 4 -396 8 -406 b 50 -431 26 -425 38 -431 b 79 -419 60 -431 69 -426 b 124 -374 96 -407 110 -392 b 222 -201 164 -321 196 -264 b 342 139 268 -90 311 22 b 360 240 351 172 358 206 z m 379 474 b 356 469 368 474 361 472 b 340 451 346 465 340 458 b 343 442 340 449 342 444 b 346 431 346 438 346 433 b 335 411 346 422 342 417 b 313 394 328 406 321 400 b 304 381 307 390 304 386 b 314 367 304 375 308 371 b 329 363 319 364 324 363 b 339 364 332 363 336 363 b 399 393 361 369 382 379 b 418 417 407 400 414 407 b 422 435 421 422 422 428 b 411 458 422 443 419 451 b 379 474 401 468 389 472 z "},"":{"ha":535,"x_min":0,"x_max":0,"o":"m 443 601 l 443 599 b 440 593 443 596 442 594 b 435 575 436 588 435 582 b 456 542 435 561 444 547 b 467 539 460 540 463 539 b 488 553 476 539 485 544 b 503 585 490 564 497 574 b 511 615 508 594 511 604 b 476 672 511 638 499 660 b 457 681 471 676 464 679 b 447 689 450 683 447 686 b 451 699 447 690 449 694 b 483 751 461 715 472 733 b 499 764 488 757 492 761 b 514 782 508 767 513 774 b 519 811 514 792 517 801 b 521 825 521 815 521 819 b 490 853 517 842 504 853 b 469 846 483 853 476 850 b 432 808 456 835 443 822 b 351 689 403 771 376 731 b 328 668 346 679 339 672 b 190 603 278 654 233 631 b 40 458 131 564 79 517 b 8 389 25 436 15 414 b 7 369 7 383 7 376 b 64 285 7 336 25 300 b 103 274 76 279 89 276 l 140 269 b 149 263 146 268 149 267 b 147 256 149 260 149 258 b 142 239 146 250 143 244 b 81 60 118 181 94 121 b 75 17 78 44 75 31 l 75 7 b 93 -17 75 -7 83 -15 b 113 4 103 -17 110 -11 b 126 58 114 22 119 40 b 203 249 147 124 175 186 b 232 268 208 263 217 268 b 354 286 274 268 315 274 b 404 308 372 292 389 299 b 411 318 408 310 411 314 b 410 322 411 319 411 321 b 397 331 407 328 403 331 l 394 331 b 386 328 392 331 389 329 b 251 301 343 308 297 303 b 232 307 238 301 232 301 b 238 322 232 310 233 315 b 297 442 256 363 278 401 b 378 582 324 489 350 536 b 393 599 382 589 385 596 b 425 603 404 601 415 603 b 443 601 432 603 438 603 z m 276 557 l 282 557 b 249 486 271 532 260 508 b 175 321 224 432 199 376 b 160 306 169 308 168 306 l 149 306 b 88 319 128 308 107 311 b 58 354 68 328 58 339 b 64 376 58 361 61 368 b 94 424 72 394 82 410 b 271 556 144 479 206 521 b 276 557 272 556 275 557 z "},"":{"ha":713,"x_min":0,"x_max":0,"o":"m 301 154 b 307 167 301 160 306 163 b 346 228 319 186 333 207 b 460 449 389 299 422 375 l 468 465 b 482 475 471 471 475 475 l 493 475 b 567 478 518 475 543 478 b 593 476 576 478 585 478 b 644 471 610 475 628 475 l 649 471 b 661 479 654 471 658 472 l 661 482 b 651 496 661 489 657 493 b 632 503 644 499 639 500 b 513 513 593 511 553 513 b 494 518 500 513 494 513 b 500 532 494 521 496 525 b 557 642 518 568 538 606 b 619 739 575 675 594 708 l 636 756 b 644 760 639 758 642 760 b 651 756 646 760 649 758 b 661 747 654 751 658 749 b 671 744 664 746 667 744 b 685 751 675 744 681 747 b 694 785 692 760 694 774 b 689 810 694 794 693 803 b 642 842 678 829 660 842 b 633 840 639 842 636 840 b 597 828 619 839 608 835 b 549 786 579 817 563 803 b 483 685 522 756 501 721 b 411 528 457 633 433 582 b 383 508 406 515 399 510 b 283 501 350 507 317 504 b 253 492 272 501 263 499 b 243 474 247 488 243 481 l 243 469 b 261 450 246 460 251 453 l 265 450 b 276 451 268 450 272 450 l 364 464 l 371 464 b 379 458 376 464 379 463 b 376 447 379 456 378 453 b 347 379 367 424 357 401 b 244 172 317 308 283 239 b 190 136 225 142 225 143 b 71 100 149 129 108 119 b 18 56 50 89 31 76 b 6 21 11 44 6 33 b 10 3 6 15 7 10 b 58 -24 19 -17 38 -22 l 68 -24 b 169 18 107 -21 139 -4 b 243 86 197 38 222 60 b 281 106 253 97 265 104 b 340 115 300 108 319 113 b 536 132 404 124 469 132 l 565 132 b 576 142 571 133 576 136 l 576 144 b 569 157 576 150 574 154 b 554 161 565 160 560 161 b 475 167 528 165 501 167 b 436 165 463 167 449 167 b 301 154 392 161 347 157 z m 171 82 l 175 82 b 81 11 150 50 119 25 b 63 8 75 10 68 8 l 58 8 b 47 14 54 8 50 8 b 46 17 47 15 46 15 b 54 29 46 21 51 26 b 76 47 60 36 68 43 b 144 76 97 61 121 69 b 171 82 153 79 161 82 z "},"":{"ha":353,"x_min":0,"x_max":0,"o":"m 81 619 b 64 606 69 619 64 614 l 64 600 b 74 582 65 593 68 588 b 107 540 86 569 96 554 b 118 518 115 529 118 525 b 108 496 118 514 115 507 b 69 383 88 461 71 425 b 58 367 69 375 65 371 b 14 326 42 356 26 342 b 1 307 8 321 3 314 l 1 301 b 8 289 1 296 3 292 b 13 288 10 289 11 288 b 22 299 18 288 19 293 b 65 344 31 321 47 333 b 72 347 68 347 69 347 b 79 342 75 347 76 346 b 128 315 92 322 108 315 b 146 317 133 315 140 315 b 189 333 161 319 175 326 b 200 338 194 336 199 338 b 211 326 204 338 206 335 b 239 283 221 313 229 299 b 247 272 242 279 244 276 b 256 269 250 271 253 269 b 260 271 257 269 258 269 b 264 278 263 272 264 275 l 264 281 b 258 296 263 286 261 292 b 235 344 250 313 243 328 b 231 357 232 350 231 354 b 239 371 231 361 233 365 b 253 386 243 376 249 381 b 289 471 274 411 289 439 b 286 492 289 478 288 485 l 286 496 b 300 513 286 507 290 508 b 332 524 311 517 322 519 b 339 532 336 525 339 528 b 331 539 339 536 335 539 b 319 538 326 539 322 539 b 281 528 306 535 293 531 b 271 526 276 526 274 526 b 263 536 265 526 263 529 b 264 543 263 538 264 540 b 265 554 265 547 265 550 b 254 579 265 564 261 572 b 221 594 246 589 233 594 b 193 586 211 594 203 592 b 150 551 176 578 164 564 b 142 544 146 547 143 544 b 133 553 139 544 138 547 b 106 601 124 569 114 585 b 81 619 101 613 93 619 z m 124 368 l 124 372 b 131 390 125 376 128 383 b 224 510 154 436 188 475 b 231 514 226 511 228 513 l 233 514 b 238 513 235 514 236 514 l 238 510 b 236 507 238 508 238 508 b 235 506 236 506 235 506 b 222 486 226 496 222 490 b 236 468 222 481 226 476 b 240 461 239 467 240 464 b 239 457 240 460 240 458 b 192 396 226 433 217 410 b 181 385 188 393 183 389 b 136 358 169 371 153 364 b 131 357 135 358 132 357 b 124 368 126 357 124 361 z "},"":{"ha":619,"x_min":0,"x_max":0,"o":"m 124 182 l 124 178 b 118 160 124 171 121 164 b 78 22 103 114 88 69 b 74 -12 76 11 74 -1 b 75 -28 74 -18 74 -22 b 85 -47 76 -35 79 -42 b 96 -51 88 -50 92 -51 b 101 -50 97 -51 100 -51 b 108 -36 107 -47 108 -42 b 107 -24 107 -32 107 -28 b 117 22 107 -7 113 8 b 176 183 132 78 154 131 b 197 200 181 194 188 199 b 214 201 203 201 208 201 l 242 201 b 271 200 251 201 261 201 b 276 199 272 200 275 199 b 285 206 281 199 283 201 b 286 210 285 207 286 208 b 275 221 286 215 281 218 b 257 225 269 222 264 224 b 208 229 242 229 225 229 b 200 235 203 229 200 231 b 201 239 200 236 200 238 b 217 274 207 251 213 263 b 235 285 221 282 226 285 b 281 289 250 288 265 289 b 319 283 294 289 307 288 b 325 282 321 283 324 282 b 332 288 328 282 331 283 b 333 292 333 289 333 290 b 328 301 333 296 331 300 b 311 308 322 304 317 307 b 263 314 296 314 279 314 b 240 319 247 314 240 314 b 249 338 240 322 243 328 b 453 653 304 450 372 556 b 535 739 478 683 501 715 b 574 772 549 749 561 761 b 597 799 583 779 590 788 b 603 817 601 804 603 811 b 599 832 603 822 601 826 b 567 850 590 844 581 850 b 535 840 556 850 544 846 b 461 782 507 825 483 804 b 338 626 414 736 372 683 b 317 604 332 618 325 610 b 168 501 268 568 218 533 b 78 454 139 483 110 465 b 60 449 72 453 65 449 b 51 451 57 449 54 449 b 47 463 49 456 47 458 b 50 479 47 468 49 475 b 83 563 58 508 71 536 b 214 763 121 633 165 700 b 225 778 218 767 222 772 b 231 800 229 785 231 792 b 213 836 231 813 225 825 b 183 849 203 844 193 849 b 157 838 175 849 165 844 b 126 803 144 828 135 815 b 15 568 79 729 42 651 b 0 478 7 539 0 508 b 53 417 0 439 21 417 b 82 422 61 417 71 418 b 129 446 99 429 114 438 b 276 547 181 478 228 514 b 289 556 282 551 285 556 l 292 556 b 293 551 293 554 293 553 b 290 546 293 550 292 547 b 182 318 251 471 215 394 b 161 303 178 308 171 304 b 107 290 143 299 125 296 b 49 268 86 286 67 281 b 35 247 42 264 35 257 l 35 243 b 57 219 38 231 46 222 b 64 218 60 219 63 218 b 82 232 74 218 79 224 b 104 253 85 244 93 250 b 144 267 118 257 131 263 b 151 268 147 268 149 268 b 160 265 154 268 157 268 b 144 229 154 254 150 242 b 131 221 142 224 136 222 b 82 208 114 217 97 214 b 63 197 75 206 68 203 b 54 179 57 192 54 185 b 63 160 54 172 57 165 b 78 153 67 156 72 153 b 92 161 83 153 89 156 b 124 182 99 174 110 178 z "},"":{"ha":493,"x_min":0,"x_max":0,"o":"m 203 486 b 219 463 203 475 210 465 l 224 463 b 240 474 231 463 236 465 b 265 526 249 492 256 510 b 374 693 297 585 336 639 b 464 806 401 732 433 769 b 474 829 471 813 474 821 b 461 857 474 839 469 849 b 436 868 454 864 444 868 b 411 858 428 868 419 865 b 388 829 401 850 394 840 b 265 626 344 764 303 696 b 208 503 243 586 222 546 b 203 486 206 496 204 490 z m 0 -18 b 14 -37 0 -29 6 -36 b 19 -39 15 -37 17 -39 b 32 -28 25 -39 29 -35 b 35 -21 33 -25 33 -22 b 169 294 71 88 118 192 b 179 319 174 303 178 311 b 156 353 179 335 171 349 b 147 354 153 354 150 354 b 122 338 136 354 128 349 l 114 321 b 74 210 101 285 88 247 b 3 -3 47 140 19 71 b 0 -18 1 -8 1 -14 z "},"":{"ha":679,"x_min":0,"x_max":0,"o":"m 374 281 b 243 250 329 272 286 263 b 97 188 192 236 142 218 b 15 97 64 164 33 135 b 1 51 7 82 1 68 b 3 40 1 47 3 44 b 67 -28 7 3 32 -18 b 117 -35 83 -33 100 -35 b 163 -31 132 -35 147 -33 b 426 121 268 -11 356 42 b 458 174 440 136 451 154 b 468 218 464 188 468 203 b 461 254 468 229 465 242 b 460 263 461 257 460 260 b 468 268 460 265 461 267 b 472 272 471 268 472 269 b 469 278 472 274 471 276 b 460 282 467 279 463 282 b 428 301 444 282 436 293 b 422 310 424 306 422 307 b 431 318 422 313 425 314 b 485 360 450 331 468 344 b 528 415 503 376 519 393 b 533 442 532 425 533 433 b 497 488 533 463 521 479 b 475 494 490 490 482 493 b 431 503 460 497 444 501 b 293 521 385 510 339 515 b 265 535 282 522 274 526 b 228 551 256 547 243 551 b 208 564 214 551 208 554 b 210 572 208 565 210 568 b 229 618 213 589 221 604 b 338 729 258 663 296 697 b 492 806 385 763 435 792 b 531 811 504 808 518 811 b 546 810 536 811 540 811 b 593 767 579 806 593 793 b 592 747 593 760 593 754 b 542 646 583 708 565 676 b 468 565 519 618 492 593 b 456 550 464 561 458 557 b 454 543 454 547 454 546 b 460 529 454 538 456 533 b 471 525 464 526 467 525 b 478 526 474 525 475 525 b 496 536 483 529 490 532 b 603 635 536 563 572 596 b 654 743 628 667 647 701 b 656 764 656 750 656 757 b 554 883 656 824 614 874 b 525 885 544 885 535 885 b 464 876 504 885 483 882 b 174 658 338 843 242 768 b 153 606 163 642 156 625 b 150 579 151 597 150 588 b 165 531 150 563 154 546 b 169 521 168 526 169 524 b 167 511 169 517 168 514 b 142 453 154 493 146 474 b 139 431 140 446 139 438 b 183 360 139 401 154 376 b 210 349 192 356 201 351 b 258 333 226 343 243 338 b 357 294 293 322 326 311 b 374 281 363 292 369 290 z m 115 0 l 92 0 b 57 7 81 0 68 3 b 35 39 42 13 35 24 b 49 86 35 57 40 71 b 115 158 67 114 90 138 b 294 244 168 201 229 226 b 379 264 322 253 351 260 l 388 264 b 411 242 401 264 408 258 l 411 231 b 406 199 411 219 410 210 b 371 143 396 178 385 160 b 149 6 311 72 238 26 b 115 0 138 3 126 1 z m 192 424 b 224 481 196 444 208 464 b 232 485 226 483 229 485 b 239 483 235 485 236 485 b 424 461 300 468 361 467 b 479 451 442 458 461 457 b 493 440 489 447 493 446 b 489 429 493 438 492 435 b 458 385 482 411 471 397 b 401 335 440 367 421 351 b 392 331 399 332 396 331 b 382 333 389 331 386 332 b 238 390 336 360 288 375 b 201 403 226 393 214 397 b 190 418 196 406 190 411 b 192 424 190 419 192 422 z "},"":{"ha":194,"x_min":0,"x_max":0,"o":"m 104 1008 l 104 1006 b 135 971 104 986 117 971 l 140 971 b 181 1017 158 974 181 999 b 164 1046 181 1029 175 1040 b 153 1049 160 1049 156 1049 b 138 1043 147 1049 142 1047 b 126 1038 133 1040 131 1038 b 104 1008 108 1035 106 1022 z m 0 1011 b 38 971 0 989 18 971 b 71 1003 56 971 71 985 l 71 1006 b 38 1042 71 1022 56 1042 l 33 1042 b 0 1011 10 1040 0 1033 z "},"":{"ha":903,"x_min":0,"x_max":0,"o":"m 232 0 b 272 3 247 0 260 0 b 425 50 326 10 376 28 b 661 208 513 92 590 146 b 843 450 739 276 803 354 b 879 611 865 501 879 556 b 871 681 879 633 876 657 b 700 856 849 772 794 833 b 578 868 660 865 618 868 b 504 865 553 868 529 868 b 482 864 497 864 489 864 b 464 867 475 864 469 864 b 429 875 451 872 440 875 b 386 867 415 875 400 871 b 297 815 354 854 325 836 b 131 631 229 765 176 701 b 17 365 79 549 38 461 b 6 268 10 333 6 300 b 25 150 6 228 11 189 b 111 33 42 103 68 61 b 232 0 149 8 190 0 z m 508 826 l 565 826 b 664 815 599 826 632 821 b 818 657 754 797 801 742 b 824 603 821 639 824 619 b 772 425 824 540 804 481 b 558 188 718 331 644 254 b 331 63 489 135 414 90 b 231 46 297 51 264 46 l 213 46 b 107 111 165 49 131 69 b 82 203 90 140 83 171 b 81 233 81 213 81 224 b 117 413 81 296 94 354 b 321 731 163 533 231 639 b 415 803 349 760 379 785 b 429 808 419 804 424 807 b 446 814 438 813 442 814 b 460 794 451 814 454 808 b 464 785 461 792 463 788 b 481 776 468 781 474 776 l 483 776 b 497 792 492 778 496 785 b 499 803 499 796 499 799 b 497 814 499 807 499 811 l 497 818 b 508 826 497 824 500 826 z m 179 260 l 179 224 b 246 153 183 186 203 157 b 258 151 250 151 254 151 b 289 156 268 151 279 154 b 543 283 382 179 468 222 b 551 290 546 286 549 288 b 556 301 554 294 556 297 b 554 307 556 303 556 306 b 540 315 551 313 546 315 l 536 315 b 521 308 531 315 525 311 b 340 215 467 267 406 238 b 276 200 319 208 299 203 b 264 199 272 200 268 199 b 243 229 247 199 243 206 l 243 236 b 253 299 243 258 247 279 b 324 467 268 357 294 413 b 458 643 360 532 403 592 b 533 692 481 663 506 682 b 543 694 538 693 540 694 b 551 679 549 694 551 689 b 549 667 551 675 550 671 b 524 600 544 643 535 621 b 467 510 507 569 486 539 b 440 472 457 497 449 485 b 435 460 438 468 435 464 b 450 442 435 451 440 446 b 460 440 453 440 457 440 b 478 444 467 440 472 442 b 510 468 490 450 501 458 b 601 613 551 508 579 558 b 617 685 611 636 615 660 l 617 688 b 533 768 617 731 579 768 b 521 767 529 768 525 767 b 449 740 494 764 471 754 b 356 661 414 718 383 692 b 213 413 292 588 246 503 b 179 260 194 364 179 313 z "},"":{"ha":274,"x_min":0,"x_max":0,"o":"m 171 794 b 167 803 167 797 167 800 b 114 843 158 828 139 843 b 96 840 108 843 103 842 b 49 810 78 835 61 824 b 1 682 18 774 3 729 l 1 676 b 7 651 1 668 4 660 b 39 629 13 638 25 629 b 53 632 43 629 47 631 b 74 643 61 633 67 638 b 133 697 94 660 114 678 b 143 704 135 700 138 704 b 138 686 140 697 139 692 b 125 624 131 665 125 646 l 125 618 b 129 599 125 613 125 606 b 144 590 132 594 138 590 b 157 601 151 590 154 596 b 165 629 160 611 161 621 b 239 786 183 685 208 736 b 254 815 244 796 250 804 b 256 825 256 818 256 822 b 236 854 256 838 249 849 b 224 857 232 857 228 857 b 200 843 214 857 207 853 b 189 821 196 836 192 828 b 171 794 183 811 178 801 z m 140 754 b 136 749 139 753 138 750 b 65 675 115 722 92 697 b 60 671 64 674 63 672 b 54 668 58 669 56 668 b 51 669 53 668 53 668 b 50 674 50 671 50 672 l 50 678 b 53 683 51 681 51 682 b 107 771 64 717 82 746 b 118 779 111 776 114 779 b 128 768 121 779 124 775 b 140 754 132 764 138 761 z "},"":{"ha":501,"x_min":0,"x_max":0,"o":"m 225 615 b 189 603 211 615 200 611 b 50 500 142 571 94 536 b 25 474 42 492 33 483 b 6 421 13 456 6 439 b 24 369 6 404 13 386 b 51 335 33 358 42 346 b 122 263 74 308 94 283 b 140 250 128 258 133 254 b 150 247 144 249 147 247 b 160 253 154 247 157 249 b 163 261 163 256 163 258 b 157 272 163 265 160 269 b 154 276 156 274 156 275 b 89 361 128 301 107 331 b 75 399 79 376 75 388 b 100 442 75 413 83 426 l 103 444 b 194 511 131 469 161 492 b 249 542 213 522 231 532 b 268 571 261 547 268 557 l 268 574 b 225 615 268 594 247 615 z m 443 615 b 407 603 429 615 418 611 b 268 500 360 571 313 536 b 243 474 260 492 251 483 b 224 421 231 456 224 439 b 242 369 224 404 231 386 b 269 335 251 358 260 346 b 340 263 292 308 313 283 b 358 250 346 258 351 254 b 368 247 363 249 365 247 b 378 253 372 247 375 249 b 381 261 381 256 381 258 b 375 272 381 265 378 269 b 372 276 374 274 374 275 b 307 361 346 301 325 331 b 293 399 297 376 293 388 b 318 442 293 413 301 426 l 321 444 b 413 511 349 469 379 492 b 467 542 431 522 449 532 b 486 571 479 547 486 557 l 486 574 b 443 615 486 594 465 615 z "},"":{"ha":478,"x_min":0,"x_max":0,"o":"m 67 436 l 350 436 b 393 432 365 436 379 435 b 406 425 401 431 406 429 b 403 415 406 422 404 419 b 372 353 396 393 383 374 b 365 340 369 349 367 344 b 364 333 364 338 364 336 b 372 319 364 328 367 322 b 379 318 375 318 376 318 b 390 324 383 318 388 319 b 454 421 417 353 440 383 b 457 438 456 426 457 432 b 421 479 457 457 443 474 b 407 481 417 481 411 481 b 379 479 397 481 389 479 b 321 478 360 479 340 478 b 128 483 257 478 192 481 b 43 482 100 483 72 483 b 14 474 33 481 24 479 b 3 457 7 469 3 463 b 7 444 3 453 4 449 b 31 431 11 436 21 431 b 40 432 35 431 38 431 b 67 436 49 436 58 436 z "},"":{"ha":626,"x_min":0,"x_max":0,"o":"m 1 679 l 1 671 b 24 581 1 642 7 611 b 119 522 44 543 76 524 b 185 532 142 522 164 525 b 342 606 239 551 292 576 b 390 626 357 614 372 622 b 429 640 404 628 417 633 b 576 790 496 672 543 724 b 607 913 596 829 607 869 b 606 942 607 922 607 932 b 469 1099 597 1018 544 1078 b 407 1107 449 1104 428 1107 b 300 1085 371 1107 335 1099 b 54 872 193 1044 110 974 b 1 679 21 815 1 753 z m 192 754 b 306 621 219 669 233 653 l 306 619 b 303 615 306 618 304 617 b 171 563 260 594 217 575 b 125 556 156 558 142 556 b 106 557 118 556 113 556 b 63 589 86 561 72 571 b 47 660 51 613 47 636 b 49 688 47 669 47 678 b 160 919 58 778 100 854 b 276 1014 194 957 232 989 b 418 1056 321 1039 367 1056 l 425 1056 b 525 1014 464 1054 499 1043 b 560 936 546 992 557 965 b 561 913 560 928 561 919 b 465 707 561 831 528 763 b 451 699 461 703 457 699 b 442 704 449 699 446 700 b 436 707 440 706 439 707 b 425 700 432 707 428 703 b 397 674 415 690 407 682 b 339 653 381 660 360 653 b 268 681 313 653 286 663 b 239 731 254 696 244 711 b 236 743 238 736 236 740 b 251 751 236 749 240 750 b 368 790 293 756 332 771 b 426 836 390 803 410 818 b 450 874 438 847 444 860 b 456 900 453 882 456 890 b 385 965 456 935 426 965 l 375 965 b 297 928 346 961 321 946 b 288 919 294 925 292 922 b 285 918 288 918 286 918 b 278 932 278 921 279 928 b 244 963 272 949 261 958 b 235 964 242 964 238 964 b 204 946 224 964 213 957 b 161 875 186 925 174 900 b 90 664 128 808 103 738 b 89 639 89 656 89 647 l 89 628 b 101 610 90 619 93 613 l 104 610 b 118 622 113 610 115 615 b 156 694 131 646 143 671 b 192 754 165 715 178 735 z m 215 789 b 336 907 253 835 289 876 b 374 922 347 914 360 919 b 386 925 378 924 382 925 b 394 924 389 925 392 924 b 410 910 404 922 410 917 b 408 901 410 907 410 904 b 392 872 406 890 400 881 b 215 789 343 825 289 793 z "},"":{"ha":219,"x_min":0,"x_max":0,"o":"m 85 1035 b 31 1033 67 1035 49 1035 b 6 1010 15 1033 6 1022 b 10 996 6 1006 7 1000 b 38 978 15 985 25 978 b 47 979 40 978 44 978 b 188 996 93 989 140 994 b 204 1006 194 996 203 996 l 204 1008 b 193 1022 204 1015 199 1019 b 161 1031 182 1026 172 1029 b 85 1035 136 1035 110 1033 z "},"":{"ha":157,"x_min":0,"x_max":0,"o":"m 56 951 b 128 988 82 951 111 967 b 139 1017 135 997 139 1007 b 125 1050 139 1029 133 1040 b 86 1069 114 1061 101 1069 l 79 1069 b 35 1058 64 1069 49 1063 b 29 1053 32 1057 31 1056 b 7 1011 19 1040 11 1028 b 6 1000 6 1007 6 1003 b 56 951 6 972 26 951 z m 79 1044 b 104 1026 96 1040 104 1035 b 96 1008 104 1021 101 1015 b 61 983 86 996 75 988 b 53 982 58 983 56 982 b 47 985 51 982 49 983 b 46 988 47 986 46 986 b 51 996 46 990 49 993 b 65 1011 56 1001 60 1007 b 81 1038 75 1017 81 1025 b 79 1044 81 1039 79 1042 z "},"":{"ha":564,"x_min":0,"x_max":0,"o":"m 347 436 l 347 433 b 342 417 347 426 343 422 b 274 257 318 364 294 311 b 265 231 271 249 268 240 b 264 224 265 228 264 226 b 274 210 264 217 268 213 b 279 208 275 210 278 208 b 293 219 286 208 290 213 b 304 240 297 226 301 233 b 403 428 335 304 369 365 b 428 444 408 438 415 443 b 453 446 436 446 444 446 b 526 436 478 446 501 443 l 533 436 b 546 443 539 436 543 438 b 547 450 547 446 547 447 b 539 465 547 456 544 461 b 525 472 535 468 531 469 b 476 485 510 478 493 482 b 444 489 465 486 454 488 l 444 492 b 447 499 444 494 446 496 b 474 540 456 513 465 525 b 481 568 478 549 481 558 l 481 572 b 456 601 478 586 469 596 b 447 603 453 603 450 603 b 424 592 438 603 431 599 b 407 567 417 583 411 576 b 379 501 397 546 388 524 b 358 488 375 492 369 488 l 347 488 b 301 485 332 488 317 486 b 217 474 274 482 244 479 b 185 460 206 471 194 467 b 168 431 174 453 168 442 b 181 404 168 421 172 413 b 197 396 186 399 192 396 b 214 403 203 396 208 399 b 224 408 217 404 219 407 b 347 436 263 425 304 432 z m 0 83 b 26 53 0 65 13 53 b 38 56 29 53 33 54 b 151 93 74 74 113 83 b 358 125 219 110 288 125 l 365 125 b 382 138 372 126 379 129 l 382 140 b 371 158 382 147 378 154 b 347 163 363 163 356 163 b 254 160 317 163 285 163 b 42 118 182 151 111 138 b 14 106 32 115 22 113 b 0 83 4 100 0 92 z "},"":{"ha":214,"x_min":0,"x_max":0,"o":"m 63 658 b 76 669 65 665 71 667 b 161 731 106 688 135 707 b 193 776 176 743 189 757 b 194 790 194 781 194 786 b 164 832 194 810 183 826 b 133 836 154 835 143 836 l 122 836 b 50 803 94 835 71 822 b 38 781 42 796 38 789 b 39 771 38 776 38 774 b 74 744 44 757 60 744 b 99 767 86 746 93 751 b 125 785 103 779 111 785 l 133 785 b 97 747 124 769 110 758 b 15 679 69 724 40 704 b 3 656 8 672 3 665 b 4 649 3 654 3 651 b 33 629 8 635 21 631 b 46 628 38 628 42 628 l 149 628 b 156 633 151 628 154 629 l 156 636 b 149 646 156 640 153 643 b 135 650 144 647 140 650 b 85 656 118 653 101 656 l 76 656 b 63 658 71 656 67 656 z "},"":{"ha":172,"x_min":0,"x_max":0,"o":"m 96 799 l 81 783 b 28 729 64 765 44 749 b 18 704 21 721 18 713 b 36 676 18 694 24 685 b 61 661 43 671 51 667 b 67 654 65 660 67 657 b 63 647 67 653 65 650 b 38 621 56 638 46 629 b 7 593 26 613 17 603 b 1 582 4 590 1 586 b 4 575 1 579 3 578 b 15 568 8 571 11 568 b 24 571 18 568 21 569 b 100 626 51 585 79 601 b 110 649 107 633 110 642 b 94 676 110 658 104 668 b 71 692 88 682 79 688 b 60 703 63 697 60 700 b 69 714 60 706 63 708 b 121 756 88 726 104 740 b 144 785 131 764 139 774 b 150 806 149 792 150 799 b 119 842 150 822 139 836 b 93 844 111 843 101 844 b 54 839 81 844 67 842 b 26 822 43 835 33 831 b 15 794 18 815 15 806 b 17 783 15 792 15 788 b 35 771 19 776 28 771 b 47 778 40 771 44 774 b 96 799 58 796 76 799 z "},"":{"ha":192,"x_min":0,"x_max":0,"o":"m 42 960 b 68 971 51 961 60 965 b 126 1014 88 986 107 1000 b 167 1046 140 1025 154 1035 b 175 1061 172 1051 175 1057 b 172 1071 175 1065 175 1068 b 156 1079 168 1076 163 1079 b 146 1078 153 1079 149 1079 b 135 1072 143 1076 139 1074 b 78 1040 115 1061 96 1051 b 24 1015 60 1031 42 1022 b 6 992 11 1010 6 1000 b 14 972 6 985 8 978 b 42 960 21 965 31 961 z "},"":{"ha":444,"x_min":0,"x_max":0,"o":"m 78 492 b 43 488 72 492 61 490 b -26 469 25 485 1 479 b -74 451 -42 464 -58 458 b -221 381 -124 432 -172 408 b -226 376 -222 379 -225 378 b -250 357 -236 372 -243 365 b -261 333 -257 350 -261 343 b -260 324 -261 331 -261 326 l -257 319 b -228 297 -250 304 -240 297 b -217 299 -224 297 -221 297 b -204 308 -212 300 -208 304 b -179 329 -196 317 -187 324 b -65 394 -142 354 -104 376 b 1 425 -44 406 -22 415 b 6 426 3 426 4 426 b -36 324 -12 394 -26 361 b -39 293 -37 314 -39 303 b -35 263 -39 283 -37 272 b 15 226 -22 239 -6 226 b 38 231 22 226 31 228 b 72 254 51 236 63 244 l 135 308 l 157 328 b 178 346 164 333 171 339 l 179 346 b 181 344 179 344 179 344 b 175 328 178 339 176 333 b 169 283 171 313 169 299 l 169 274 b 215 228 176 243 192 228 b 243 235 224 228 233 231 b 274 257 254 242 264 249 b 308 289 285 267 296 278 b 451 410 354 332 401 372 l 453 411 b 456 414 454 413 454 413 b 457 415 457 414 457 414 b 456 418 457 417 457 417 b 451 421 454 419 453 421 b 449 421 450 421 450 421 b 447 418 447 419 447 419 l 446 418 b 433 411 442 417 438 414 b 374 365 413 397 393 382 b 340 339 363 357 351 349 b 261 279 315 318 289 297 b 228 260 251 271 240 264 b 218 258 224 258 221 258 b 213 264 214 258 213 260 b 214 272 213 267 213 269 b 232 326 218 290 224 308 b 286 421 247 360 265 392 b 289 425 288 422 288 424 b 294 439 292 429 293 435 b 296 447 296 442 296 444 b 282 471 296 457 292 464 b 268 475 278 474 272 475 b 251 467 263 475 257 472 b 240 454 249 463 244 458 b 211 422 232 443 222 432 b 182 396 201 413 192 404 b 121 340 161 376 142 358 b 111 331 117 338 114 335 b 54 286 93 314 74 299 l 51 283 b 46 279 50 282 47 281 b 40 278 44 278 42 278 b 36 279 39 278 38 278 b 33 283 35 281 33 282 b 35 288 33 285 33 286 b 38 292 36 289 36 290 b 40 296 39 293 39 294 b 118 418 63 339 89 381 b 128 444 125 426 128 435 b 126 457 128 449 128 453 b 108 482 122 467 117 475 b 78 492 99 489 89 492 z "},"":{"ha":1075,"x_min":0,"x_max":0,"o":"m 753 860 b 510 818 668 858 588 843 b 183 631 388 778 279 715 b 43 463 128 582 79 528 b 7 361 25 431 13 397 b 6 344 6 356 6 350 b 78 235 6 297 33 254 b 151 218 101 224 126 218 l 201 218 b 278 221 228 218 253 218 b 301 222 285 222 293 222 b 311 215 308 222 311 219 b 310 211 311 214 311 213 b 307 200 308 207 308 204 b 282 96 297 165 288 131 b 278 61 281 85 278 72 b 281 42 278 54 279 49 b 292 21 282 33 285 26 b 300 18 294 19 297 18 b 307 21 303 18 306 19 b 313 28 311 22 313 25 b 311 33 313 29 313 32 b 308 51 310 39 308 46 b 314 85 308 63 311 74 b 350 204 322 126 338 164 b 382 229 356 221 365 228 b 481 238 415 231 449 235 l 490 238 b 497 233 496 238 497 238 b 494 219 497 231 496 226 b 454 67 478 169 464 118 b 449 15 451 50 449 32 l 449 4 b 458 -19 449 -6 451 -14 b 469 -24 463 -22 465 -24 b 479 -21 472 -24 476 -22 b 483 -12 482 -18 483 -15 b 482 -4 483 -10 483 -7 b 479 7 481 -1 479 3 b 481 15 479 10 481 13 b 489 54 483 28 485 42 b 544 224 503 113 522 168 b 576 247 550 240 558 247 b 631 253 594 249 613 250 b 643 264 636 253 643 256 b 629 274 642 271 636 274 l 610 274 b 576 271 599 272 588 272 b 569 276 572 271 569 272 l 569 279 b 596 303 571 294 581 303 l 611 303 b 718 325 649 303 683 311 b 943 453 800 357 874 400 b 1031 546 976 479 1008 508 b 1058 640 1049 575 1058 607 l 1058 651 b 1001 776 1056 700 1036 742 b 889 840 969 808 931 828 b 753 860 843 854 797 858 z m 599 335 b 601 343 600 339 601 342 b 715 518 638 403 674 463 b 729 529 719 524 724 529 b 738 526 732 529 735 528 b 742 525 739 526 740 525 b 751 532 746 525 749 529 b 772 560 758 542 767 550 b 778 581 776 567 778 574 b 769 603 778 588 775 596 b 739 621 761 614 750 621 b 726 618 735 621 731 619 b 675 582 706 613 690 597 b 539 349 615 513 571 435 b 514 279 531 325 522 303 b 496 264 511 271 506 265 b 392 257 461 263 426 260 l 379 257 b 374 263 375 257 374 258 l 374 265 b 376 272 375 267 375 269 b 482 471 403 343 438 410 b 550 561 504 501 528 532 b 568 574 554 567 560 574 l 575 574 b 586 579 579 574 583 576 b 600 614 594 588 600 600 b 594 635 600 621 599 629 b 554 658 585 650 571 658 b 539 656 550 658 544 657 b 486 615 518 647 501 632 b 393 451 443 567 415 511 b 329 272 371 392 350 332 b 303 253 322 253 322 253 b 253 250 286 253 269 251 l 232 250 b 131 257 199 250 165 253 b 89 272 115 258 101 264 b 63 315 72 282 64 296 l 63 328 b 69 371 63 343 64 357 b 142 478 86 413 111 447 b 613 756 272 617 428 710 b 771 776 665 769 717 776 l 785 776 b 897 758 822 776 861 771 b 946 735 915 753 932 746 b 996 643 981 711 996 679 b 993 617 996 635 994 625 b 931 499 986 569 960 533 b 810 404 897 460 856 431 b 657 339 761 376 711 353 b 615 333 643 336 629 333 b 599 335 610 333 604 333 z "},"":{"ha":125,"x_min":0,"x_max":0,"o":"m 57 471 b 6 433 31 471 10 456 b 1 397 3 422 4 410 l 1 394 b 13 378 1 388 7 382 b 38 369 19 374 29 369 l 42 369 b 99 407 67 374 86 386 b 106 428 103 414 106 421 b 85 463 106 442 97 454 b 57 471 76 468 67 471 z "},"":{"ha":208,"x_min":0,"x_max":0,"o":"m 36 -176 l 39 -176 b 63 -169 47 -176 56 -174 b 111 -129 82 -160 97 -146 b 165 -51 131 -104 149 -78 b 190 -3 176 -36 185 -19 b 192 6 190 0 192 3 b 167 38 192 21 181 33 b 158 39 164 39 161 39 b 133 15 146 39 138 31 b 124 -24 129 3 126 -10 b 100 -47 121 -37 114 -44 b 26 -86 72 -51 47 -65 b 1 -140 13 -100 1 -118 l 1 -144 b 36 -176 1 -165 14 -176 z m 21 -143 l 21 -137 b 25 -125 21 -136 22 -131 b 99 -65 40 -94 68 -76 b 104 -64 101 -64 103 -64 b 110 -69 107 -64 110 -65 b 108 -74 110 -71 108 -72 b 60 -146 99 -101 86 -128 b 35 -156 53 -150 44 -156 l 31 -156 b 21 -143 24 -156 21 -153 z "},"":{"ha":158,"x_min":0,"x_max":0,"o":"m 0 606 b 17 579 0 590 6 581 l 19 579 b 35 597 26 579 31 585 b 128 772 57 661 88 719 b 136 783 131 775 133 779 b 140 800 139 789 140 794 b 121 832 140 813 133 826 b 106 836 115 835 110 836 b 76 815 94 836 85 829 b 75 813 76 814 76 814 b 18 678 57 767 35 724 b 0 606 10 654 3 629 z "},"":{"ha":208,"x_min":0,"x_max":0,"o":"m 194 743 b 178 794 193 763 189 779 b 119 826 164 815 142 826 b 69 804 101 826 83 819 b 36 756 56 789 46 772 b 7 672 22 729 11 701 b 6 660 7 668 6 664 b 58 606 6 628 28 606 b 71 607 63 606 67 607 b 103 617 82 608 93 613 b 186 710 142 638 169 669 b 194 743 192 721 194 732 z m 151 754 b 86 650 146 711 128 674 b 72 644 82 647 78 646 b 60 642 68 643 64 642 b 53 644 57 642 54 642 b 50 654 50 647 50 651 b 51 665 50 658 50 661 b 103 753 63 699 82 726 b 131 779 111 763 118 774 b 142 782 135 781 139 782 b 150 768 146 782 149 778 b 151 754 151 765 151 761 z "},"":{"ha":501,"x_min":0,"x_max":0,"o":"m 263 247 b 297 260 275 247 288 253 b 436 364 346 293 392 326 b 461 390 446 371 454 381 b 481 442 475 407 481 425 b 463 493 481 458 475 476 b 435 529 454 506 444 517 b 365 600 414 554 392 581 b 347 613 360 606 353 610 b 336 617 344 615 340 617 b 326 611 333 617 329 615 b 325 604 325 608 325 607 b 329 592 325 600 326 596 l 333 588 b 399 501 360 561 379 532 b 413 464 407 488 413 475 b 388 422 413 450 404 438 b 385 419 386 421 386 419 b 292 351 356 393 325 371 b 238 321 274 342 256 331 b 218 293 226 315 219 306 b 263 247 218 269 239 247 z m 44 247 b 79 260 57 247 69 253 b 218 364 128 293 174 326 b 243 390 228 371 236 381 b 263 442 257 407 263 425 b 244 493 263 458 257 476 b 217 529 236 506 226 517 b 147 600 196 554 174 581 b 129 613 142 606 135 610 b 118 617 126 615 122 617 b 108 611 115 617 111 615 b 107 604 107 608 107 607 b 111 592 107 600 108 596 l 115 588 b 181 501 142 561 161 532 b 194 464 189 488 194 475 b 169 422 194 450 186 438 b 167 419 168 421 168 419 b 74 351 138 393 107 371 b 19 321 56 342 38 331 b 0 293 8 315 1 306 b 44 247 0 269 21 247 z "},"":{"ha":600,"x_min":0,"x_max":0,"o":"m 342 619 b 336 606 342 613 338 610 b 267 500 311 571 289 536 b 114 231 214 411 163 321 b 33 71 86 178 58 125 b 6 -1 24 47 13 24 b 1 -26 3 -10 1 -17 l 1 -32 b 18 -57 3 -42 7 -51 b 25 -58 21 -58 22 -58 b 39 -44 32 -58 39 -53 b 61 22 39 -21 51 1 b 264 375 121 144 190 261 b 547 758 350 508 447 633 b 567 783 554 767 561 775 b 572 800 571 789 572 794 b 564 818 572 807 569 813 b 546 826 558 824 551 826 b 531 822 540 826 536 825 b 503 801 521 815 511 808 b 436 733 479 781 457 757 b 400 693 424 719 414 704 b 286 607 363 663 325 633 b 186 547 254 585 221 564 b 146 535 174 542 160 536 l 142 535 b 131 543 135 535 131 538 b 132 550 131 546 132 547 b 147 589 135 564 140 576 b 249 732 176 640 211 688 b 261 740 253 736 256 739 b 288 776 278 747 288 761 b 276 804 288 786 283 796 b 239 822 267 817 253 822 b 208 813 228 822 218 819 b 181 785 197 806 189 796 b 104 649 149 743 124 697 b 83 578 94 625 88 603 b 82 564 83 574 82 568 b 86 540 82 556 83 549 b 135 503 93 515 110 503 b 182 517 153 503 167 510 b 272 571 214 532 244 551 b 342 619 296 586 318 603 z m 356 183 b 357 179 356 182 357 181 b 353 168 357 175 354 171 b 329 117 344 150 336 133 b 294 24 315 86 303 56 b 290 -1 292 15 290 7 l 290 -10 b 313 -36 292 -24 301 -33 l 315 -36 b 332 -21 325 -36 332 -31 l 332 -17 b 349 36 332 3 340 19 b 554 368 404 154 471 267 b 576 397 563 378 571 388 b 583 415 581 404 583 410 b 575 436 583 422 581 429 b 544 451 567 446 556 451 b 524 444 538 451 531 449 b 503 428 517 440 508 435 b 468 388 490 415 479 401 b 390 246 436 343 414 294 b 365 222 385 235 376 228 b 336 215 356 217 346 215 b 314 218 329 215 321 217 b 297 226 303 221 297 222 b 307 240 297 231 301 235 b 401 332 338 271 369 301 b 411 340 404 336 407 339 b 438 368 426 343 432 354 b 440 381 439 372 440 376 b 429 401 440 389 436 394 b 411 410 424 407 417 410 b 394 404 406 410 400 407 b 382 394 390 401 386 397 b 243 253 332 351 289 301 b 236 243 240 250 238 246 b 231 224 232 236 231 231 b 240 201 231 215 233 208 b 265 186 247 194 256 189 b 313 181 282 183 297 181 b 343 183 324 181 333 182 b 351 185 346 183 349 185 b 356 183 353 185 354 185 z "},"":{"ha":632,"x_min":0,"x_max":0,"o":"m 208 571 l 204 571 b 226 618 207 589 218 603 b 307 731 251 657 279 693 b 356 801 325 754 342 776 b 363 822 360 808 363 817 b 350 847 363 832 358 840 b 329 856 343 853 336 856 b 304 844 321 856 313 851 b 286 826 297 839 292 833 b 208 711 254 792 231 753 b 164 599 189 676 171 639 b 163 585 164 594 163 589 b 164 571 163 581 164 576 b 196 542 169 553 181 542 b 213 546 201 542 207 543 b 232 556 219 549 226 551 b 301 604 256 571 279 588 b 435 700 344 636 389 669 b 451 710 439 703 444 708 b 443 696 450 703 446 700 b 394 636 426 676 410 657 b 53 117 269 469 157 296 b 7 22 36 86 19 56 b 1 -8 4 13 1 3 l 1 -15 b 18 -33 3 -25 8 -32 l 21 -33 b 36 -19 29 -33 33 -29 b 79 67 46 13 63 39 b 331 439 157 196 242 319 b 549 708 400 532 475 619 b 600 775 567 731 583 753 b 615 806 607 785 614 794 b 617 813 615 808 617 810 b 604 833 617 821 613 828 b 594 836 601 836 597 836 b 579 831 589 836 585 833 b 569 825 576 829 574 826 b 293 619 478 756 385 688 b 226 576 272 603 250 588 b 208 571 222 574 215 571 z m 428 363 b 394 318 419 344 407 332 b 210 129 335 254 272 192 b 199 111 204 124 199 118 b 201 103 199 108 200 106 b 228 86 206 92 215 88 b 254 92 236 86 246 89 b 367 117 290 103 328 111 b 453 126 396 121 425 126 b 500 121 469 126 485 125 l 504 121 b 515 128 510 121 513 122 b 517 133 517 129 517 132 b 511 144 517 138 514 142 b 482 158 503 151 493 156 b 422 165 463 164 442 165 b 386 164 410 165 397 165 b 360 161 378 163 368 161 b 339 158 353 161 346 158 b 332 160 336 158 335 160 b 346 172 336 167 342 169 b 454 274 385 203 422 236 b 496 342 471 294 486 315 b 500 367 499 350 500 358 b 446 422 500 397 478 422 l 440 422 b 358 383 408 419 381 407 b 339 353 349 375 342 365 b 338 338 338 347 338 343 b 342 317 338 331 339 324 b 358 307 346 311 351 307 b 371 318 365 307 368 313 b 428 363 382 344 406 353 z "},"":{"ha":717,"x_min":0,"x_max":0,"o":"m 222 682 b 235 694 224 689 231 690 b 297 742 257 708 278 725 b 326 772 308 750 318 760 b 336 804 333 783 336 793 b 288 856 336 829 318 850 b 264 857 279 857 272 857 b 179 832 235 857 206 849 b 138 774 158 818 143 800 b 136 763 136 769 136 767 b 146 738 136 754 139 746 b 161 729 150 732 157 729 b 176 739 168 729 172 732 b 235 783 189 764 213 772 b 242 786 236 785 239 786 b 246 785 243 786 244 786 b 243 781 244 783 244 782 b 192 735 226 765 210 750 b 147 692 176 721 161 708 b 139 668 142 685 139 676 b 165 636 139 654 149 642 b 175 635 169 636 172 635 l 217 631 b 271 617 236 629 254 626 b 285 606 281 613 285 610 b 276 592 285 601 282 597 b 233 557 264 578 249 567 b 93 469 188 526 140 499 b 78 460 88 467 82 463 b 71 449 74 457 71 453 b 72 443 71 447 71 444 b 86 433 75 438 79 433 l 92 433 b 106 436 96 433 100 435 b 286 533 169 461 232 492 b 321 568 300 543 313 554 b 342 589 326 576 332 583 b 421 636 368 604 394 621 b 435 643 425 639 429 642 b 364 556 411 614 388 586 b 119 190 276 439 196 315 b 15 4 82 131 46 68 b 3 -33 10 -8 6 -21 b 1 -43 1 -36 1 -40 b 6 -58 1 -49 3 -53 b 18 -65 8 -62 14 -65 l 21 -65 b 31 -54 28 -64 31 -60 b 56 3 35 -32 46 -15 b 272 335 121 118 194 228 b 563 674 360 456 460 567 b 692 807 606 719 647 764 b 700 825 697 813 700 819 b 696 839 700 831 699 835 b 679 847 692 844 686 847 b 665 844 675 847 671 847 b 628 821 651 839 639 831 b 504 714 583 789 543 753 b 482 694 497 707 490 700 b 350 608 439 665 396 635 b 333 600 346 606 340 600 b 278 661 318 636 310 646 b 232 676 263 668 247 674 b 222 682 229 678 225 678 z m 417 204 b 404 175 414 190 408 183 b 357 39 385 131 365 86 b 356 22 356 33 356 28 l 356 15 b 368 1 357 8 360 3 l 371 1 b 382 13 376 1 379 7 b 383 18 383 14 383 15 b 425 122 393 54 408 89 b 557 343 464 199 507 274 b 600 408 572 364 588 386 b 607 422 603 413 606 417 b 608 432 608 425 608 429 b 592 461 608 443 603 454 b 579 465 588 464 583 465 b 557 453 571 465 564 461 b 540 431 550 446 546 438 b 469 303 513 390 490 346 b 404 228 453 272 431 249 b 331 201 382 210 357 201 b 293 207 318 201 306 203 b 299 215 293 213 296 214 b 390 286 329 239 360 264 b 449 329 408 301 426 318 b 465 354 460 336 465 344 b 461 369 465 360 464 364 b 435 386 456 381 444 386 b 419 382 429 386 424 385 b 400 368 413 378 407 374 b 286 268 363 335 324 301 b 236 221 269 253 251 238 b 226 199 229 214 226 206 b 244 172 226 188 232 178 b 263 167 250 169 256 167 b 349 172 292 167 321 167 b 417 204 372 178 393 189 z "},"":{"ha":574,"x_min":0,"x_max":0,"o":"m 178 -383 b 315 -358 231 -383 274 -374 b 464 -258 372 -336 424 -304 b 501 -183 483 -236 497 -212 l 501 -174 b 450 -97 501 -136 475 -108 b 438 -94 446 -96 442 -94 b 426 -100 433 -94 431 -96 b 422 -110 422 -103 422 -106 b 426 -124 422 -114 424 -119 b 429 -128 426 -125 428 -126 b 435 -143 433 -133 435 -137 b 429 -160 435 -149 433 -154 b 392 -207 419 -178 407 -193 b 206 -299 338 -253 275 -283 b 158 -304 190 -301 175 -304 l 149 -304 b 93 -290 129 -303 110 -300 b 82 -276 86 -286 82 -282 b 86 -267 82 -274 83 -271 b 101 -244 90 -258 96 -251 b 156 -189 118 -224 136 -206 b 292 -62 201 -147 247 -106 b 438 110 347 -11 394 49 b 500 219 461 144 485 181 b 510 269 506 235 510 251 l 510 276 b 490 321 508 293 503 308 b 474 328 485 325 479 328 b 465 325 471 328 468 326 b 458 311 460 321 458 317 b 461 301 458 308 460 304 b 465 285 464 296 465 290 b 460 263 465 276 463 269 b 443 229 454 251 449 239 b 315 72 408 169 364 119 b 79 -139 240 -1 157 -68 b 17 -218 54 -161 31 -186 b 7 -264 10 -233 7 -249 b 29 -326 7 -285 14 -307 b 92 -368 46 -347 68 -360 b 178 -383 122 -379 154 -383 z m 443 385 b 467 388 450 385 458 386 b 540 426 494 394 519 407 b 553 454 549 435 553 444 b 536 485 553 465 547 478 b 519 490 531 489 524 490 b 499 469 507 490 499 482 b 478 439 497 454 489 446 b 418 418 460 426 440 418 l 408 418 b 396 410 403 418 397 417 l 396 406 b 408 392 396 399 401 394 b 443 385 418 386 431 385 z "},"":{"ha":1458,"x_min":0,"x_max":0,"o":"m 696 240 b 694 246 696 242 694 244 b 701 260 694 251 699 256 b 753 360 718 293 736 326 b 822 529 779 415 804 471 b 846 660 836 571 846 615 l 846 675 b 729 815 842 746 804 800 b 686 819 715 818 701 819 b 638 815 671 819 654 818 b 432 744 565 804 497 778 b 131 501 315 682 215 601 b 28 344 90 453 54 401 b 0 231 13 308 0 271 b 89 117 0 171 32 131 b 150 110 108 113 129 110 b 178 111 160 110 168 110 b 303 126 221 114 263 119 b 575 181 394 142 485 163 b 588 183 578 182 583 183 b 593 181 589 183 592 183 b 594 176 594 179 594 178 b 588 164 594 172 590 168 b 492 -14 556 104 524 46 b 417 -169 464 -65 438 -115 b 401 -224 410 -186 403 -204 l 401 -231 b 433 -262 401 -249 415 -262 b 447 -260 438 -262 442 -261 b 478 -240 460 -256 469 -249 b 515 -203 490 -228 504 -215 b 638 -53 560 -156 599 -104 b 835 210 704 35 769 122 b 865 228 843 221 851 228 b 903 233 878 229 890 232 b 1140 257 982 243 1061 253 l 1147 257 b 1156 246 1154 257 1154 256 b 1163 193 1158 228 1160 211 b 1260 -81 1176 96 1208 4 b 1306 -140 1274 -101 1288 -122 b 1332 -154 1313 -147 1321 -153 b 1350 -140 1343 -154 1350 -150 b 1349 -133 1350 -139 1350 -136 b 1338 -111 1346 -125 1342 -118 b 1238 199 1282 -14 1250 89 b 1235 246 1236 214 1235 229 l 1235 250 b 1247 260 1235 258 1238 260 l 1258 260 b 1344 249 1288 260 1317 258 b 1351 247 1347 249 1350 247 b 1361 253 1356 247 1360 249 b 1363 257 1361 254 1363 256 b 1353 268 1363 263 1357 265 b 1342 272 1349 269 1346 271 b 1296 283 1326 278 1311 281 b 1247 288 1279 286 1264 288 b 1233 300 1238 288 1233 292 l 1233 324 b 1254 482 1238 376 1243 429 b 1331 760 1272 576 1299 668 b 1429 1026 1361 849 1388 940 b 1433 1046 1432 1033 1433 1040 b 1394 1097 1433 1068 1418 1090 b 1379 1100 1389 1099 1385 1100 b 1353 1089 1369 1100 1361 1096 b 1333 1065 1346 1082 1339 1074 b 1146 817 1271 982 1208 900 b 829 383 1038 675 931 532 b 746 261 801 343 774 303 b 728 244 742 254 738 246 b 696 240 717 243 707 242 z m 142 147 l 122 147 b 85 151 110 147 97 147 b 38 213 54 161 40 181 l 38 218 b 63 315 38 253 49 285 b 149 446 85 364 115 406 b 471 703 239 554 347 639 b 642 765 525 732 581 754 b 688 769 657 768 672 769 b 719 767 699 769 708 769 b 738 764 725 767 732 765 b 793 696 772 753 790 732 b 794 667 794 686 794 676 b 788 607 794 647 792 626 b 726 439 774 549 751 493 b 633 249 699 374 667 311 b 600 225 626 233 615 228 b 397 188 532 215 465 203 b 217 153 338 176 278 163 b 142 147 192 149 167 147 z m 1231 739 b 1226 718 1231 731 1228 725 b 1168 486 1201 642 1181 565 b 1154 333 1161 435 1154 385 l 1154 300 b 1143 286 1154 292 1151 288 b 1110 283 1132 286 1121 285 b 903 265 1042 281 972 274 l 893 265 b 882 267 889 265 886 265 b 1231 739 886 276 1217 724 z m 492 -117 b 519 -64 501 -99 510 -81 b 660 185 567 19 613 101 b 682 200 665 193 671 199 b 701 203 689 201 694 201 l 703 201 l 703 199 b 700 193 703 197 701 194 b 496 -118 632 89 564 -15 b 492 -117 494 -118 493 -118 z m 1483 1143 b 1510 1156 1493 1144 1503 1149 b 1519 1175 1517 1161 1519 1168 b 1501 1199 1519 1183 1513 1193 b 1447 1224 1482 1206 1464 1214 b 1389 1256 1428 1235 1408 1244 b 1378 1261 1385 1257 1382 1260 b 1368 1263 1375 1263 1371 1263 b 1351 1254 1361 1263 1356 1260 b 1349 1244 1349 1251 1349 1249 b 1357 1229 1349 1240 1351 1235 b 1397 1197 1371 1218 1383 1208 b 1456 1154 1417 1183 1436 1169 b 1483 1143 1464 1149 1472 1144 z "},"":{"ha":1458,"x_min":0,"x_max":0,"o":"m 696 240 b 694 246 696 242 694 244 b 701 260 694 251 699 256 b 753 360 718 293 736 326 b 822 529 779 415 804 471 b 846 660 836 571 846 615 l 846 675 b 729 815 842 746 804 800 b 686 819 715 818 701 819 b 638 815 671 819 654 818 b 432 744 565 804 497 778 b 131 501 315 682 215 601 b 28 344 90 453 54 401 b 0 231 13 308 0 271 b 89 117 0 171 32 131 b 150 110 108 113 129 110 b 178 111 160 110 168 110 b 303 126 221 114 263 119 b 575 181 394 142 485 163 b 588 183 578 182 583 183 b 593 181 589 183 592 183 b 594 176 594 179 594 178 b 588 164 594 172 590 168 b 492 -14 556 104 524 46 b 417 -169 464 -65 438 -115 b 401 -224 410 -186 403 -204 l 401 -231 b 433 -262 401 -249 415 -262 b 447 -260 438 -262 442 -261 b 478 -240 460 -256 469 -249 b 515 -203 490 -228 504 -215 b 638 -53 560 -156 599 -104 b 835 210 704 35 769 122 b 865 228 843 221 851 228 b 903 233 878 229 890 232 b 1140 257 982 243 1061 253 l 1147 257 b 1156 246 1154 257 1154 256 b 1163 193 1158 228 1160 211 b 1260 -81 1176 96 1208 4 b 1306 -140 1274 -101 1288 -122 b 1332 -154 1313 -147 1321 -153 b 1350 -140 1343 -154 1350 -150 b 1349 -133 1350 -139 1350 -136 b 1338 -111 1346 -125 1342 -118 b 1238 199 1282 -14 1250 89 b 1235 246 1236 214 1235 229 l 1235 250 b 1247 260 1235 258 1238 260 l 1258 260 b 1344 249 1288 260 1317 258 b 1351 247 1347 249 1350 247 b 1361 253 1356 247 1360 249 b 1363 257 1361 254 1363 256 b 1353 268 1363 263 1357 265 b 1342 272 1349 269 1346 271 b 1296 283 1326 278 1311 281 b 1247 288 1279 286 1264 288 b 1233 300 1238 288 1233 292 l 1233 324 b 1254 482 1238 376 1243 429 b 1331 760 1272 576 1299 668 b 1429 1026 1361 849 1388 940 b 1433 1046 1432 1033 1433 1040 b 1394 1097 1433 1068 1418 1090 b 1379 1100 1389 1099 1385 1100 b 1353 1089 1369 1100 1361 1096 b 1333 1065 1346 1082 1339 1074 b 1146 817 1271 982 1208 900 b 829 383 1038 675 931 532 b 746 261 801 343 774 303 b 728 244 742 254 738 246 b 696 240 717 243 707 242 z m 142 147 l 122 147 b 85 151 110 147 97 147 b 38 213 54 161 40 181 l 38 218 b 63 315 38 253 49 285 b 149 446 85 364 115 406 b 471 703 239 554 347 639 b 642 765 525 732 581 754 b 688 769 657 768 672 769 b 719 767 699 769 708 769 b 738 764 725 767 732 765 b 793 696 772 753 790 732 b 794 667 794 686 794 676 b 788 607 794 647 792 626 b 726 439 774 549 751 493 b 633 249 699 374 667 311 b 600 225 626 233 615 228 b 397 188 532 215 465 203 b 217 153 338 176 278 163 b 142 147 192 149 167 147 z m 1231 739 b 1226 718 1231 731 1228 725 b 1168 486 1201 642 1181 565 b 1154 333 1161 435 1154 385 l 1154 300 b 1143 286 1154 292 1151 288 b 1110 283 1132 286 1121 285 b 903 265 1042 281 972 274 l 893 265 b 882 267 889 265 886 265 b 1231 739 886 276 1217 724 z m 492 -117 b 519 -64 501 -99 510 -81 b 660 185 567 19 613 101 b 682 200 665 193 671 199 b 701 203 689 201 694 201 l 703 201 l 703 199 b 700 193 703 197 701 194 b 496 -118 632 89 564 -15 b 492 -117 494 -118 493 -118 z m 1386 1143 b 1413 1154 1396 1144 1404 1149 b 1471 1197 1432 1169 1451 1183 b 1511 1229 1485 1208 1499 1218 b 1519 1244 1517 1235 1519 1240 b 1517 1254 1519 1249 1519 1251 b 1500 1263 1513 1260 1507 1263 b 1490 1261 1497 1263 1493 1263 b 1479 1256 1488 1260 1483 1257 b 1422 1224 1460 1244 1440 1235 b 1368 1199 1404 1214 1386 1206 b 1350 1175 1356 1193 1350 1183 b 1358 1156 1350 1168 1353 1161 b 1386 1143 1365 1149 1375 1144 z "},"":{"ha":1458,"x_min":0,"x_max":0,"o":"m 696 240 b 694 246 696 242 694 244 b 701 260 694 251 699 256 b 753 360 718 293 736 326 b 822 529 779 415 804 471 b 846 660 836 571 846 615 l 846 675 b 729 815 842 746 804 800 b 686 819 715 818 701 819 b 638 815 671 819 654 818 b 432 744 565 804 497 778 b 131 501 315 682 215 601 b 28 344 90 453 54 401 b 0 231 13 308 0 271 b 89 117 0 171 32 131 b 150 110 108 113 129 110 b 178 111 160 110 168 110 b 303 126 221 114 263 119 b 575 181 394 142 485 163 b 588 183 578 182 583 183 b 593 181 589 183 592 183 b 594 176 594 179 594 178 b 588 164 594 172 590 168 b 492 -14 556 104 524 46 b 417 -169 464 -65 438 -115 b 401 -224 410 -186 403 -204 l 401 -231 b 433 -262 401 -249 415 -262 b 447 -260 438 -262 442 -261 b 478 -240 460 -256 469 -249 b 515 -203 490 -228 504 -215 b 638 -53 560 -156 599 -104 b 835 210 704 35 769 122 b 865 228 843 221 851 228 b 903 233 878 229 890 232 b 1140 257 982 243 1061 253 l 1147 257 b 1156 246 1154 257 1154 256 b 1163 193 1158 228 1160 211 b 1260 -81 1176 96 1208 4 b 1306 -140 1274 -101 1288 -122 b 1332 -154 1313 -147 1321 -153 b 1350 -140 1343 -154 1350 -150 b 1349 -133 1350 -139 1350 -136 b 1338 -111 1346 -125 1342 -118 b 1238 199 1282 -14 1250 89 b 1235 246 1236 214 1235 229 l 1235 250 b 1247 260 1235 258 1238 260 l 1258 260 b 1344 249 1288 260 1317 258 b 1351 247 1347 249 1350 247 b 1361 253 1356 247 1360 249 b 1363 257 1361 254 1363 256 b 1353 268 1363 263 1357 265 b 1342 272 1349 269 1346 271 b 1296 283 1326 278 1311 281 b 1247 288 1279 286 1264 288 b 1233 300 1238 288 1233 292 l 1233 324 b 1254 482 1238 376 1243 429 b 1331 760 1272 576 1299 668 b 1429 1026 1361 849 1388 940 b 1433 1046 1432 1033 1433 1040 b 1394 1097 1433 1068 1418 1090 b 1379 1100 1389 1099 1385 1100 b 1353 1089 1369 1100 1361 1096 b 1333 1065 1346 1082 1339 1074 b 1146 817 1271 982 1208 900 b 829 383 1038 675 931 532 b 746 261 801 343 774 303 b 728 244 742 254 738 246 b 696 240 717 243 707 242 z m 142 147 l 122 147 b 85 151 110 147 97 147 b 38 213 54 161 40 181 l 38 218 b 63 315 38 253 49 285 b 149 446 85 364 115 406 b 471 703 239 554 347 639 b 642 765 525 732 581 754 b 688 769 657 768 672 769 b 719 767 699 769 708 769 b 738 764 725 767 732 765 b 793 696 772 753 790 732 b 794 667 794 686 794 676 b 788 607 794 647 792 626 b 726 439 774 549 751 493 b 633 249 699 374 667 311 b 600 225 626 233 615 228 b 397 188 532 215 465 203 b 217 153 338 176 278 163 b 142 147 192 149 167 147 z m 1231 739 b 1226 718 1231 731 1228 725 b 1168 486 1201 642 1181 565 b 1154 333 1161 435 1154 385 l 1154 300 b 1143 286 1154 292 1151 288 b 1110 283 1132 286 1121 285 b 903 265 1042 281 972 274 l 893 265 b 882 267 889 265 886 265 b 1231 739 886 276 1217 724 z m 492 -117 b 519 -64 501 -99 510 -81 b 660 185 567 19 613 101 b 682 200 665 193 671 199 b 701 203 689 201 694 201 l 703 201 l 703 199 b 700 193 703 197 701 194 b 496 -118 632 89 564 -15 b 492 -117 494 -118 493 -118 z m 1543 1163 b 1536 1178 1543 1168 1540 1172 b 1517 1211 1528 1188 1522 1200 b 1500 1249 1510 1224 1506 1236 b 1456 1281 1490 1269 1474 1281 b 1425 1271 1446 1281 1435 1278 b 1354 1222 1400 1256 1376 1240 b 1314 1185 1340 1210 1326 1199 b 1307 1169 1310 1181 1307 1175 b 1308 1163 1307 1167 1307 1165 b 1331 1146 1313 1153 1319 1147 l 1336 1146 b 1351 1150 1342 1146 1347 1147 b 1375 1167 1360 1156 1368 1161 b 1435 1213 1396 1182 1414 1199 b 1451 1221 1443 1218 1449 1221 b 1467 1207 1457 1221 1460 1217 b 1489 1178 1475 1197 1482 1188 b 1515 1154 1496 1168 1506 1161 b 1528 1150 1518 1151 1524 1150 l 1531 1150 b 1543 1163 1538 1150 1543 1156 z "},"":{"ha":1458,"x_min":0,"x_max":0,"o":"m 696 240 b 694 246 696 242 694 244 b 701 260 694 251 699 256 b 753 360 718 293 736 326 b 822 529 779 415 804 471 b 846 660 836 571 846 615 l 846 675 b 729 815 842 746 804 800 b 686 819 715 818 701 819 b 638 815 671 819 654 818 b 432 744 565 804 497 778 b 131 501 315 682 215 601 b 28 344 90 453 54 401 b 0 231 13 308 0 271 b 89 117 0 171 32 131 b 150 110 108 113 129 110 b 178 111 160 110 168 110 b 303 126 221 114 263 119 b 575 181 394 142 485 163 b 588 183 578 182 583 183 b 593 181 589 183 592 183 b 594 176 594 179 594 178 b 588 164 594 172 590 168 b 492 -14 556 104 524 46 b 417 -169 464 -65 438 -115 b 401 -224 410 -186 403 -204 l 401 -231 b 433 -262 401 -249 415 -262 b 447 -260 438 -262 442 -261 b 478 -240 460 -256 469 -249 b 515 -203 490 -228 504 -215 b 638 -53 560 -156 599 -104 b 835 210 704 35 769 122 b 865 228 843 221 851 228 b 903 233 878 229 890 232 b 1140 257 982 243 1061 253 l 1147 257 b 1156 246 1154 257 1154 256 b 1163 193 1158 228 1160 211 b 1260 -81 1176 96 1208 4 b 1306 -140 1274 -101 1288 -122 b 1332 -154 1313 -147 1321 -153 b 1350 -140 1343 -154 1350 -150 b 1349 -133 1350 -139 1350 -136 b 1338 -111 1346 -125 1342 -118 b 1238 199 1282 -14 1250 89 b 1235 246 1236 214 1235 229 l 1235 250 b 1247 260 1235 258 1238 260 l 1258 260 b 1344 249 1288 260 1317 258 b 1351 247 1347 249 1350 247 b 1361 253 1356 247 1360 249 b 1363 257 1361 254 1363 256 b 1353 268 1363 263 1357 265 b 1342 272 1349 269 1346 271 b 1296 283 1326 278 1311 281 b 1247 288 1279 286 1264 288 b 1233 300 1238 288 1233 292 l 1233 324 b 1254 482 1238 376 1243 429 b 1331 760 1272 576 1299 668 b 1429 1026 1361 849 1388 940 b 1433 1046 1432 1033 1433 1040 b 1394 1097 1433 1068 1418 1090 b 1379 1100 1389 1099 1385 1100 b 1353 1089 1369 1100 1361 1096 b 1333 1065 1346 1082 1339 1074 b 1146 817 1271 982 1208 900 b 829 383 1038 675 931 532 b 746 261 801 343 774 303 b 728 244 742 254 738 246 b 696 240 717 243 707 242 z m 142 147 l 122 147 b 85 151 110 147 97 147 b 38 213 54 161 40 181 l 38 218 b 63 315 38 253 49 285 b 149 446 85 364 115 406 b 471 703 239 554 347 639 b 642 765 525 732 581 754 b 688 769 657 768 672 769 b 719 767 699 769 708 769 b 738 764 725 767 732 765 b 793 696 772 753 790 732 b 794 667 794 686 794 676 b 788 607 794 647 792 626 b 726 439 774 549 751 493 b 633 249 699 374 667 311 b 600 225 626 233 615 228 b 397 188 532 215 465 203 b 217 153 338 176 278 163 b 142 147 192 149 167 147 z m 1231 739 b 1226 718 1231 731 1228 725 b 1168 486 1201 642 1181 565 b 1154 333 1161 435 1154 385 l 1154 300 b 1143 286 1154 292 1151 288 b 1110 283 1132 286 1121 285 b 903 265 1042 281 972 274 l 893 265 b 882 267 889 265 886 265 b 1231 739 886 276 1217 724 z m 492 -117 b 519 -64 501 -99 510 -81 b 660 185 567 19 613 101 b 682 200 665 193 671 199 b 701 203 689 201 694 201 l 703 201 l 703 199 b 700 193 703 197 701 194 b 496 -118 632 89 564 -15 b 492 -117 494 -118 493 -118 z m 1310 1174 b 1328 1139 1310 1157 1317 1146 b 1340 1135 1332 1136 1338 1135 b 1357 1150 1349 1135 1354 1140 b 1378 1186 1361 1164 1369 1175 b 1394 1199 1386 1194 1390 1199 b 1410 1188 1399 1199 1403 1194 b 1446 1157 1421 1175 1432 1164 b 1467 1151 1453 1154 1461 1151 b 1493 1164 1478 1151 1486 1156 b 1546 1240 1514 1186 1531 1214 b 1547 1244 1546 1242 1547 1243 l 1547 1247 b 1543 1257 1547 1251 1546 1256 b 1538 1258 1542 1258 1540 1258 b 1529 1256 1535 1258 1532 1257 b 1521 1246 1526 1253 1524 1250 b 1485 1210 1508 1235 1497 1221 b 1465 1196 1476 1200 1471 1196 b 1446 1213 1460 1196 1454 1201 b 1422 1240 1439 1222 1432 1232 b 1390 1253 1413 1249 1401 1253 b 1369 1247 1383 1253 1376 1251 b 1315 1193 1344 1236 1326 1218 b 1310 1174 1311 1186 1310 1178 z "},"":{"ha":1458,"x_min":0,"x_max":0,"o":"m 696 240 b 694 246 696 242 694 244 b 701 260 694 251 699 256 b 753 360 718 293 736 326 b 822 529 779 415 804 471 b 846 660 836 571 846 615 l 846 675 b 729 815 842 746 804 800 b 686 819 715 818 701 819 b 638 815 671 819 654 818 b 432 744 565 804 497 778 b 131 501 315 682 215 601 b 28 344 90 453 54 401 b 0 231 13 308 0 271 b 89 117 0 171 32 131 b 150 110 108 113 129 110 b 178 111 160 110 168 110 b 303 126 221 114 263 119 b 575 181 394 142 485 163 b 588 183 578 182 583 183 b 593 181 589 183 592 183 b 594 176 594 179 594 178 b 588 164 594 172 590 168 b 492 -14 556 104 524 46 b 417 -169 464 -65 438 -115 b 401 -224 410 -186 403 -204 l 401 -231 b 433 -262 401 -249 415 -262 b 447 -260 438 -262 442 -261 b 478 -240 460 -256 469 -249 b 515 -203 490 -228 504 -215 b 638 -53 560 -156 599 -104 b 835 210 704 35 769 122 b 865 228 843 221 851 228 b 903 233 878 229 890 232 b 1140 257 982 243 1061 253 l 1147 257 b 1156 246 1154 257 1154 256 b 1163 193 1158 228 1160 211 b 1260 -81 1176 96 1208 4 b 1306 -140 1274 -101 1288 -122 b 1332 -154 1313 -147 1321 -153 b 1350 -140 1343 -154 1350 -150 b 1349 -133 1350 -139 1350 -136 b 1338 -111 1346 -125 1342 -118 b 1238 199 1282 -14 1250 89 b 1235 246 1236 214 1235 229 l 1235 250 b 1247 260 1235 258 1238 260 l 1258 260 b 1344 249 1288 260 1317 258 b 1351 247 1347 249 1350 247 b 1361 253 1356 247 1360 249 b 1363 257 1361 254 1363 256 b 1353 268 1363 263 1357 265 b 1342 272 1349 269 1346 271 b 1296 283 1326 278 1311 281 b 1247 288 1279 286 1264 288 b 1233 300 1238 288 1233 292 l 1233 324 b 1254 482 1238 376 1243 429 b 1331 760 1272 576 1299 668 b 1429 1026 1361 849 1388 940 b 1433 1046 1432 1033 1433 1040 b 1394 1097 1433 1068 1418 1090 b 1379 1100 1389 1099 1385 1100 b 1353 1089 1369 1100 1361 1096 b 1333 1065 1346 1082 1339 1074 b 1146 817 1271 982 1208 900 b 829 383 1038 675 931 532 b 746 261 801 343 774 303 b 728 244 742 254 738 246 b 696 240 717 243 707 242 z m 142 147 l 122 147 b 85 151 110 147 97 147 b 38 213 54 161 40 181 l 38 218 b 63 315 38 253 49 285 b 149 446 85 364 115 406 b 471 703 239 554 347 639 b 642 765 525 732 581 754 b 688 769 657 768 672 769 b 719 767 699 769 708 769 b 738 764 725 767 732 765 b 793 696 772 753 790 732 b 794 667 794 686 794 676 b 788 607 794 647 792 626 b 726 439 774 549 751 493 b 633 249 699 374 667 311 b 600 225 626 233 615 228 b 397 188 532 215 465 203 b 217 153 338 176 278 163 b 142 147 192 149 167 147 z m 1231 739 b 1226 718 1231 731 1228 725 b 1168 486 1201 642 1181 565 b 1154 333 1161 435 1154 385 l 1154 300 b 1143 286 1154 292 1151 288 b 1110 283 1132 286 1121 285 b 903 265 1042 281 972 274 l 893 265 b 882 267 889 265 886 265 b 1231 739 886 276 1217 724 z m 492 -117 b 519 -64 501 -99 510 -81 b 660 185 567 19 613 101 b 682 200 665 193 671 199 b 701 203 689 201 694 201 l 703 201 l 703 199 b 700 193 703 197 701 194 b 496 -118 632 89 564 -15 b 492 -117 494 -118 493 -118 z m 1451 1192 l 1451 1189 b 1482 1154 1451 1169 1464 1154 l 1488 1154 b 1528 1200 1506 1157 1528 1182 b 1511 1229 1528 1213 1522 1224 b 1500 1232 1507 1232 1503 1232 b 1485 1226 1494 1232 1489 1231 b 1474 1221 1481 1224 1478 1221 b 1451 1192 1456 1218 1453 1206 z m 1347 1194 b 1385 1154 1347 1172 1365 1154 b 1418 1186 1403 1154 1418 1168 l 1418 1189 b 1385 1225 1418 1206 1403 1225 l 1381 1225 b 1347 1194 1357 1224 1347 1217 z "},"":{"ha":1458,"x_min":0,"x_max":0,"o":"m 696 240 b 694 246 696 242 694 244 b 701 260 694 251 699 256 b 753 360 718 293 736 326 b 822 529 779 415 804 471 b 846 660 836 571 846 615 l 846 675 b 729 815 842 746 804 800 b 686 819 715 818 701 819 b 638 815 671 819 654 818 b 432 744 565 804 497 778 b 131 501 315 682 215 601 b 28 344 90 453 54 401 b 0 231 13 308 0 271 b 89 117 0 171 32 131 b 150 110 108 113 129 110 b 178 111 160 110 168 110 b 303 126 221 114 263 119 b 575 181 394 142 485 163 b 588 183 578 182 583 183 b 593 181 589 183 592 183 b 594 176 594 179 594 178 b 588 164 594 172 590 168 b 492 -14 556 104 524 46 b 417 -169 464 -65 438 -115 b 401 -224 410 -186 403 -204 l 401 -231 b 433 -262 401 -249 415 -262 b 447 -260 438 -262 442 -261 b 478 -240 460 -256 469 -249 b 515 -203 490 -228 504 -215 b 638 -53 560 -156 599 -104 b 835 210 704 35 769 122 b 865 228 843 221 851 228 b 903 233 878 229 890 232 b 1140 257 982 243 1061 253 l 1147 257 b 1156 246 1154 257 1154 256 b 1163 193 1158 228 1160 211 b 1260 -81 1176 96 1208 4 b 1306 -140 1274 -101 1288 -122 b 1332 -154 1313 -147 1321 -153 b 1350 -140 1343 -154 1350 -150 b 1349 -133 1350 -139 1350 -136 b 1338 -111 1346 -125 1342 -118 b 1238 199 1282 -14 1250 89 b 1235 246 1236 214 1235 229 l 1235 250 b 1247 260 1235 258 1238 260 l 1258 260 b 1344 249 1288 260 1317 258 b 1351 247 1347 249 1350 247 b 1361 253 1356 247 1360 249 b 1363 257 1361 254 1363 256 b 1353 268 1363 263 1357 265 b 1342 272 1349 269 1346 271 b 1296 283 1326 278 1311 281 b 1247 288 1279 286 1264 288 b 1233 300 1238 288 1233 292 l 1233 324 b 1254 482 1238 376 1243 429 b 1331 760 1272 576 1299 668 b 1429 1026 1361 849 1388 940 b 1433 1046 1432 1033 1433 1040 b 1394 1097 1433 1068 1418 1090 b 1379 1100 1389 1099 1385 1100 b 1353 1089 1369 1100 1361 1096 b 1333 1065 1346 1082 1339 1074 b 1146 817 1271 982 1208 900 b 829 383 1038 675 931 532 b 746 261 801 343 774 303 b 728 244 742 254 738 246 b 696 240 717 243 707 242 z m 142 147 l 122 147 b 85 151 110 147 97 147 b 38 213 54 161 40 181 l 38 218 b 63 315 38 253 49 285 b 149 446 85 364 115 406 b 471 703 239 554 347 639 b 642 765 525 732 581 754 b 688 769 657 768 672 769 b 719 767 699 769 708 769 b 738 764 725 767 732 765 b 793 696 772 753 790 732 b 794 667 794 686 794 676 b 788 607 794 647 792 626 b 726 439 774 549 751 493 b 633 249 699 374 667 311 b 600 225 626 233 615 228 b 397 188 532 215 465 203 b 217 153 338 176 278 163 b 142 147 192 149 167 147 z m 1231 739 b 1226 718 1231 731 1228 725 b 1168 486 1201 642 1181 565 b 1154 333 1161 435 1154 385 l 1154 300 b 1143 286 1154 292 1151 288 b 1110 283 1132 286 1121 285 b 903 265 1042 281 972 274 l 893 265 b 882 267 889 265 886 265 b 1231 739 886 276 1217 724 z m 492 -117 b 519 -64 501 -99 510 -81 b 660 185 567 19 613 101 b 682 200 665 193 671 199 b 701 203 689 201 694 201 l 703 201 l 703 199 b 700 193 703 197 701 194 b 496 -118 632 89 564 -15 b 492 -117 494 -118 493 -118 z m 1436 1135 b 1508 1171 1463 1135 1492 1150 b 1519 1200 1515 1181 1519 1190 b 1506 1233 1519 1213 1514 1224 b 1467 1253 1494 1244 1482 1253 l 1460 1253 b 1415 1242 1444 1253 1429 1246 b 1410 1236 1413 1240 1411 1239 b 1388 1194 1400 1224 1392 1211 b 1386 1183 1386 1190 1386 1186 b 1436 1135 1386 1156 1407 1135 z m 1460 1228 b 1485 1210 1476 1224 1485 1218 b 1476 1192 1485 1204 1482 1199 b 1442 1167 1467 1179 1456 1171 b 1433 1165 1439 1167 1436 1165 b 1428 1168 1432 1165 1429 1167 b 1426 1171 1428 1169 1426 1169 b 1432 1179 1426 1174 1429 1176 b 1446 1194 1436 1185 1440 1190 b 1461 1221 1456 1200 1461 1208 b 1460 1228 1461 1222 1460 1225 z "},"":{"ha":2206,"x_min":0,"x_max":0,"o":"m 142 147 l 122 147 b 85 151 110 147 97 149 b 38 213 56 161 39 181 l 38 218 b 63 315 38 253 46 285 b 149 446 86 364 114 407 b 471 703 239 554 347 640 b 642 765 525 732 582 753 b 688 769 657 768 672 769 b 719 767 699 769 710 768 b 738 764 725 767 731 765 b 793 696 772 754 790 731 b 794 667 794 686 794 676 b 788 607 794 646 792 626 b 726 439 772 549 753 493 b 633 249 699 374 668 311 b 600 225 626 235 615 226 b 397 188 532 215 465 203 l 328 174 b 217 153 292 167 254 160 b 142 147 192 149 167 147 z m 492 -117 b 501 -100 496 -111 499 -106 b 519 -64 507 -87 513 -76 b 583 49 540 -26 563 11 b 660 185 608 94 633 139 b 682 200 664 194 672 199 b 696 201 686 201 692 201 b 701 203 697 203 700 203 l 703 201 l 703 199 l 700 193 b 517 -86 639 100 578 7 b 496 -118 510 -97 503 -108 b 492 -117 494 -118 493 -118 z m 1171 503 b 1156 414 1161 475 1156 444 l 1156 390 b 1154 333 1154 371 1154 353 l 1154 300 b 1143 286 1154 292 1150 288 b 1110 283 1132 286 1121 285 b 903 265 1042 281 972 275 l 893 265 b 882 267 889 265 886 265 b 936 343 885 271 903 297 b 1053 501 969 389 1008 442 b 1171 660 1097 561 1136 614 b 1231 739 1206 706 1225 732 b 1228 725 1231 733 1229 729 b 1226 718 1228 722 1228 719 b 1171 503 1203 647 1183 576 z m 1238 257 b 1313 225 1260 242 1285 231 b 1407 211 1344 218 1375 213 b 1501 207 1439 208 1469 207 b 1517 208 1506 207 1511 207 l 1544 208 l 1535 203 b 1529 199 1533 201 1531 200 b 1403 124 1486 175 1444 150 b 1274 31 1358 96 1315 65 b 1238 199 1256 85 1244 142 b 1235 246 1236 214 1235 229 l 1235 250 b 1238 257 1235 253 1236 256 z m 1224 -12 b 1185 -50 1211 -25 1197 -37 b 1114 -144 1158 -79 1135 -110 b 1089 -218 1100 -167 1092 -192 l 1089 -233 b 1146 -329 1089 -275 1108 -307 b 1250 -357 1178 -347 1213 -357 l 1263 -357 b 1374 -343 1300 -357 1338 -353 b 1686 -217 1485 -318 1589 -276 b 1833 -101 1740 -185 1790 -146 b 1878 -35 1853 -82 1868 -60 b 1883 -4 1882 -25 1883 -14 b 1821 72 1883 32 1863 57 b 1786 76 1808 75 1797 76 b 1754 74 1775 76 1764 75 b 1622 25 1708 67 1664 50 b 1388 -142 1538 -24 1460 -79 b 1311 -226 1358 -167 1332 -194 b 1299 -256 1306 -235 1301 -244 l 1299 -262 b 1306 -285 1299 -271 1301 -278 b 1317 -290 1310 -289 1313 -290 b 1321 -289 1318 -290 1319 -290 b 1326 -282 1325 -287 1326 -285 b 1325 -276 1326 -281 1326 -278 l 1325 -269 b 1335 -244 1325 -260 1328 -251 b 1375 -197 1347 -226 1360 -211 b 1576 -50 1438 -140 1504 -92 b 1710 14 1619 -24 1664 -3 b 1788 28 1736 24 1761 28 l 1796 28 b 1838 4 1824 28 1838 19 b 1828 -25 1838 -3 1835 -12 b 1782 -86 1815 -46 1800 -67 b 1629 -199 1736 -129 1686 -167 b 1278 -317 1521 -262 1404 -301 b 1258 -318 1271 -318 1265 -318 b 1183 -304 1233 -318 1208 -314 b 1164 -293 1176 -301 1171 -297 b 1140 -247 1149 -281 1140 -265 l 1140 -236 b 1153 -200 1143 -222 1147 -210 b 1201 -131 1165 -174 1182 -151 b 1257 -75 1219 -111 1238 -93 l 1260 -81 b 1306 -140 1272 -101 1288 -122 b 1332 -154 1313 -147 1321 -153 b 1350 -140 1344 -154 1350 -150 b 1349 -133 1350 -139 1350 -136 b 1338 -111 1346 -125 1342 -118 b 1300 -37 1324 -86 1311 -62 b 1360 10 1319 -21 1339 -6 b 1621 174 1443 69 1531 124 b 1642 186 1628 178 1635 182 b 1676 207 1654 193 1665 200 b 1696 239 1689 217 1696 228 b 1668 275 1696 254 1686 265 b 1636 281 1658 279 1647 281 b 1553 275 1608 279 1581 278 l 1511 272 b 1450 269 1490 271 1471 269 b 1342 278 1414 269 1378 272 b 1279 296 1319 281 1299 286 b 1235 339 1258 307 1243 321 b 1254 482 1239 386 1244 435 b 1258 506 1256 490 1257 497 b 1308 582 1274 533 1290 558 b 1532 804 1374 667 1447 740 b 1874 982 1636 883 1750 943 b 2033 1007 1926 999 1979 1007 b 2063 1006 2043 1007 2053 1007 b 2144 982 2092 1004 2119 997 b 2183 922 2165 969 2179 949 b 2185 906 2185 917 2185 911 b 2179 861 2185 890 2183 876 b 2117 713 2169 807 2149 757 b 1763 436 2029 581 1911 489 b 1743 417 1753 435 1746 428 l 1743 413 b 1757 392 1743 403 1747 396 b 1797 382 1769 385 1783 382 l 1808 382 b 1908 419 1844 389 1878 401 b 2142 599 1997 465 2075 525 b 2250 758 2188 647 2224 700 b 2279 881 2269 797 2279 838 b 2276 915 2279 892 2278 903 b 2107 1099 2260 1011 2203 1072 b 2015 1110 2076 1106 2046 1110 b 1918 1100 1983 1110 1951 1107 b 1585 969 1799 1078 1688 1035 b 1326 749 1488 908 1401 835 b 1331 760 1328 753 1329 756 b 1351 821 1338 781 1344 800 b 1429 1026 1372 892 1399 960 b 1433 1046 1432 1033 1433 1039 b 1424 1078 1433 1057 1431 1068 b 1394 1097 1417 1088 1407 1093 b 1379 1100 1390 1099 1385 1100 b 1353 1089 1369 1100 1361 1096 b 1333 1065 1346 1082 1339 1074 b 1240 942 1301 1024 1271 982 l 1146 817 b 829 383 1036 676 931 532 b 746 261 801 343 774 303 b 744 260 746 260 746 260 b 739 250 743 256 740 253 b 728 244 736 247 732 246 b 713 243 722 243 717 243 l 696 240 b 694 246 694 242 694 244 b 696 251 694 247 694 250 b 699 256 697 253 697 254 b 701 260 700 257 700 258 b 728 310 710 276 718 293 l 753 360 b 822 529 781 415 804 472 b 846 660 838 572 846 615 l 846 675 b 729 815 842 750 803 797 b 686 819 715 818 701 819 b 638 815 671 819 654 818 b 432 744 565 803 497 779 b 131 501 315 682 215 601 b 28 344 90 453 56 401 b 8 290 21 326 14 308 b 0 231 3 271 0 251 b 89 117 0 171 29 133 b 150 110 110 113 129 110 b 178 111 160 110 168 110 b 303 126 221 114 263 119 b 488 163 365 138 426 150 b 575 181 517 169 546 175 b 578 182 576 181 576 181 b 588 183 582 183 585 183 b 593 181 589 183 592 182 b 594 176 594 179 594 178 b 593 174 594 175 594 175 b 590 168 592 172 592 169 b 588 164 589 167 589 165 l 540 75 b 492 -14 524 46 507 15 b 417 -169 463 -64 438 -115 b 401 -224 410 -186 404 -204 l 401 -231 b 411 -253 401 -240 404 -247 b 433 -262 417 -260 424 -262 b 447 -260 438 -262 443 -261 b 478 -240 460 -256 469 -249 l 490 -228 b 515 -203 500 -219 508 -211 b 638 -53 558 -154 600 -104 b 835 210 704 35 769 122 b 865 228 842 222 851 228 l 885 231 b 903 233 890 232 896 232 b 1140 257 982 244 1061 253 l 1147 257 b 1154 256 1150 257 1153 257 b 1156 246 1156 254 1156 250 b 1160 219 1157 236 1158 228 b 1163 193 1161 211 1161 203 b 1224 -12 1172 121 1193 53 z "},"":{"ha":1147,"x_min":0,"x_max":0,"o":"m 146 -419 l 146 -414 b 147 -408 146 -412 146 -411 b 150 -401 149 -407 149 -404 b 224 -342 167 -372 192 -351 b 229 -340 225 -340 228 -340 b 235 -346 233 -340 235 -342 l 233 -350 b 185 -422 226 -379 210 -403 b 183 -424 183 -422 183 -422 b 172 -429 179 -425 176 -428 b 160 -432 168 -431 164 -432 l 154 -432 b 146 -419 149 -432 146 -428 z m 254 -275 l 249 -300 b 225 -324 247 -312 239 -321 b 151 -362 197 -328 172 -342 b 126 -417 135 -378 126 -396 l 126 -421 b 161 -453 128 -442 139 -453 l 164 -453 b 188 -446 172 -453 181 -450 b 236 -406 207 -436 224 -422 b 290 -328 256 -381 274 -354 b 315 -279 301 -312 310 -296 b 317 -274 315 -278 317 -276 b 400 -249 346 -271 374 -262 b 533 -160 449 -225 493 -194 b 682 -19 586 -117 636 -69 b 790 94 717 18 753 57 l 843 150 b 1036 342 906 217 969 281 b 1104 390 1064 365 1086 382 b 1115 397 1108 393 1113 396 l 1118 399 b 1147 408 1128 406 1138 408 l 1154 408 b 1160 410 1156 408 1158 408 b 1161 415 1161 411 1161 413 b 1157 422 1161 419 1160 421 b 1146 424 1153 424 1150 424 b 1125 421 1139 424 1132 422 b 1100 411 1117 418 1108 415 b 950 306 1065 401 1015 365 b 815 171 904 261 858 217 b 758 111 797 150 778 131 b 715 65 743 96 729 81 b 582 -71 672 19 628 -26 b 450 -176 542 -110 499 -144 b 326 -229 413 -201 372 -219 b 294 -232 315 -231 304 -232 b 211 -204 265 -232 238 -222 b 147 -126 185 -183 163 -157 b 100 53 118 -69 103 -10 b 99 97 99 68 99 82 b 135 331 99 176 111 254 b 363 760 185 488 261 631 b 542 935 414 828 474 886 b 676 996 582 967 626 986 b 693 997 683 997 689 997 b 743 951 721 997 738 982 b 749 894 747 933 749 914 b 744 838 749 876 747 857 b 688 653 735 774 715 713 b 639 550 672 618 657 583 b 633 533 635 544 633 539 b 638 524 633 531 635 528 b 660 513 644 517 651 513 l 665 513 b 686 519 674 513 681 515 b 717 549 699 528 708 538 b 847 858 785 642 829 744 b 851 906 850 874 851 890 b 829 1006 851 940 844 974 b 714 1104 806 1057 768 1089 b 668 1110 699 1108 683 1110 b 618 1104 651 1110 635 1108 b 492 1049 572 1093 531 1075 b 303 882 419 1003 357 947 b 67 493 203 765 124 636 b 19 339 47 442 32 390 b 1 183 7 286 1 235 l 1 175 b 43 -76 1 85 15 1 b 138 -219 63 -132 94 -179 b 254 -275 171 -250 210 -268 z "}}}
